<?xml version="1.0" encoding="utf-8"?>
<!-- Generator: Adobe Illustrator 13.0.0, SVG Export Plug-In . SVG Version: 6.00 Build 14948)  -->
<!DOCTYPE svg PUBLIC "-//W3C//DTD SVG 1.0//EN" "http://www.w3.org/TR/2001/REC-SVG-20010904/DTD/svg10.dtd">
<svg version="1.0" id="mask" xmlns="http://www.w3.org/2000/svg" xmlns:xlink="http://www.w3.org/1999/xlink" x="0px" y="0px"
	 width="1296px" height="955px" viewBox="1.4 0.9 1296 955" enable-background="new 1.4 0.9 1296 955" xml:space="preserve">
<path fill="#FF0000" d="M1231.231,215.121H909.3c-13.521,0-24.481,6.533-24.481,14.593v30.646c0,8.06,10.961,14.593,24.481,14.593
	h321.932c13.521,0,24.481-6.533,24.481-14.593v-30.646C1255.713,221.654,1244.752,215.121,1231.231,215.121z"/>
<path fill="#00FF00" d="M1230.891,610.791H868.647c-15.214,0-27.546,6.416-27.546,14.334v30.102
	c0,7.916,12.332,14.334,27.546,14.334h362.243c15.214,0,27.548-6.418,27.548-14.334v-30.102
	C1258.438,617.207,1246.104,610.791,1230.891,610.791z"/>
<path fill="#9900FF" d="M1237.165,808.457H455.379c-13.034,0-23.6,5.936-23.6,13.256v35.013c0,7.32,10.565,13.256,23.6,13.256
	h781.786c13.034,0,23.601-5.936,23.601-13.256v-35.013C1260.766,814.393,1250.199,808.457,1237.165,808.457z"/>
<path fill="#FFFF00" d="M1235.942,676.82h-602.58c-12.845,0-23.259,5.626-23.259,12.567v33.198c0,6.939,10.414,12.567,23.259,12.567
	h602.58c12.845,0,23.261-5.628,23.261-12.567v-33.198C1259.203,682.446,1248.787,676.82,1235.942,676.82z"/>
<path fill="#99FFFF" d="M1235.568,742.23H615.939c-12.19,0-22.072,5.936-22.072,13.256V790.5c0,7.32,9.882,13.256,22.072,13.256
	h619.629c12.19,0,22.073-5.936,22.073-13.256v-35.014C1257.642,748.166,1247.759,742.23,1235.568,742.23z"/>
<path fill="#0000FF" d="M1235.78,281.926H814.966c-12.938,0-23.425,6.589-23.425,14.715v30.902c0,8.126,10.487,14.715,23.425,14.715
	h420.814c12.938,0,23.427-6.589,23.427-14.715v-30.902C1259.207,288.515,1248.718,281.926,1235.78,281.926z"/>
<path fill="#00FFFF" d="M1235.112,151.486H812.896c-12.98,0-23.503,6.588-23.503,14.715v30.902c0,8.126,10.522,14.715,23.503,14.715
	h422.217c12.981,0,23.505-6.589,23.505-14.715v-30.902C1258.617,158.074,1248.094,151.486,1235.112,151.486z"/>
<path fill="#990000" d="M1232.748,86.669H773.58c-14.971,0-27.104,5.603-27.104,12.515v31.553c0,6.911,12.134,12.515,27.104,12.515
	h459.168c14.968,0,27.105-5.604,27.105-12.515V99.184C1259.854,92.272,1247.716,86.669,1232.748,86.669z"/>
<path fill="#999999" d="M1237.319,412.433H893.076c-11.224,0-20.32,6.389-20.32,14.27v35.978c0,7.88,9.097,14.27,20.32,14.27
	h344.243c11.225,0,20.322-6.389,20.322-14.27v-35.978C1257.642,418.822,1248.544,412.433,1237.319,412.433z"/>
<path d="M1236.786,546.065H791.221c-10.919,0-19.771,5.721-19.771,12.777v32.216c0,7.055,8.852,12.777,19.771,12.777h445.565
	c10.919,0,19.771-5.723,19.771-12.777v-32.216C1256.558,551.786,1247.705,546.065,1236.786,546.065z"/>
<path fill="#99FF00" d="M1239.793,484.459H955.794c-9.854,0-17.842,5.113-17.842,11.423v28.803c0,6.31,7.988,11.424,17.842,11.424
	h283.999c9.854,0,17.843-5.114,17.843-11.424v-28.803C1257.636,489.572,1249.647,484.459,1239.793,484.459z"/>
<path fill="#FF00FF" d="M1241.011,346.234H955.939c-9.893,0-17.909,5.917-17.909,13.217v33.327c0,7.299,8.017,13.218,17.909,13.218
	h285.071c9.892,0,17.91-5.919,17.91-13.218v-33.327C1258.921,352.152,1250.902,346.234,1241.011,346.234z"/>
</svg>
