<?xml version="1.0" encoding="utf-8"?>
<!-- Generator: Adobe Illustrator 13.0.0, SVG Export Plug-In . SVG Version: 6.00 Build 14948)  -->
<!DOCTYPE svg PUBLIC "-//W3C//DTD SVG 1.0//EN" "http://www.w3.org/TR/2001/REC-SVG-20010904/DTD/svg10.dtd">
<svg version="1.0" id="Layer_3" xmlns="http://www.w3.org/2000/svg" xmlns:xlink="http://www.w3.org/1999/xlink" x="0px" y="0px"
	 width="1296px" height="955px" viewBox="1.4 0.9 1296 955" enable-background="new 1.4 0.9 1296 955" xml:space="preserve">
<path opacity="0.7" stroke="#FFFFFF" stroke-width="4" d="M1257.097,128.141c0,8.746-7.696,15.835-17.194,15.835H767.089
	c-9.497,0-17.194-7.089-17.194-15.835V101.75c0-8.745,7.697-15.834,17.194-15.834h472.813c9.498,0,17.194,7.089,17.194,15.834
	V128.141z"/>
<g>
	<path fill="#FFFFFF" d="M796.85,131.415v-11.828h-4.73c-2.587,0.032-4.811-0.883-6.672-2.744c-1.86-1.86-2.791-4.084-2.791-6.671
		v-9.509h7.097v9.461c0,0.631,0.222,1.167,0.663,1.608c0.441,0.442,0.93,0.71,1.466,0.805c0.031,0,0.071,0,0.119,0
		c0.047,0,0.086,0,0.118,0h16.559c0.663,0.032,1.223-0.19,1.68-0.665s0.687-1.029,0.687-1.663v-9.547h7.096v9.438
		c0,2.612-0.922,4.846-2.768,6.702c-1.845,1.856-4.077,2.784-6.694,2.784h-4.731v11.828H796.85z"/>
	<path fill="#FFFFFF" d="M825.662,128.643c-1.861-1.848-2.791-4.067-2.791-6.658c0-2.494,0-4.484,0-5.97c0-1.358,0-2.622,0-3.791
		c0-1.168,0-1.863,0-2.084c0-2.622,0.93-4.857,2.791-6.705c1.861-1.848,4.085-2.771,6.671-2.771l16.559-0.047
		c2.617,0.032,4.851,0.971,6.694,2.819c1.846,1.848,2.769,4.083,2.769,6.705c0,0.221,0,0.916,0,2.084c0,1.169,0,2.433,0,3.791
		c0,1.485,0,3.476,0,5.97c0,2.59-0.923,4.81-2.769,6.658c-1.844,1.848-4.077,2.772-6.694,2.772h-16.559
		C829.747,131.415,827.523,130.491,825.662,128.643z M850.571,123.632c0.457-0.457,0.687-1.001,0.687-1.632v-11.875
		c0-0.536-0.206-1.017-0.615-1.443c-0.41-0.425-0.852-0.701-1.325-0.828c-0.063,0-0.134-0.008-0.212-0.024
		c-0.079-0.015-0.15-0.023-0.214-0.023h-16.559c-0.127,0.032-0.283,0.086-0.473,0.164c-0.19,0.079-0.379,0.181-0.568,0.306
		c-0.347,0.188-0.654,0.456-0.922,0.8c-0.269,0.345-0.403,0.722-0.403,1.129v11.714c0,0.627,0.222,1.16,0.663,1.599
		c0.442,0.439,0.931,0.706,1.467,0.799c0.03,0,0.071,0,0.119,0c0.046,0,0.085,0,0.117,0h16.559
		C849.555,124.318,850.114,124.089,850.571,123.632z"/>
	<path fill="#FFFFFF" d="M896.202,121.953c0,2.619-0.924,4.85-2.768,6.694c-1.846,1.845-4.077,2.768-6.694,2.768h-14.194
		c-2.586,0-4.81-0.923-6.671-2.768c-1.861-1.845-2.791-4.06-2.791-6.647v-21.29h7.096v21.243c0,0.631,0.222,1.167,0.663,1.608
		c0.442,0.442,0.931,0.71,1.467,0.804c0.031,0,0.071,0,0.119,0c0.046,0,0.085,0,0.117,0h14.194c0.661,0.032,1.221-0.189,1.68-0.664
		c0.455-0.474,0.685-1.027,0.685-1.659v-21.379h7.098V121.953z"/>
	<path fill="#FFFFFF" d="M904.6,100.71c2.444,0,5.133,0,8.066,0c2.523,0,4.896,0,7.121,0c2.224,0,3.649,0,4.281,0
		c2.617,0,4.85,0.922,6.695,2.768c1.845,1.845,2.768,4.076,2.768,6.694c0,1.073-0.158,2.09-0.473,3.052
		c-0.316,0.962-0.727,1.853-1.23,2.673c0.725,0.82,1.276,1.75,1.655,2.791c0.379,1.041,0.568,2.146,0.568,3.312v9.415h-7.098v-9.462
		c0-0.568-0.196-1.072-0.591-1.514c-0.395-0.441-0.859-0.709-1.396-0.804c-0.063,0-0.971,0-2.72,0c-1.752,0-3.667,0-5.75,0
		c-2.113,0-4.936,0-8.469,0v11.828h-7.096v-30.799C900.934,100.695,902.154,100.71,904.6,100.71z M908.029,107.759v4.731h16.276
		c0.63,0.032,1.183-0.191,1.655-0.669c0.473-0.477,0.71-1.036,0.71-1.673c0-0.668-0.237-1.233-0.71-1.696
		c-0.473-0.462-1.025-0.694-1.655-0.694H908.029z"/>
	<path fill="#FFFFFF" d="M982.545,131.415c-2.587,0-4.811-0.924-6.672-2.772s-2.791-4.067-2.791-6.658c0-2.494,0-4.484,0-5.97
		c0-1.358,0-2.622,0-3.791c0-1.168,0-1.863,0-2.084c0-2.622,0.93-4.857,2.791-6.705c1.861-1.848,4.085-2.771,6.672-2.771
		l18.924-0.047v7.143h-18.924c-0.095,0.033-0.189,0.056-0.284,0.071c-0.095,0.016-0.188,0.041-0.283,0.071
		c-0.443,0.126-0.853,0.402-1.23,0.828c-0.378,0.426-0.569,0.907-0.569,1.443v11.781c0,0.662,0.237,1.23,0.71,1.703
		c0.475,0.473,1.024,0.709,1.657,0.709h18.924v7.05H982.545z"/>
	<path fill="#FFFFFF" d="M1015.661,131.415c-2.586,0-4.81-0.923-6.671-2.768c-1.861-1.845-2.791-4.06-2.791-6.647v-21.337h7.096
		v21.29c0,0.662,0.237,1.23,0.71,1.703c0.474,0.473,1.024,0.709,1.656,0.709h18.925v7.05H1015.661z"/>
	<path fill="#FFFFFF" d="M1042.108,128.643c-1.861-1.848-2.791-4.067-2.791-6.658c0-2.494,0-4.484,0-5.97c0-1.358,0-2.622,0-3.791
		c0-1.168,0-1.863,0-2.084c0-2.622,0.93-4.857,2.791-6.705c1.861-1.848,4.085-2.771,6.671-2.771l16.559-0.047
		c2.617,0.032,4.851,0.971,6.695,2.819c1.845,1.848,2.768,4.083,2.768,6.705c0,0.221,0,0.916,0,2.084c0,1.169,0,2.433,0,3.791
		c0,1.485,0,3.476,0,5.97c0,2.59-0.923,4.81-2.768,6.658s-4.078,2.772-6.695,2.772h-16.559
		C1046.193,131.415,1043.97,130.491,1042.108,128.643z M1067.018,123.632c0.457-0.457,0.687-1.001,0.687-1.632v-11.875
		c0-0.536-0.206-1.017-0.615-1.443c-0.41-0.425-0.852-0.701-1.325-0.828c-0.062,0-0.134-0.008-0.212-0.024
		c-0.079-0.015-0.15-0.023-0.214-0.023h-16.559c-0.127,0.032-0.283,0.086-0.473,0.164c-0.19,0.079-0.379,0.181-0.568,0.306
		c-0.347,0.188-0.654,0.456-0.922,0.8c-0.269,0.345-0.403,0.722-0.403,1.129v11.714c0,0.627,0.222,1.16,0.663,1.599
		c0.442,0.439,0.931,0.706,1.467,0.799c0.031,0,0.071,0,0.119,0c0.046,0,0.085,0,0.117,0h16.559
		C1066.001,124.318,1066.561,124.089,1067.018,123.632z"/>
	<path fill="#FFFFFF" d="M1079.53,107.759v-7.096h30.705v7.096h-11.828v23.656h-7.097v-23.656H1079.53z"/>
	<path fill="#FFFFFF" d="M1122.109,119.587v11.828h-7.096v-30.752h7.096v11.827h16.56v-11.827h7.097v30.752h-7.097v-11.828H1122.109
		z"/>
	<path fill="#FFFFFF" d="M1158.09,123.301c0.332,0.395,0.702,0.687,1.111,0.875c0.126,0.063,0.253,0.111,0.38,0.142
		c0.125,0.032,0.251,0.047,0.378,0.047h18.925v7.05h-18.925c-2.586,0-4.811-0.924-6.671-2.772c-1.861-1.848-2.792-4.067-2.792-6.658
		c0-2.494,0-4.484,0-5.97c0-1.358,0-2.622,0-3.791c0-1.168,0-1.863,0-2.084c0-2.622,0.931-4.857,2.792-6.705
		c1.86-1.848,4.085-2.771,6.671-2.771l18.641-0.047v7.143h-18.641c-0.632,0.033-1.183,0.277-1.656,0.734
		c-0.473,0.458-0.71,1.018-0.71,1.679v2.318h20.107v7.097h-20.107v2.366C1157.593,122.458,1157.759,122.907,1158.09,123.301z"/>
	<path fill="#FFFFFF" d="M1199.938,119.587c-1.263,0-2.492,0-3.691,0c-1.197,0-2.255,0-3.169,0c-2.586,0-4.811-0.93-6.671-2.791
		c-1.861-1.861-2.791-4.084-2.791-6.671c0-2.617,0.93-4.849,2.791-6.694c1.86-1.846,4.085-2.768,6.671-2.768l26.021-0.047v7.143
		h-26.021c-0.632,0.033-1.183,0.277-1.656,0.734c-0.473,0.458-0.71,1.018-0.71,1.679c0,0.631,0.245,1.183,0.734,1.657
		c0.488,0.473,1.032,0.709,1.632,0.709c3.438,0,6.182,0,8.232,0c1.86,0,3.595,0,5.203,0s2.587,0,2.934,0
		c2.618,0,4.85,0.929,6.695,2.785c1.845,1.856,2.768,4.09,2.768,6.701c0,2.58-0.923,4.79-2.768,6.63
		c-1.846,1.841-4.077,2.761-6.695,2.761h-25.88v-7.097h25.88c0.663,0.032,1.223-0.191,1.68-0.669
		c0.458-0.477,0.687-1.035,0.687-1.672c0-0.668-0.229-1.234-0.687-1.696c-0.457-0.462-1.017-0.694-1.68-0.694
		C1205.504,119.587,1202.334,119.587,1199.938,119.587z"/>
</g>
</svg>
