<?xml version="1.0" encoding="utf-8"?>
<!-- Generator: Adobe Illustrator 13.0.0, SVG Export Plug-In . SVG Version: 6.00 Build 14948)  -->
<!DOCTYPE svg PUBLIC "-//W3C//DTD SVG 1.0//EN" "http://www.w3.org/TR/2001/REC-SVG-20010904/DTD/svg10.dtd">
<svg version="1.0" id="Layer_3" xmlns="http://www.w3.org/2000/svg" xmlns:xlink="http://www.w3.org/1999/xlink" x="0px" y="0px"
	 width="1296px" height="955px" viewBox="1.4 0.9 1296 955" enable-background="new 1.4 0.9 1296 955" xml:space="preserve">
<path opacity="0.7" stroke="#FFFFFF" stroke-width="4" d="M1258.057,851.058c0,8.746-12.531,15.836-28.001,15.836H460.149
	c-15.469,0-28-7.09-28-15.836v-26.391c0-8.745,12.531-15.834,28-15.834h769.907c15.47,0,28.001,7.089,28.001,15.834V851.058z"/>
<g>
	<path fill="#FFFFFF" d="M474.467,840.613v11.653h-7.01V821.97h7.01v11.653h16.357V821.97h7.011v30.297h-7.011v-11.653H474.467z"/>
	<path fill="#FFFFFF" d="M533.075,824.066c0.746-0.715,1.532-1.242,2.359-1.585c0.824-0.34,1.736-0.512,2.733-0.512
		c1.932,0,3.583,0.686,4.955,2.054c1.37,1.369,2.055,3.019,2.055,4.948v23.295h-7.01v-11.653h-11.684L514.8,852.267h-9.955
		L533.075,824.066z M537.864,830.592c-0.201-0.155-0.442-0.233-0.725-0.233c-0.031,0-0.054-0.007-0.07-0.022
		c-0.016-0.015-0.023-0.039-0.023-0.069c0-0.031,0-0.056,0-0.071c0-0.015,0-0.037,0-0.069c-0.156,0.126-0.356,0.311-0.607,0.56
		l-2.945,2.938h4.675v-2.331C538.168,830.981,538.066,830.748,537.864,830.592z"/>
	<path fill="#FFFFFF" d="M568.313,840.613c-1.246,0-2.462,0-3.645,0c-1.187,0-2.229,0-3.133,0c-2.556,0-4.752-0.915-6.589-2.749
		c-1.839-1.835-2.758-4.024-2.758-6.572c0-2.58,0.919-4.778,2.758-6.597c1.837-1.817,4.033-2.726,6.589-2.726l25.705-0.047v7.038
		h-25.705c-0.623,0.032-1.168,0.273-1.634,0.723c-0.469,0.45-0.701,1.002-0.701,1.655c0,0.621,0.239,1.164,0.723,1.631
		c0.482,0.466,1.02,0.698,1.612,0.698c3.396,0,6.107,0,8.132,0c1.839,0,3.553,0,5.141,0c1.591,0,2.556,0,2.898,0
		c2.585,0,4.791,0.916,6.613,2.745c1.824,1.828,2.734,4.029,2.734,6.602c0,2.542-0.91,4.719-2.734,6.531
		c-1.822,1.815-4.028,2.721-6.613,2.721h-25.564v-6.991h25.564c0.654,0.031,1.209-0.19,1.659-0.658
		c0.45-0.472,0.68-1.021,0.68-1.649c0-0.659-0.229-1.216-0.68-1.671s-1.005-0.684-1.659-0.684
		C573.812,840.613,570.681,840.613,568.313,840.613z"/>
	<path fill="#FFFFFF" d="M594.252,828.961v-6.991h30.331v6.991h-11.684v23.306h-7.011v-23.306H594.252z"/>
	<path fill="#FFFFFF" d="M659.871,824.066c0.746-0.715,1.533-1.242,2.359-1.585c0.824-0.34,1.735-0.512,2.734-0.512
		c1.931,0,3.582,0.686,4.952,2.054c1.373,1.369,2.057,3.019,2.057,4.948v23.295h-7.009v-11.653h-11.684l-11.686,11.653h-9.955
		L659.871,824.066z M664.661,830.592c-0.204-0.155-0.444-0.233-0.725-0.233c-0.033,0-0.055-0.007-0.07-0.022
		c-0.016-0.015-0.023-0.039-0.023-0.069c0-0.031,0-0.056,0-0.071c0-0.015,0-0.037,0-0.069c-0.157,0.126-0.358,0.311-0.607,0.56
		l-2.945,2.938h4.675v-2.331C664.965,830.981,664.862,830.748,664.661,830.592z"/>
	<path fill="#FFFFFF" d="M724.552,852.267c-2.556,0-4.751-0.909-6.59-2.726c-1.839-1.818-2.758-4.002-2.758-6.55V821.97h7.01v20.975
		c0,0.652,0.234,1.212,0.701,1.678c0.47,0.466,1.012,0.699,1.637,0.699h18.694v6.945H724.552z"/>
	<path fill="#FFFFFF" d="M778.485,824.066c0.748-0.715,1.535-1.242,2.36-1.585c0.826-0.34,1.736-0.512,2.735-0.512
		c1.929,0,3.58,0.686,4.953,2.054c1.372,1.369,2.056,3.019,2.056,4.948v23.295h-7.009v-11.653h-11.686l-11.684,11.653h-9.954
		L778.485,824.066z M783.277,830.592c-0.203-0.155-0.444-0.233-0.725-0.233c-0.033,0-0.057-0.007-0.07-0.022
		c-0.016-0.015-0.023-0.039-0.023-0.069c0-0.031,0-0.056,0-0.071c0-0.015,0-0.037,0-0.069c-0.156,0.126-0.358,0.311-0.607,0.56
		l-2.945,2.938h4.675v-2.331C783.581,830.981,783.479,830.748,783.277,830.592z"/>
	<path fill="#FFFFFF" d="M874.153,821.97l-28.228,28.152c-0.779,0.777-1.574,1.328-2.384,1.654c-0.811,0.327-1.715,0.49-2.71,0.49
		c-1.901,0-3.545-0.683-4.932-2.051c-1.386-1.367-2.079-2.999-2.079-4.895V821.97h7.011v20.975c0,0.342,0.1,0.599,0.304,0.771
		c0.201,0.17,0.427,0.255,0.678,0.255c0.061,0,0.092,0.007,0.092,0.023c0,0.016,0,0.055,0,0.116c0,0.03,0,0.062,0,0.094
		c0,0.03,0.039,0.008,0.117-0.071c0.079-0.076,0.241-0.239,0.492-0.488l21.685-21.674H874.153z"/>
	<path fill="#FFFFFF" d="M881.165,852.267V821.97h7.011v30.297H881.165z"/>
	<path fill="#FFFFFF" d="M911.31,840.613c-1.247,0-2.461,0-3.646,0c-1.183,0-2.229,0-3.131,0c-2.554,0-4.751-0.915-6.59-2.749
		c-1.837-1.835-2.758-4.024-2.758-6.572c0-2.58,0.921-4.778,2.758-6.597c1.839-1.817,4.036-2.726,6.59-2.726l25.705-0.047v7.038
		h-25.705c-0.623,0.032-1.167,0.273-1.636,0.723c-0.466,0.45-0.701,1.002-0.701,1.655c0,0.621,0.241,1.164,0.725,1.631
		c0.484,0.466,1.021,0.698,1.612,0.698c3.396,0,6.105,0,8.133,0c1.839,0,3.551,0,5.141,0c1.588,0,2.554,0,2.898,0
		c2.585,0,4.79,0.916,6.611,2.745c1.823,1.828,2.736,4.029,2.736,6.602c0,2.542-0.913,4.719-2.736,6.531
		c-1.821,1.815-4.026,2.721-6.611,2.721h-25.566v-6.991h25.566c0.654,0.031,1.206-0.19,1.659-0.658
		c0.45-0.472,0.677-1.021,0.677-1.649c0-0.659-0.227-1.216-0.677-1.671c-0.453-0.455-1.005-0.684-1.659-0.684
		C916.809,840.613,913.676,840.613,911.31,840.613z"/>
	<path fill="#FFFFFF" d="M937.246,828.961v-6.991h30.334v6.991h-11.684v23.306h-7.012v-23.306H937.246z"/>
	<path fill="#FFFFFF" d="M1002.865,824.066c0.748-0.715,1.536-1.242,2.36-1.585c0.826-0.34,1.735-0.512,2.733-0.512
		c1.932,0,3.582,0.686,4.955,2.054c1.371,1.369,2.057,3.019,2.057,4.948v23.295h-7.012v-11.653h-11.684l-11.684,11.653h-9.954
		L1002.865,824.066z M1007.656,830.592c-0.204-0.155-0.443-0.233-0.725-0.233c-0.032,0-0.056-0.007-0.071-0.022
		c-0.016-0.015-0.023-0.039-0.023-0.069c0-0.031,0-0.056,0-0.071c0-0.015,0-0.037,0-0.069c-0.154,0.126-0.358,0.311-0.606,0.56
		l-2.943,2.938h4.672v-2.331C1007.959,830.981,1007.857,830.748,1007.656,830.592z"/>
	<path fill="#FFFFFF" d="M1058.201,821.97c0,0.031,1.206,0.046,3.621,0.046s5.072,0,7.969,0c2.493,0,4.837,0,7.034,0
		s3.605,0,4.229,0c2.587,0,4.792,0.91,6.615,2.727c1.823,1.818,2.731,4.018,2.731,6.597c0,1.056-0.162,2.059-0.489,3.005
		c-0.327,0.949-0.803,1.826-1.426,2.634c0.717,0.809,1.301,1.725,1.753,2.75s0.678,2.114,0.678,3.264
		c0,2.548-0.911,4.731-2.734,6.55c-1.823,1.816-4.026,2.726-6.613,2.726c-0.623,0-2.056,0-4.301,0c-2.242,0-4.656,0-7.241,0
		c-2.962,0-6.903,0-11.825,0V821.97z M1083.905,842.944c0-0.621-0.226-1.158-0.678-1.607c-0.452-0.45-1.003-0.677-1.659-0.677
		h-16.403l0.047,4.615h16.356c0.656,0.031,1.207-0.188,1.659-0.653s0.678-1.01,0.678-1.631V842.944z M1065.212,828.961v4.662h16.076
		c0.623,0.03,1.17-0.19,1.636-0.659c0.468-0.472,0.701-1.021,0.701-1.649c0-0.658-0.233-1.216-0.701-1.671
		c-0.466-0.455-1.013-0.683-1.636-0.683H1065.212z"/>
	<path fill="#FFFFFF" d="M1126.156,824.066c0.746-0.715,1.534-1.242,2.36-1.585c0.824-0.34,1.735-0.512,2.733-0.512
		c1.932,0,3.582,0.686,4.953,2.054c1.371,1.369,2.057,3.019,2.057,4.948v23.295h-7.01v-11.653h-11.684l-11.686,11.653h-9.954
		L1126.156,824.066z M1130.945,830.592c-0.202-0.155-0.443-0.233-0.723-0.233c-0.033,0-0.055-0.007-0.07-0.022
		c-0.019-0.015-0.024-0.039-0.024-0.069c0-0.031,0-0.056,0-0.071c0-0.015,0-0.037,0-0.069c-0.156,0.126-0.358,0.311-0.608,0.56
		l-2.943,2.938h4.674v-2.331C1131.25,830.981,1131.148,830.748,1130.945,830.592z"/>
	<path fill="#FFFFFF" d="M1145.271,821.97c0,0.031,1.206,0.046,3.621,0.046s5.072,0,7.971,0c2.491,0,4.837,0,7.032,0
		c2.197,0,3.607,0,4.23,0c2.587,0,4.79,0.91,6.613,2.727c1.823,1.818,2.733,4.018,2.733,6.597c0,1.056-0.162,2.059-0.489,3.005
		c-0.329,0.949-0.803,1.826-1.426,2.634c0.717,0.809,1.301,1.725,1.753,2.75c0.45,1.025,0.676,2.114,0.676,3.264
		c0,2.548-0.909,4.731-2.732,6.55c-1.823,1.816-4.028,2.726-6.615,2.726c-0.623,0-2.057,0-4.299,0c-2.244,0-4.659,0-7.244,0
		c-2.961,0-6.903,0-11.824,0V821.97z M1170.976,842.944c0-0.621-0.227-1.158-0.677-1.607c-0.453-0.45-1.005-0.677-1.661-0.677
		h-16.403l0.047,4.615h16.356c0.656,0.031,1.208-0.188,1.661-0.653c0.45-0.466,0.677-1.01,0.677-1.631V842.944z M1152.281,828.961
		v4.662h16.076c0.623,0.03,1.17-0.19,1.638-0.659c0.466-0.472,0.701-1.021,0.701-1.649c0-0.658-0.235-1.216-0.701-1.671
		c-0.468-0.455-1.015-0.683-1.638-0.683H1152.281z"/>
	<path fill="#FFFFFF" d="M1199.018,852.267v-11.653h-4.674c-2.557,0.032-4.752-0.87-6.591-2.704
		c-1.839-1.831-2.757-4.022-2.757-6.57v-9.369h7.011v9.322c0,0.622,0.218,1.149,0.654,1.584c0.437,0.436,0.918,0.7,1.449,0.792
		c0.031,0,0.07,0,0.117,0s0.086,0,0.116,0h16.357c0.654,0.032,1.209-0.188,1.661-0.653c0.45-0.469,0.676-1.015,0.676-1.639v-9.406
		h7.011v9.299c0,2.573-0.91,4.774-2.734,6.604c-1.822,1.829-4.025,2.741-6.613,2.741h-4.672v11.653H1199.018z"/>
</g>
</svg>
