<?xml version="1.0" encoding="utf-8"?>
<!-- Generator: Adobe Illustrator 13.0.0, SVG Export Plug-In . SVG Version: 6.00 Build 14948)  -->
<!DOCTYPE svg PUBLIC "-//W3C//DTD SVG 1.0//EN" "http://www.w3.org/TR/2001/REC-SVG-20010904/DTD/svg10.dtd">
<svg version="1.0" id="Layer_3" xmlns="http://www.w3.org/2000/svg" xmlns:xlink="http://www.w3.org/1999/xlink" x="0px" y="0px"
	 width="1296px" height="955px" viewBox="1.4 0.9 1296 955" enable-background="new 1.4 0.9 1296 955" xml:space="preserve">
<path opacity="0.7" stroke="#FFFFFF" stroke-width="4" d="M1258.016,784.848c0,8.746-10.055,15.836-22.467,15.836h-617.75
	c-12.412,0-22.466-7.09-22.466-15.836v-26.391c0-8.745,10.054-15.834,22.466-15.834h617.75c12.412,0,22.467,7.089,22.467,15.834
	V784.848z"/>
<g>
	<path fill="#FFFFFF" d="M648.719,780.447h4.361c0.609,0.028,1.126-0.176,1.548-0.611c0.421-0.436,0.632-0.944,0.632-1.525v-19.664
		h6.54v19.62c0,2.413-0.851,4.47-2.55,6.171c-1.7,1.699-3.758,2.549-6.17,2.549h-23.981v-28.34h6.54v21.801h6.541v-21.801h6.539
		V780.447z"/>
	<path fill="#FFFFFF" d="M674.88,776.086v10.9h-6.54v-28.34h6.54v10.9h15.261v-10.9h6.54v28.34h-6.54v-10.9H674.88z"/>
	<path fill="#FFFFFF" d="M729.557,760.607c0.696-0.669,1.431-1.162,2.202-1.482c0.769-0.318,1.619-0.479,2.55-0.479
		c1.802,0,3.343,0.641,4.622,1.921c1.279,1.281,1.918,2.824,1.918,4.629v21.79h-6.54v-10.9h-10.9l-10.9,10.9h-9.288L729.557,760.607
		z M734.025,766.711c-0.189-0.145-0.413-0.218-0.677-0.218c-0.028,0-0.05-0.006-0.064-0.021c-0.016-0.014-0.022-0.036-0.022-0.064
		c0-0.029,0-0.052,0-0.066c0-0.014,0-0.035,0-0.065c-0.146,0.118-0.333,0.291-0.566,0.523l-2.747,2.748h4.36v-2.181
		C734.309,767.076,734.213,766.857,734.025,766.711z"/>
	<path fill="#FFFFFF" d="M747.39,765.186v-6.539h28.297v6.539h-10.901v21.801h-6.539v-21.801H747.39z"/>
	<path fill="#FFFFFF" d="M782.271,758.646l2.181-2.181h-2.181v-6.541h6.54v6.541l-6.54,4.359V758.646z"/>
	<path fill="#FFFFFF" d="M810.394,776.086c-1.162,0-2.297,0-3.401,0s-2.079,0-2.921,0c-2.384,0-4.433-0.856-6.148-2.572
		c-1.715-1.716-2.572-3.765-2.572-6.147c0-2.413,0.857-4.47,2.572-6.17c1.716-1.701,3.765-2.55,6.148-2.55l23.98-0.044v6.583h-23.98
		c-0.582,0.03-1.089,0.256-1.526,0.677c-0.436,0.421-0.653,0.937-0.653,1.548c0,0.581,0.224,1.09,0.675,1.525
		s0.952,0.653,1.505,0.653c3.169,0,5.696,0,7.587,0c1.715,0,3.314,0,4.797,0c1.481,0,2.382,0,2.702,0
		c2.412,0,4.469,0.856,6.17,2.567c1.7,1.711,2.551,3.77,2.551,6.176c0,2.378-0.851,4.414-2.551,6.11
		c-1.701,1.698-3.758,2.544-6.17,2.544h-23.85v-6.539h23.85c0.611,0.028,1.127-0.178,1.548-0.616
		c0.421-0.441,0.633-0.956,0.633-1.543c0-0.616-0.212-1.138-0.633-1.563s-0.937-0.639-1.548-0.639
		C815.523,776.086,812.603,776.086,810.394,776.086z"/>
	<path fill="#FFFFFF" d="M868.383,765.186v-6.539h28.298v6.539h-10.9v21.801h-6.54v-21.801H868.383z"/>
	<path fill="#FFFFFF" d="M909.805,776.086v10.9h-6.541v-28.34h6.541v10.9h15.261v-10.9h6.541v28.34h-6.541v-10.9H909.805z"/>
	<path fill="#FFFFFF" d="M945.144,779.509c0.305,0.364,0.646,0.633,1.024,0.807c0.115,0.059,0.232,0.103,0.349,0.132
		c0.116,0.028,0.232,0.042,0.35,0.042h17.439v6.497h-17.439c-2.385,0-4.433-0.852-6.148-2.555s-2.572-3.748-2.572-6.136
		c0-2.3,0-4.133,0-5.501c0-1.252,0-2.417,0-3.494c0-1.076,0-1.718,0-1.921c0-2.417,0.856-4.476,2.572-6.179s3.764-2.555,6.148-2.555
		l17.178-0.044v6.583h-17.178c-0.583,0.03-1.09,0.256-1.527,0.677c-0.436,0.421-0.653,0.937-0.653,1.548v2.137h18.531v6.539h-18.531
		v2.181C944.686,778.731,944.838,779.146,945.144,779.509z"/>
	<path fill="#FFFFFF" d="M1017.718,786.986v-21.801h-4.361c-0.028,0.03-0.064,0.044-0.108,0.044c-0.043,0-0.08,0-0.109,0
		c-0.494,0.06-0.944,0.291-1.352,0.698c-0.406,0.406-0.609,0.901-0.609,1.482v19.576h-6.541v-19.65c0-2.388,0.857-4.432,2.572-6.135
		c1.716-1.703,3.765-2.555,6.147-2.555l15.262-0.044c2.412,0.028,4.47,0.896,6.17,2.599c1.699,1.703,2.55,3.762,2.55,6.179v19.606
		h-6.54v-19.66c0-0.582-0.211-1.085-0.632-1.507c-0.422-0.423-0.938-0.634-1.548-0.634h-4.361v21.801H1017.718z"/>
	<path fill="#FFFFFF" d="M1070.214,760.607c0.697-0.669,1.431-1.162,2.201-1.482c0.771-0.318,1.62-0.479,2.551-0.479
		c1.803,0,3.343,0.641,4.623,1.921c1.278,1.281,1.917,2.824,1.917,4.629v21.79h-6.54v-10.9h-10.9l-10.9,10.9h-9.287
		L1070.214,760.607z M1074.683,766.711c-0.188-0.145-0.414-0.218-0.676-0.218c-0.029,0-0.052-0.006-0.065-0.021
		c-0.015-0.014-0.022-0.036-0.022-0.064c0-0.029,0-0.052,0-0.066c0-0.014,0-0.035,0-0.065c-0.146,0.118-0.334,0.291-0.565,0.523
		l-2.748,2.748h4.36v-2.181C1074.966,767.076,1074.871,766.857,1074.683,766.711z"/>
	<path fill="#FFFFFF" d="M1088.047,765.186v-6.539h28.297v6.539h-10.9v21.801h-6.54v-21.801H1088.047z"/>
	<path fill="#FFFFFF" d="M1122.927,765.186v-6.539h28.299v6.539h-10.9v21.801h-6.541v-21.801H1122.927z"/>
	<path fill="#FFFFFF" d="M1164.808,779.509c0.305,0.364,0.646,0.633,1.023,0.807c0.117,0.059,0.233,0.103,0.35,0.132
		c0.115,0.028,0.232,0.042,0.349,0.042h17.441v6.497h-17.441c-2.384,0-4.433-0.852-6.147-2.555s-2.573-3.748-2.573-6.136
		c0-2.3,0-4.133,0-5.501c0-1.252,0-2.417,0-3.494c0-1.076,0-1.718,0-1.921c0-2.417,0.858-4.476,2.573-6.179s3.764-2.555,6.147-2.555
		l17.18-0.044v6.583h-17.18c-0.581,0.03-1.09,0.256-1.525,0.677c-0.437,0.421-0.654,0.937-0.654,1.548v2.137h18.53v6.539h-18.53
		v2.181C1164.35,778.731,1164.503,779.146,1164.808,779.509z"/>
	<path fill="#FFFFFF" d="M1193.89,758.688c2.251,0,4.73,0,7.434,0c2.325,0,4.514,0,6.562,0s3.363,0,3.945,0
		c2.412,0,4.469,0.852,6.17,2.552c1.7,1.7,2.551,3.758,2.551,6.17c0,0.988-0.146,1.926-0.436,2.812
		c-0.291,0.888-0.669,1.708-1.134,2.463c0.667,0.757,1.177,1.613,1.525,2.572c0.35,0.96,0.523,1.978,0.523,3.054v8.676h-6.54v-8.72
		c0-0.523-0.183-0.988-0.546-1.396c-0.363-0.405-0.791-0.653-1.286-0.74c-0.059,0-0.893,0-2.507,0c-1.613,0-3.379,0-5.298,0
		c-1.947,0-4.55,0-7.805,0v10.9h-6.539v-28.384C1190.511,758.675,1191.636,758.688,1193.89,758.688z M1197.05,765.186v4.361h15
		c0.58,0.028,1.089-0.178,1.525-0.616c0.437-0.441,0.654-0.956,0.654-1.543c0-0.616-0.218-1.138-0.654-1.563
		s-0.945-0.639-1.525-0.639H1197.05z"/>
</g>
</svg>
