<?xml version="1.0" encoding="utf-8"?>
<!-- Generator: Adobe Illustrator 13.0.0, SVG Export Plug-In . SVG Version: 6.00 Build 14948)  -->
<!DOCTYPE svg PUBLIC "-//W3C//DTD SVG 1.0//EN" "http://www.w3.org/TR/2001/REC-SVG-20010904/DTD/svg10.dtd">
<svg version="1.0" id="Layer_3" xmlns="http://www.w3.org/2000/svg" xmlns:xlink="http://www.w3.org/1999/xlink" x="0px" y="0px"
	 width="1296px" height="955px" viewBox="1.4 0.9 1296 955" enable-background="new 1.4 0.9 1296 955" xml:space="preserve">
<path opacity="0.7" stroke="#FFFFFF" stroke-width="4" d="M1259.001,653.842c0,8.746-6.34,15.836-14.166,15.836H855.319
	c-7.826,0-14.166-7.09-14.166-15.836v-26.391c0-8.745,6.34-15.834,14.166-15.834h389.516c7.826,0,14.166,7.089,14.166,15.834
	V653.842z"/>
<g>
	<path fill="#FFFFFF" d="M909.978,648.496v7.396H880.39v-32.055h29.292v7.397h-21.896v4.933h20.959v7.396h-20.959v4.932H909.978z"/>
	<path fill="#FFFFFF" d="M927.113,643.612c-0.049,0-0.09,0-0.122,0c-0.56,0.067-1.069,0.33-1.529,0.791
		c-0.461,0.46-0.689,1.018-0.689,1.677v9.812h-7.398v-9.864c0-1.149,0.189-2.251,0.568-3.304c0.377-1.052,0.912-1.988,1.603-2.809
		c-0.69-0.857-1.226-1.809-1.603-2.861c-0.379-1.052-0.568-2.153-0.568-3.303v-9.914h7.398v9.862c0,0.658,0.229,1.216,0.689,1.677
		c0.46,0.46,0.97,0.741,1.529,0.839c0.032,0,0.073,0,0.122,0c0.05,0,0.092,0,0.123,0h17.262c0.689,0.034,1.273-0.198,1.751-0.692
		c0.476-0.494,0.714-1.073,0.714-1.735v-9.95h7.397v9.862c0,1.184-0.188,2.303-0.567,3.354c-0.378,1.053-0.929,2.004-1.651,2.861
		c0.723,0.82,1.273,1.757,1.651,2.809c0.379,1.053,0.567,2.169,0.567,3.355v9.812h-7.397v-9.903c0-0.66-0.238-1.23-0.714-1.709
		c-0.478-0.476-1.062-0.716-1.751-0.716h-17.262C927.205,643.597,927.163,643.612,927.113,643.612z"/>
	<path fill="#FFFFFF" d="M971.62,655.893c-2.697,0-5.015-0.964-6.953-2.889c-1.941-1.928-2.91-4.24-2.91-6.941
		c0-2.6,0-4.674,0-6.223c0-1.416,0-2.733,0-3.95c0-1.22,0-1.942,0-2.175c0-2.73,0.969-5.061,2.91-6.987
		c1.938-1.926,4.256-2.89,6.953-2.89l19.726-0.048v7.445H971.62c-0.1,0.033-0.198,0.058-0.296,0.073
		c-0.099,0.018-0.198,0.042-0.296,0.076c-0.461,0.131-0.888,0.418-1.283,0.86c-0.395,0.445-0.592,0.945-0.592,1.507v12.276
		c0,0.692,0.247,1.284,0.74,1.775c0.492,0.494,1.067,0.74,1.727,0.74h19.726v7.349H971.62z"/>
	<path fill="#FFFFFF" d="M1006.657,647.435c0.344,0.412,0.73,0.717,1.157,0.912c0.131,0.066,0.265,0.115,0.395,0.149
		c0.132,0.033,0.263,0.048,0.396,0.048h19.726v7.349h-19.726c-2.696,0-5.015-0.964-6.953-2.889c-1.941-1.928-2.909-4.24-2.909-6.941
		c0-2.6,0-4.674,0-6.223c0-1.416,0-2.733,0-3.95c0-1.22,0-1.942,0-2.175c0-2.73,0.968-5.061,2.909-6.987
		c1.938-1.926,4.257-2.89,6.953-2.89l19.43-0.048v7.445h-19.43c-0.659,0.033-1.233,0.289-1.727,0.765
		c-0.492,0.477-0.739,1.059-0.739,1.752v2.416h20.959v7.396h-20.959v2.464C1006.139,646.556,1006.311,647.022,1006.657,647.435z"/>
	<path fill="#FFFFFF" d="M1045.589,655.893c-2.696,0-5.014-0.96-6.953-2.886c-1.939-1.922-2.909-4.233-2.909-6.927v-22.242h7.398
		v22.19c0,0.692,0.245,1.284,0.738,1.775c0.493,0.494,1.068,0.74,1.726,0.74h19.726v7.349H1045.589z"/>
	<path fill="#FFFFFF" d="M1082.575,655.893c-2.696,0-5.015-0.96-6.952-2.886c-1.941-1.922-2.911-4.233-2.911-6.927v-22.242h7.397
		v22.19c0,0.692,0.247,1.284,0.739,1.775c0.492,0.494,1.068,0.74,1.727,0.74h19.726v7.349H1082.575z"/>
	<path fill="#FFFFFF" d="M1117.612,647.435c0.345,0.412,0.73,0.717,1.158,0.912c0.13,0.066,0.263,0.115,0.395,0.149
		c0.131,0.033,0.262,0.048,0.396,0.048h19.725v7.349h-19.725c-2.696,0-5.016-0.964-6.953-2.889c-1.941-1.928-2.911-4.24-2.911-6.941
		c0-2.6,0-4.674,0-6.223c0-1.416,0-2.733,0-3.95c0-1.22,0-1.942,0-2.175c0-2.73,0.97-5.061,2.911-6.987
		c1.938-1.926,4.257-2.89,6.953-2.89l19.429-0.048v7.445h-19.429c-0.66,0.033-1.234,0.289-1.728,0.765
		c-0.492,0.477-0.739,1.059-0.739,1.752v2.416h20.959v7.396h-20.959v2.464C1117.094,646.556,1117.267,647.022,1117.612,647.435z"/>
	<path fill="#FFFFFF" d="M1146.682,633.666c0-2.699,0.97-5.012,2.91-6.938c1.939-1.926,4.257-2.89,6.953-2.89l14.795-0.048
		c2.728,0.033,5.054,1.012,6.977,2.938c1.923,1.927,2.886,4.257,2.886,6.987v22.178h-7.396V633.7c0-0.622-0.23-1.166-0.691-1.627
		c-0.46-0.46-0.97-0.723-1.527-0.789c-0.034,0-0.075,0-0.124,0c-0.05,0-0.092,0-0.123,0h-14.795
		c-0.658,0.033-1.232,0.286-1.726,0.763c-0.494,0.476-0.739,1.058-0.739,1.747v22.099h-7.398V633.666z"/>
	<path fill="#FFFFFF" d="M1188.649,631.235v-7.397h32.003v7.397h-12.327v24.657h-7.397v-24.657H1188.649z"/>
</g>
</svg>
