<?xml version="1.0" encoding="utf-8"?>
<!-- Generator: Adobe Illustrator 13.0.0, SVG Export Plug-In . SVG Version: 6.00 Build 14948)  -->
<!DOCTYPE svg PUBLIC "-//W3C//DTD SVG 1.0//EN" "http://www.w3.org/TR/2001/REC-SVG-20010904/DTD/svg10.dtd">
<svg version="1.0" id="Layer_3" xmlns="http://www.w3.org/2000/svg" xmlns:xlink="http://www.w3.org/1999/xlink" x="0px" y="0px"
	 width="1296px" height="955px" viewBox="1.4 0.9 1296 955" enable-background="new 1.4 0.9 1296 955" xml:space="preserve">
<path opacity="0.7" stroke="#FFFFFF" stroke-width="4" d="M1258.008,259.265c0,8.746-5.678,15.835-12.686,15.835H896.499
	c-7.007,0-12.686-7.089-12.686-15.835v-26.391c0-8.745,5.679-15.834,12.686-15.834h348.823c7.008,0,12.686,7.089,12.686,15.834
	V259.265z"/>
<g>
	<path fill="#FFFFFF" d="M930.941,260.949c-2.988,0-5.559-0.898-7.708-2.696c-2.149-1.796-3.225-3.953-3.225-6.472
		c0-2.428,0-4.363,0-5.807c0-1.321,0-2.548,0-3.685c0-1.138,0-1.813,0-2.028c0-2.549,1.075-4.722,3.225-6.52s4.72-2.695,7.708-2.695
		L952.804,231v6.947h-21.862c-0.109,0.031-0.219,0.054-0.329,0.069c-0.107,0.016-0.217,0.038-0.329,0.069
		c-0.51,0.122-0.981,0.391-1.42,0.805c-0.437,0.414-0.654,0.881-0.654,1.403v11.456c0,0.644,0.272,1.195,0.819,1.656
		c0.545,0.458,1.184,0.69,1.913,0.69h21.862v6.854H930.941z"/>
	<path fill="#FFFFFF" d="M964.229,258.252c-2.149-1.796-3.225-3.953-3.225-6.472c0-2.428,0-4.363,0-5.807c0-1.321,0-2.548,0-3.685
		c0-1.138,0-1.813,0-2.028c0-2.549,1.075-4.722,3.225-6.52c2.15-1.797,4.718-2.695,7.709-2.695L991.066,231
		c3.024,0.031,5.604,0.944,7.734,2.742c2.132,1.797,3.199,3.971,3.199,6.52c0,0.215,0,0.891,0,2.028c0,1.136,0,2.364,0,3.685
		c0,1.444,0,3.379,0,5.807c0,2.519-1.067,4.675-3.199,6.472c-2.131,1.798-4.71,2.696-7.734,2.696h-19.129
		C968.946,260.949,966.379,260.051,964.229,258.252z M993.006,253.381c0.529-0.446,0.795-0.974,0.795-1.586v-11.548
		c0-0.521-0.238-0.988-0.712-1.403c-0.472-0.414-0.983-0.681-1.529-0.805c-0.077,0-0.156-0.007-0.245-0.023
		c-0.095-0.016-0.175-0.023-0.248-0.023h-19.129c-0.146,0.032-0.329,0.084-0.55,0.161c-0.217,0.076-0.437,0.175-0.652,0.296
		c-0.401,0.183-0.761,0.443-1.069,0.779c-0.308,0.334-0.462,0.702-0.462,1.097v11.391c0,0.608,0.255,1.128,0.764,1.554
		c0.51,0.428,1.075,0.686,1.694,0.778c0.035,0,0.083,0,0.138,0c0.053,0,0.101,0,0.138,0h19.129
		C991.834,254.048,992.479,253.825,993.006,253.381z"/>
	<path fill="#FFFFFF" d="M1014.433,231.093c2.822,0,5.931,0,9.319,0c2.914,0,5.657,0,8.229,0c2.566,0,4.217,0,4.945,0
		c3.023,0,5.603,0.897,7.733,2.691c2.132,1.794,3.199,3.963,3.199,6.509c0,1.042-0.183,2.033-0.549,2.967
		c-0.365,0.936-0.837,1.802-1.421,2.6c0.84,0.796,1.478,1.702,1.913,2.714c0.438,1.011,0.656,2.085,0.656,3.221v9.154h-8.199v-9.2
		c0-0.553-0.228-1.042-0.683-1.472c-0.454-0.429-0.993-0.691-1.613-0.783c-0.072,0-1.121,0-3.141,0c-2.023,0-4.237,0-6.644,0
		c-2.439,0-5.701,0-9.782,0v11.501h-8.2v-29.949C1010.196,231.077,1011.61,231.093,1014.433,231.093z M1018.396,237.947v4.6h18.802
		c0.729,0.033,1.367-0.186,1.914-0.65c0.545-0.464,0.818-1.007,0.818-1.626c0-0.649-0.273-1.198-0.818-1.647
		c-0.547-0.45-1.186-0.676-1.914-0.676H1018.396z"/>
	<path fill="#FFFFFF" d="M1060.895,231.093c2.823,0,5.93,0,9.318,0c2.916,0,5.657,0,8.228,0c2.567,0,4.217,0,4.945,0
		c3.026,0,5.604,0.897,7.734,2.691c2.133,1.794,3.198,3.963,3.198,6.509c0,1.042-0.183,2.033-0.546,2.967
		c-0.365,0.936-0.839,1.802-1.42,2.6c0.836,0.796,1.472,1.702,1.912,2.714c0.438,1.011,0.655,2.085,0.655,3.221v9.154h-8.199v-9.2
		c0-0.553-0.229-1.042-0.682-1.472c-0.458-0.429-0.996-0.691-1.613-0.783c-0.074,0-1.122,0-3.144,0c-2.023,0-4.237,0-6.642,0
		c-2.442,0-5.703,0-9.782,0v11.501h-8.201v-29.949C1056.657,231.077,1058.071,231.093,1060.895,231.093z M1064.858,237.947v4.6
		h18.802c0.728,0.033,1.365-0.186,1.913-0.65c0.546-0.464,0.817-1.007,0.817-1.626c0-0.649-0.271-1.198-0.817-1.647
		c-0.548-0.45-1.186-0.676-1.913-0.676H1064.858z"/>
	<path fill="#FFFFFF" d="M1111.892,253.058c0.382,0.386,0.811,0.668,1.283,0.852c0.146,0.063,0.293,0.109,0.438,0.139
		c0.145,0.031,0.291,0.046,0.438,0.046h21.864v6.854h-21.864c-2.989,0-5.557-0.898-7.706-2.696
		c-2.152-1.796-3.226-3.953-3.226-6.472c0-2.428,0-4.363,0-5.807c0-1.321,0-2.548,0-3.685c0-1.138,0-1.813,0-2.028
		c0-2.549,1.073-4.722,3.226-6.52c2.149-1.797,4.717-2.695,7.706-2.695l21.535-0.046v6.947h-21.535
		c-0.729,0.031-1.367,0.27-1.914,0.713c-0.545,0.446-0.818,0.989-0.818,1.633v2.253h23.229v6.901h-23.229v2.301
		C1111.318,252.239,1111.51,252.676,1111.892,253.058z"/>
	<path fill="#FFFFFF" d="M1155.045,260.949c-2.989,0-5.558-0.898-7.707-2.696c-2.149-1.796-3.227-3.953-3.227-6.472
		c0-2.428,0-4.363,0-5.807c0-1.321,0-2.548,0-3.685c0-1.138,0-1.813,0-2.028c0-2.549,1.077-4.722,3.227-6.52
		s4.718-2.695,7.707-2.695l21.862-0.046v6.947h-21.862c-0.109,0.031-0.219,0.054-0.329,0.069c-0.109,0.016-0.218,0.038-0.327,0.069
		c-0.512,0.122-0.982,0.391-1.422,0.805c-0.437,0.414-0.654,0.881-0.654,1.403v11.456c0,0.644,0.272,1.195,0.818,1.656
		c0.548,0.458,1.185,0.69,1.914,0.69h21.862v6.854H1155.045z"/>
	<path fill="#FFFFFF" d="M1185.108,237.947v-6.9h35.473v6.9h-13.664v23.002h-8.199v-23.002H1185.108z"/>
</g>
</svg>
