<?xml version="1.0" encoding="utf-8"?>
<!-- Generator: Adobe Illustrator 13.0.0, SVG Export Plug-In . SVG Version: 6.00 Build 14948)  -->
<!DOCTYPE svg PUBLIC "-//W3C//DTD SVG 1.0//EN" "http://www.w3.org/TR/2001/REC-SVG-20010904/DTD/svg10.dtd">
<svg version="1.0" id="Layer_3" xmlns="http://www.w3.org/2000/svg" xmlns:xlink="http://www.w3.org/1999/xlink" x="0px" y="0px"
	 width="1296px" height="955px" viewBox="1.4 0.9 1296 955" enable-background="new 1.4 0.9 1296 955" xml:space="preserve">
<path opacity="0.7" stroke="#FFFFFF" stroke-width="4" d="M1259.001,588.307c0,8.745-7.44,15.834-16.625,15.834H785.234
	c-9.185,0-16.625-7.089-16.625-15.834v-26.392c0-8.745,7.44-15.835,16.625-15.835h457.142c9.185,0,16.625,7.09,16.625,15.835
	V588.307z"/>
<g>
	<path fill="#FFFFFF" d="M804.481,567.895c0-2.5,0.898-4.643,2.695-6.427c1.795-1.784,3.941-2.676,6.439-2.676l13.699-0.044
		c2.526,0.029,4.681,0.936,6.462,2.72c1.779,1.784,2.671,3.942,2.671,6.472v20.536h-6.851v-20.549c0-0.58-0.213-1.082-0.639-1.507
		c-0.427-0.426-0.899-0.67-1.415-0.73c-0.03,0-0.068,0-0.114,0c-0.045,0-0.086,0-0.114,0h-13.699
		c-0.61,0.028-1.144,0.265-1.599,0.705c-0.458,0.441-0.686,0.98-0.686,1.617v20.464h-6.851V567.895z"/>
	<path fill="#FFFFFF" d="M846.038,585.8c-1.797-1.784-2.694-3.926-2.694-6.425c0-2.409,0-4.329,0-5.764c0-1.311,0-2.531,0-3.659
		s0-1.8,0-2.013c0-2.529,0.897-4.688,2.694-6.472s3.942-2.676,6.439-2.676l15.981-0.044c2.528,0.029,4.683,0.936,6.462,2.72
		c1.782,1.784,2.673,3.942,2.673,6.472c0,0.213,0,0.885,0,2.013s0,2.349,0,3.659c0,1.435,0,3.354,0,5.764
		c0,2.499-0.891,4.641-2.673,6.425c-1.779,1.784-3.934,2.676-6.462,2.676h-15.981C849.98,588.476,847.835,587.584,846.038,585.8z
		 M870.081,580.964c0.441-0.441,0.662-0.967,0.662-1.576v-11.461c0-0.519-0.198-0.982-0.594-1.395
		c-0.396-0.409-0.821-0.677-1.278-0.799c-0.062,0-0.13-0.008-0.204-0.022c-0.078-0.014-0.146-0.021-0.208-0.021h-15.981
		c-0.122,0.028-0.274,0.081-0.457,0.158c-0.184,0.075-0.365,0.174-0.548,0.295c-0.335,0.182-0.633,0.439-0.892,0.771
		c-0.258,0.332-0.388,0.696-0.388,1.089v11.306c0,0.607,0.213,1.121,0.64,1.545s0.898,0.681,1.416,0.772c0.028,0,0.068,0,0.114,0
		s0.084,0,0.114,0h15.981C869.1,581.626,869.64,581.405,870.081,580.964z"/>
	<path fill="#FFFFFF" d="M926.683,588.476h-6.849v-29.684h22.833c2.525,0.032,4.681,0.942,6.462,2.735
		c1.781,1.789,2.672,3.946,2.672,6.467c0,2.49-0.891,4.625-2.672,6.4c-1.781,1.777-3.937,2.663-6.462,2.663c-0.822,0-1.88,0-3.175,0
		c-1.294,0-2.641,0-4.04,0c-2.192,0-5.114,0-8.77,0V588.476z M926.683,570.209h15.984c0.608,0.032,1.142-0.185,1.599-0.646
		c0.455-0.462,0.684-1.001,0.684-1.615c0-0.644-0.222-1.19-0.662-1.637c-0.442-0.445-0.982-0.67-1.62-0.67h-15.984V570.209z"/>
	<path fill="#FFFFFF" d="M962.188,558.838c2.358,0,4.955,0,7.785,0c2.437,0,4.728,0,6.874,0s3.523,0,4.133,0
		c2.527,0,4.681,0.891,6.461,2.672c1.782,1.781,2.673,3.936,2.673,6.462c0,1.035-0.152,2.018-0.457,2.946
		c-0.306,0.928-0.702,1.787-1.188,2.579c0.7,0.792,1.231,1.69,1.599,2.694c0.366,1.006,0.547,2.069,0.547,3.196v9.088h-6.85v-9.132
		c0-0.55-0.189-1.035-0.57-1.463c-0.381-0.426-0.83-0.684-1.347-0.775c-0.062,0-0.937,0-2.627,0s-3.54,0-5.549,0
		c-2.04,0-4.764,0-8.173,0v11.416h-6.852v-29.729C958.648,558.824,959.829,558.838,962.188,558.838z M965.5,565.642v4.567h15.709
		c0.609,0.032,1.142-0.185,1.599-0.646c0.456-0.462,0.685-1.001,0.685-1.615c0-0.644-0.229-1.19-0.685-1.637
		c-0.457-0.445-0.989-0.67-1.599-0.67H965.5z"/>
	<path fill="#FFFFFF" d="M1000.161,585.8c-1.796-1.784-2.694-3.926-2.694-6.425c0-2.409,0-4.329,0-5.764c0-1.311,0-2.531,0-3.659
		s0-1.8,0-2.013c0-2.529,0.898-4.688,2.694-6.472s3.942-2.676,6.438-2.676l15.984-0.044c2.525,0.029,4.681,0.936,6.462,2.72
		s2.671,3.942,2.671,6.472c0,0.213,0,0.885,0,2.013s0,2.349,0,3.659c0,1.435,0,3.354,0,5.764c0,2.499-0.89,4.641-2.671,6.425
		s-3.937,2.676-6.462,2.676h-15.984C1004.104,588.476,1001.957,587.584,1000.161,585.8z M1024.203,580.964
		c0.44-0.441,0.662-0.967,0.662-1.576v-11.461c0-0.519-0.198-0.982-0.592-1.395c-0.396-0.409-0.822-0.677-1.279-0.799
		c-0.061,0-0.131-0.008-0.207-0.022c-0.074-0.014-0.143-0.021-0.204-0.021h-15.984c-0.122,0.028-0.273,0.081-0.454,0.158
		c-0.185,0.075-0.367,0.174-0.551,0.295c-0.335,0.182-0.631,0.439-0.889,0.771c-0.26,0.332-0.388,0.696-0.388,1.089v11.306
		c0,0.607,0.211,1.121,0.638,1.545c0.426,0.424,0.897,0.681,1.416,0.772c0.03,0,0.068,0,0.114,0s0.083,0,0.113,0h15.984
		C1023.221,581.626,1023.761,581.405,1024.203,580.964z"/>
	<path fill="#FFFFFF" d="M1038.564,558.792c0,0.032,1.18,0.046,3.539,0.046s4.956,0,7.786,0c2.437,0,4.728,0,6.872,0
		c2.148,0,3.523,0,4.135,0c2.525,0,4.68,0.891,6.461,2.672c1.782,1.781,2.671,3.936,2.671,6.462c0,1.035-0.159,2.018-0.479,2.946
		c-0.317,0.928-0.782,1.787-1.392,2.579c0.7,0.792,1.271,1.69,1.712,2.694c0.441,1.006,0.662,2.069,0.662,3.196
		c0,2.497-0.891,4.636-2.671,6.417c-1.782,1.78-3.936,2.671-6.462,2.671c-0.609,0-2.01,0-4.202,0s-4.551,0-7.079,0
		c-2.891,0-6.743,0-11.553,0V558.792z M1063.682,579.344c0-0.609-0.222-1.135-0.661-1.576c-0.443-0.441-0.982-0.662-1.622-0.662
		h-16.029l0.046,4.521h15.983c0.64,0.031,1.179-0.183,1.622-0.638c0.439-0.458,0.661-0.991,0.661-1.601V579.344z M1045.415,565.642
		v4.567h15.708c0.609,0.032,1.144-0.185,1.599-0.646c0.457-0.462,0.686-1.001,0.686-1.615c0-0.644-0.229-1.19-0.686-1.637
		c-0.455-0.445-0.989-0.67-1.599-0.67H1045.415z"/>
	<path fill="#FFFFFF" d="M1086.515,588.476c-2.497,0-4.642-0.891-6.438-2.671c-1.798-1.781-2.695-3.92-2.695-6.417v-20.596h6.85
		v20.552c0,0.638,0.229,1.187,0.685,1.645c0.457,0.455,0.989,0.682,1.599,0.682h18.266v6.806H1086.515z"/>
	<path fill="#FFFFFF" d="M1118.96,580.644c0.32,0.382,0.678,0.662,1.074,0.846c0.121,0.061,0.241,0.106,0.365,0.137
		c0.12,0.031,0.243,0.044,0.365,0.044h18.266v6.806h-18.266c-2.497,0-4.645-0.892-6.438-2.676c-1.797-1.784-2.695-3.926-2.695-6.425
		c0-2.409,0-4.329,0-5.764c0-1.311,0-2.531,0-3.659s0-1.8,0-2.013c0-2.529,0.898-4.688,2.695-6.472
		c1.794-1.784,3.941-2.676,6.438-2.676l17.991-0.044v6.894h-17.991c-0.609,0.032-1.144,0.269-1.599,0.708
		c-0.457,0.442-0.685,0.982-0.685,1.622v2.237h19.408v6.849h-19.408v2.286C1118.481,579.829,1118.641,580.264,1118.96,580.644z"/>
	<path fill="#FFFFFF" d="M1159.58,588.476v-22.834h-4.566c-0.029,0.032-0.069,0.048-0.113,0.048c-0.047,0-0.086,0-0.115,0
		c-0.518,0.061-0.988,0.305-1.417,0.73c-0.425,0.425-0.638,0.942-0.638,1.552v20.504h-6.85v-20.581c0-2.5,0.896-4.643,2.693-6.427
		c1.796-1.784,3.943-2.676,6.439-2.676l15.982-0.044c2.528,0.029,4.682,0.936,6.462,2.72c1.782,1.784,2.673,3.942,2.673,6.472
		v20.536h-6.852v-20.591c0-0.609-0.221-1.136-0.661-1.578c-0.441-0.441-0.981-0.665-1.622-0.665h-4.565v22.834H1159.58z"/>
	<path fill="#FFFFFF" d="M1189.674,585.8c-1.797-1.784-2.695-3.926-2.695-6.425c0-2.409,0-4.329,0-5.764c0-1.311,0-2.531,0-3.659
		s0-1.8,0-2.013c0-2.529,0.898-4.688,2.695-6.472c1.795-1.784,3.941-2.676,6.439-2.676l15.981-0.044
		c2.528,0.029,4.682,0.936,6.462,2.72c1.781,1.784,2.672,3.942,2.672,6.472c0,0.213,0,0.885,0,2.013s0,2.349,0,3.659
		c0,1.435,0,3.354,0,5.764c0,2.499-0.891,4.641-2.672,6.425c-1.78,1.784-3.934,2.676-6.462,2.676h-15.981
		C1193.615,588.476,1191.469,587.584,1189.674,585.8z M1213.717,580.964c0.441-0.441,0.662-0.967,0.662-1.576v-11.461
		c0-0.519-0.198-0.982-0.594-1.395c-0.396-0.409-0.822-0.677-1.279-0.799c-0.062,0-0.13-0.008-0.205-0.022
		c-0.077-0.014-0.146-0.021-0.206-0.021h-15.981c-0.122,0.028-0.274,0.081-0.458,0.158c-0.183,0.075-0.365,0.174-0.547,0.295
		c-0.336,0.182-0.634,0.439-0.892,0.771c-0.259,0.332-0.388,0.696-0.388,1.089v11.306c0,0.607,0.213,1.121,0.639,1.545
		c0.427,0.424,0.898,0.681,1.416,0.772c0.03,0,0.068,0,0.114,0s0.084,0,0.115,0h15.981
		C1212.736,581.626,1213.275,581.405,1213.717,580.964z"/>
</g>
</svg>
