<?xml version="1.0" encoding="utf-8"?>
<!-- Generator: Adobe Illustrator 13.0.0, SVG Export Plug-In . SVG Version: 6.00 Build 14948)  -->
<!DOCTYPE svg PUBLIC "-//W3C//DTD SVG 1.0//EN" "http://www.w3.org/TR/2001/REC-SVG-20010904/DTD/svg10.dtd">
<svg version="1.0" id="Layer_3" xmlns="http://www.w3.org/2000/svg" xmlns:xlink="http://www.w3.org/1999/xlink" x="0px" y="0px"
	 width="1296px" height="955px" viewBox="1.4 0.9 1296 955" enable-background="new 1.4 0.9 1296 955" xml:space="preserve">
<path opacity="0.7" stroke="#FFFFFF" stroke-width="4" d="M1257.993,522.83c0,8.746-4.842,15.835-10.818,15.835h-297.47
	c-5.977,0-10.818-7.089-10.818-15.835v-26.391c0-8.746,4.842-15.835,10.818-15.835h297.47c5.977,0,10.818,7.089,10.818,15.835
	V522.83z"/>
<g>
	<path fill="#FFFFFF" d="M1005.688,500.949h-25.943c-0.127,0.033-0.287,0.088-0.478,0.168c-0.192,0.08-0.383,0.184-0.573,0.311
		c-0.35,0.191-0.662,0.463-0.932,0.812c-0.271,0.352-0.405,0.733-0.405,1.147v11.896c0,0.639,0.222,1.18,0.668,1.625
		c0.446,0.447,0.938,0.717,1.48,0.812c0.032,0,0.072,0,0.121,0c0.046,0,0.088,0,0.118,0h16.723c0.669,0.031,1.234-0.193,1.695-0.676
		c0.463-0.482,0.694-1.047,0.694-1.689c0-0.676-0.231-1.246-0.694-1.712c-0.461-0.468-1.026-0.7-1.695-0.7h-11.944v-7.216
		c3.79,0,6.816,0,9.077,0c0.479,0,0.958,0,1.434,0c0.478,0,0.956,0,1.434,0c2.645,0,4.897,0.935,6.761,2.803
		c1.864,1.868,2.795,4.127,2.795,6.778c0,2.617-0.931,4.861-2.795,6.729c-1.863,1.866-4.116,2.802-6.761,2.802h-16.723
		c-2.612,0-4.857-0.932-6.736-2.795c-1.88-1.863-2.819-4.102-2.819-6.713c0-2.516,0-4.523,0-6.021c0-1.369,0-2.643,0-3.82
		c0-1.179,0-1.88,0-2.103c0-2.644,0.939-4.898,2.819-6.762c1.879-1.863,4.124-2.795,6.736-2.795l25.943-0.048V500.949z"/>
	<path fill="#FFFFFF" d="M1013.189,524.84v-31.057h7.167v31.057H1013.189z"/>
	<path fill="#FFFFFF" d="M1068.757,493.783l-28.858,28.859c-0.799,0.797-1.609,1.361-2.437,1.695
		c-0.831,0.334-1.754,0.502-2.772,0.502c-1.943,0-3.625-0.701-5.041-2.103c-1.417-1.4-2.126-3.073-2.126-5.017v-23.938h7.167v21.5
		c0,0.352,0.104,0.614,0.312,0.788c0.206,0.176,0.437,0.265,0.691,0.265c0.064,0,0.096,0.007,0.096,0.023c0,0.016,0,0.055,0,0.118
		c0,0.032,0,0.065,0,0.097s0.04,0.008,0.121-0.072c0.078-0.08,0.246-0.246,0.501-0.501l22.169-22.218H1068.757z"/>
	<path fill="#FFFFFF" d="M1083.592,516.646c0.335,0.398,0.708,0.691,1.122,0.883c0.127,0.064,0.255,0.112,0.383,0.144
		c0.126,0.032,0.255,0.048,0.383,0.048h19.11v7.119h-19.11c-2.612,0-4.858-0.934-6.738-2.799c-1.88-1.867-2.818-4.108-2.818-6.725
		c0-2.52,0-4.529,0-6.029c0-1.371,0-2.647,0-3.828c0-1.18,0-1.883,0-2.105c0-2.646,0.938-4.904,2.818-6.771
		c1.88-1.866,4.126-2.799,6.738-2.799l18.824-0.048v7.214h-18.824c-0.639,0.033-1.194,0.279-1.673,0.742
		c-0.478,0.461-0.717,1.027-0.717,1.696v2.34h20.307v7.167h-20.307v2.389C1083.09,515.793,1083.259,516.247,1083.592,516.646z"/>
	<path fill="#FFFFFF" d="M1163.12,524.84v-23.891h-4.78c-0.03,0.033-0.071,0.049-0.117,0.049c-0.05,0-0.088,0-0.121,0
		c-0.541,0.063-1.033,0.318-1.481,0.764c-0.445,0.446-0.668,0.988-0.668,1.626v21.452h-7.167v-21.533
		c0-2.616,0.939-4.857,2.819-6.725c1.878-1.866,4.123-2.799,6.735-2.799l16.724-0.048c2.644,0.031,4.896,0.98,6.761,2.847
		c1.864,1.867,2.796,4.125,2.796,6.771v21.486h-7.168v-21.543c0-0.639-0.231-1.189-0.691-1.652
		c-0.464-0.463-1.028-0.695-1.697-0.695h-4.778v23.891H1163.12z"/>
	<path fill="#FFFFFF" d="M1199.455,516.646c0.334,0.398,0.708,0.691,1.122,0.883c0.126,0.064,0.255,0.112,0.383,0.144
		c0.126,0.032,0.254,0.048,0.382,0.048h19.112v7.119h-19.112c-2.612,0-4.857-0.934-6.737-2.799c-1.88-1.867-2.819-4.108-2.819-6.725
		c0-2.52,0-4.529,0-6.029c0-1.371,0-2.647,0-3.828c0-1.18,0-1.883,0-2.105c0-2.646,0.939-4.904,2.819-6.771
		c1.88-1.866,4.125-2.799,6.737-2.799l18.825-0.048v7.214h-18.825c-0.639,0.033-1.195,0.279-1.672,0.742
		c-0.478,0.461-0.717,1.027-0.717,1.696v2.34h20.307v7.167h-20.307v2.389C1198.953,515.793,1199.121,516.247,1199.455,516.646z"/>
</g>
</svg>
