<?xml version="1.0" encoding="utf-8"?>
<!-- Generator: Adobe Illustrator 13.0.0, SVG Export Plug-In . SVG Version: 6.00 Build 14948)  -->
<!DOCTYPE svg PUBLIC "-//W3C//DTD SVG 1.0//EN" "http://www.w3.org/TR/2001/REC-SVG-20010904/DTD/svg10.dtd">
<svg version="1.0" id="Layer_3" xmlns="http://www.w3.org/2000/svg" xmlns:xlink="http://www.w3.org/1999/xlink" x="0px" y="0px"
	 width="1296px" height="955px" viewBox="1.4 0.9 1296 955" enable-background="new 1.4 0.9 1296 955" xml:space="preserve">
<path opacity="0.7" stroke="#FFFFFF" stroke-width="4" d="M1260.008,325.265c0,8.746-7.12,15.835-15.906,15.835h-437.39
	c-8.786,0-15.906-7.089-15.906-15.835v-26.391c0-8.745,7.12-15.834,15.906-15.834h437.39c8.786,0,15.906,7.089,15.906,15.834
	V325.265z"/>
<g>
	<path fill="#FFFFFF" d="M834.879,325.923c-2.462,0-4.579-0.878-6.353-2.634c-1.772-1.758-2.656-3.868-2.656-6.331V296.64h6.757
		v20.274c0,0.629,0.225,1.171,0.677,1.621c0.451,0.452,0.975,0.677,1.575,0.677h18.022v6.712H834.879z"/>
	<path fill="#FFFFFF" d="M866.89,318.197c0.316,0.375,0.668,0.653,1.06,0.833c0.118,0.061,0.24,0.106,0.358,0.137
		c0.121,0.029,0.241,0.045,0.361,0.045h18.021v6.712h-18.021c-2.462,0-4.579-0.88-6.353-2.64c-1.772-1.76-2.656-3.873-2.656-6.34
		c0-2.375,0-4.27,0-5.684c0-1.293,0-2.497,0-3.61c0-1.113,0-1.774,0-1.985c0-2.496,0.884-4.625,2.656-6.384
		c1.773-1.76,3.891-2.64,6.353-2.64l17.751-0.045v6.802h-17.751c-0.602,0.031-1.126,0.264-1.577,0.698
		c-0.45,0.437-0.675,0.969-0.675,1.6v2.208h19.147v6.757h-19.147v2.253C866.417,317.395,866.574,317.822,866.89,318.197z"/>
	<path fill="#FFFFFF" d="M893.448,303.397v-6.757h29.238v6.757h-11.264v22.526h-6.758v-22.526H893.448z"/>
	<path fill="#FFFFFF" d="M977.921,325.923v-22.526h-4.507c-0.028,0.031-0.067,0.045-0.112,0.045c-0.044,0-0.082,0-0.113,0
		c-0.51,0.061-0.976,0.3-1.396,0.721c-0.421,0.42-0.63,0.931-0.63,1.531v20.229h-6.759v-20.304c0-2.466,0.886-4.58,2.658-6.339
		c1.773-1.76,3.891-2.64,6.352-2.64l15.77-0.045c2.493,0.03,4.618,0.925,6.376,2.685c1.755,1.76,2.634,3.889,2.634,6.384v20.259
		h-6.756v-20.314c0-0.601-0.22-1.121-0.655-1.557c-0.436-0.437-0.969-0.655-1.599-0.655h-4.506v22.526H977.921z"/>
	<path fill="#FFFFFF" d="M1012.183,318.197c0.315,0.375,0.667,0.653,1.058,0.833c0.121,0.061,0.241,0.106,0.36,0.137
		c0.12,0.029,0.24,0.045,0.361,0.045h18.021v6.712h-18.021c-2.463,0-4.581-0.88-6.353-2.64c-1.772-1.76-2.659-3.873-2.659-6.34
		c0-2.375,0-4.27,0-5.684c0-1.293,0-2.497,0-3.61c0-1.113,0-1.774,0-1.985c0-2.496,0.887-4.625,2.659-6.384
		c1.771-1.76,3.89-2.64,6.353-2.64l17.749-0.045v6.802h-17.749c-0.601,0.031-1.127,0.264-1.578,0.698
		c-0.451,0.437-0.676,0.969-0.676,1.6v2.208h19.147v6.757h-19.147v2.253C1011.708,317.395,1011.866,317.822,1012.183,318.197z"/>
	<path fill="#FFFFFF" d="M1073.656,303.397v-6.757h29.239v6.757h-11.263v22.526h-6.759v-22.526H1073.656z"/>
	<path fill="#FFFFFF" d="M1136.909,298.667c0.721-0.69,1.479-1.201,2.276-1.532c0.794-0.33,1.674-0.496,2.634-0.496
		c1.861,0,3.454,0.663,4.776,1.985c1.321,1.324,1.98,2.918,1.98,4.782v22.516h-6.757V314.66h-11.264l-11.263,11.263h-9.597
		L1136.909,298.667z M1141.527,304.975c-0.195-0.15-0.428-0.225-0.699-0.225c-0.03,0-0.052-0.008-0.067-0.023
		c-0.015-0.015-0.022-0.037-0.022-0.067c0-0.03,0-0.052,0-0.067s0-0.037,0-0.067c-0.15,0.121-0.345,0.301-0.585,0.54l-2.84,2.839
		h4.506v-2.252C1141.819,305.35,1141.721,305.125,1141.527,304.975z"/>
	<path fill="#FFFFFF" d="M1164.346,325.923c-2.464,0-4.58-0.878-6.353-2.634c-1.771-1.758-2.657-3.868-2.657-6.331V296.64h6.758
		v20.274c0,0.629,0.225,1.171,0.675,1.621c0.451,0.452,0.978,0.677,1.577,0.677h18.02v6.712H1164.346z"/>
	<path fill="#FFFFFF" d="M1195.884,325.923h-6.76V296.64h6.76v11.263h13.514c0.632,0.029,1.165-0.18,1.6-0.632
		c0.436-0.45,0.653-0.975,0.653-1.576v-9.055h6.76v9.011c0,0.781-0.099,1.532-0.294,2.252c-0.196,0.721-0.459,1.412-0.788,2.072
		c1.019,0.841,1.831,1.864,2.433,3.064c0.599,1.201,0.9,2.508,0.9,3.919v8.965h-6.757v-9.046c0-0.603-0.22-1.124-0.654-1.561
		c-0.437-0.437-0.969-0.656-1.6-0.656h-15.767V325.923z"/>
</g>
</svg>
