<?xml version="1.0" encoding="utf-8"?>
<!-- Generator: Adobe Illustrator 13.0.0, SVG Export Plug-In . SVG Version: 6.00 Build 14948)  -->
<!DOCTYPE svg PUBLIC "-//W3C//DTD SVG 1.0//EN" "http://www.w3.org/TR/2001/REC-SVG-20010904/DTD/svg10.dtd">
<svg version="1.0" id="Layer_3" xmlns="http://www.w3.org/2000/svg" xmlns:xlink="http://www.w3.org/1999/xlink" x="0px" y="0px"
	 width="1296px" height="955px" viewBox="1.4 0.9 1296 955" enable-background="new 1.4 0.9 1296 955" xml:space="preserve">
<path opacity="0.7" stroke="#FFFFFF" stroke-width="4" d="M1257.993,391.779c0,8.746-4.884,15.835-10.91,15.835h-299.99
	c-6.026,0-10.91-7.089-10.91-15.835v-26.391c0-8.745,4.884-15.834,10.91-15.834h299.99c6.026,0,10.91,7.089,10.91,15.834V391.779z"
	/>
<g>
	<path fill="#FFFFFF" d="M968.897,363.688h21.896c2.423,0.029,4.489,0.897,6.197,2.605s2.562,3.773,2.562,6.197v19.664h-6.569
		v-19.708c0-0.553-0.204-1.035-0.614-1.444c-0.408-0.408-0.86-0.642-1.357-0.701c-0.027,0-0.064,0-0.108,0s-0.08,0-0.109,0h-15.328
		v21.853h-6.568V363.688z"/>
	<path fill="#FFFFFF" d="M1008.749,389.587c-1.724-1.711-2.584-3.764-2.584-6.163c0-2.309,0-4.151,0-5.526c0-1.257,0-2.425,0-3.509
		c0-1.082,0-1.725,0-1.929c0-2.427,0.86-4.495,2.584-6.207c1.722-1.711,3.78-2.566,6.176-2.566l15.327-0.043
		c2.422,0.029,4.488,0.898,6.195,2.609c1.708,1.711,2.563,3.78,2.563,6.207c0,0.205,0,0.848,0,1.929c0,1.083,0,2.251,0,3.509
		c0,1.375,0,3.217,0,5.526c0,2.399-0.855,4.452-2.563,6.163c-1.707,1.71-3.773,2.566-6.195,2.566h-15.327
		C1012.529,392.154,1010.471,391.297,1008.749,389.587z M1031.806,384.95c0.424-0.423,0.636-0.927,0.636-1.511v-10.993
		c0-0.495-0.19-0.941-0.569-1.334c-0.381-0.395-0.788-0.649-1.227-0.767c-0.058,0-0.124-0.006-0.196-0.022
		c-0.074-0.014-0.139-0.021-0.197-0.021h-15.327c-0.118,0.03-0.264,0.08-0.438,0.152c-0.176,0.073-0.351,0.167-0.526,0.283
		c-0.321,0.175-0.606,0.422-0.854,0.74c-0.249,0.319-0.373,0.668-0.373,1.045v10.843c0,0.58,0.205,1.073,0.613,1.479
		s0.861,0.654,1.357,0.74c0.029,0,0.066,0,0.11,0s0.08,0,0.11,0h15.327C1030.864,385.584,1031.383,385.374,1031.806,384.95z"/>
	<path fill="#FFFFFF" d="M1079.519,363.688h21.896c2.424,0.029,4.489,0.897,6.197,2.605s2.562,3.773,2.562,6.197
		c0,0.205,0,0.847,0,1.927s0,2.249,0,3.503c0,1.373,0,3.212,0,5.519c0,2.395-0.854,4.445-2.562,6.153
		c-1.708,1.708-3.773,2.562-6.197,2.562h-21.896V363.688z M1101.415,385.584c0.613,0.029,1.131-0.176,1.555-0.613
		c0.423-0.438,0.635-0.948,0.635-1.532v-10.993c0-0.495-0.19-0.941-0.568-1.334c-0.381-0.395-0.789-0.649-1.228-0.767
		c-0.059,0-0.124-0.006-0.196-0.022c-0.073-0.014-0.14-0.021-0.197-0.021h-15.328v15.284H1101.415z"/>
	<path fill="#FFFFFF" d="M1123.771,384.643c0.307,0.366,0.65,0.636,1.028,0.812c0.118,0.058,0.234,0.103,0.352,0.13
		c0.116,0.029,0.232,0.044,0.35,0.044h17.518v6.525h-17.518c-2.394,0-4.452-0.856-6.174-2.566c-1.724-1.711-2.585-3.764-2.585-6.163
		c0-2.309,0-4.151,0-5.526c0-1.257,0-2.425,0-3.509c0-1.082,0-1.725,0-1.929c0-2.427,0.861-4.495,2.585-6.207
		c1.722-1.711,3.78-2.566,6.174-2.566l17.256-0.043v6.613h-17.256c-0.583,0.029-1.095,0.255-1.532,0.678
		c-0.438,0.424-0.656,0.942-0.656,1.555v2.146h18.611v6.568h-18.611v2.189C1123.312,383.863,1123.466,384.279,1123.771,384.643z"/>
	<path fill="#FFFFFF" d="M1176.04,365.659c0.701-0.671,1.437-1.167,2.211-1.489c0.772-0.321,1.628-0.482,2.562-0.482
		c1.809,0,3.356,0.644,4.642,1.93c1.284,1.286,1.928,2.837,1.928,4.649v21.886h-6.569v-10.949h-10.949l-10.948,10.949h-9.328
		L1176.04,365.659z M1180.528,371.79c-0.189-0.146-0.416-0.219-0.679-0.219c-0.03,0-0.052-0.006-0.066-0.022
		c-0.015-0.014-0.021-0.036-0.021-0.065s0-0.051,0-0.066c0-0.013,0-0.036,0-0.065c-0.146,0.117-0.335,0.292-0.568,0.525l-2.76,2.759
		h4.38v-2.191C1180.813,372.155,1180.718,371.936,1180.528,371.79z"/>
	<path fill="#FFFFFF" d="M1202.71,392.154c-2.395,0-4.453-0.854-6.176-2.562c-1.723-1.708-2.584-3.758-2.584-6.153v-19.751h6.569
		v19.707c0,0.613,0.219,1.139,0.657,1.577c0.438,0.438,0.948,0.658,1.533,0.658h17.518v6.525H1202.71z"/>
</g>
</svg>
