<?xml version="1.0" encoding="utf-8"?>
<!-- Generator: Adobe Illustrator 13.0.0, SVG Export Plug-In . SVG Version: 6.00 Build 14948)  -->
<!DOCTYPE svg PUBLIC "-//W3C//DTD SVG 1.0//EN" "http://www.w3.org/TR/2001/REC-SVG-20010904/DTD/svg10.dtd">
<svg version="1.0" id="Layer_3" xmlns="http://www.w3.org/2000/svg" xmlns:xlink="http://www.w3.org/1999/xlink" x="0px" y="0px"
	 width="1296px" height="955px" viewBox="1.4 0.9 1296 955" enable-background="new 1.4 0.9 1296 955" xml:space="preserve">
<path opacity="0.7" stroke="#FFFFFF" stroke-width="4" d="M1257.993,457.316c0,8.746-5.837,15.835-13.038,15.835H886.434
	c-7.202,0-13.038-7.089-13.038-15.835v-26.391c0-8.745,5.836-15.834,13.038-15.834h358.521c7.201,0,13.038,7.089,13.038,15.834
	V457.316z"/>
<g>
	<path fill="#FFFFFF" d="M927.093,454.304h4.867c0.68,0.033,1.255-0.195,1.727-0.681c0.469-0.488,0.704-1.054,0.704-1.704v-21.943
		h7.299v21.896c0,2.692-0.949,4.985-2.845,6.884c-1.898,1.896-4.193,2.846-6.885,2.846h-17.029c-2.661,0-4.947-0.95-6.859-2.846
		c-1.914-1.899-2.871-4.177-2.871-6.836v-21.943h7.298v21.851c0,0.647,0.228,1.199,0.682,1.65c0.453,0.454,0.956,0.729,1.509,0.827
		c0.031,0,0.072,0,0.12,0c0.05,0,0.089,0,0.122,0h4.864v-24.328h7.298V454.304z"/>
	<path fill="#FFFFFF" d="M956.285,449.438v12.163h-7.3v-31.625h7.3v12.163h17.027v-12.163h7.299v31.625h-7.299v-12.163H956.285z"/>
	<path fill="#FFFFFF" d="M1002.506,461.602v-12.163h-4.867c-2.658,0.032-4.946-0.908-6.858-2.822
		c-1.916-1.913-2.871-4.2-2.871-6.858v-9.781h7.298v9.731c0,0.65,0.226,1.202,0.682,1.654c0.453,0.454,0.956,0.73,1.507,0.828
		c0.033,0,0.074,0,0.121,0c0.05,0,0.09,0,0.122,0h17.03c0.679,0.034,1.254-0.196,1.727-0.683c0.468-0.489,0.705-1.06,0.705-1.711
		v-9.818h7.299v9.708c0,2.685-0.951,4.983-2.848,6.892c-1.896,1.908-4.193,2.862-6.883,2.862h-4.867v12.163H1002.506z"/>
	<path fill="#FFFFFF" d="M1069.399,439.674c0-2.663,0.957-4.946,2.871-6.846c1.913-1.901,4.2-2.852,6.86-2.852l14.595-0.047
		c2.693,0.032,4.988,0.997,6.884,2.898c1.899,1.9,2.848,4.199,2.848,6.895v21.879h-7.299v-21.894c0-0.615-0.227-1.15-0.68-1.605
		c-0.455-0.453-0.958-0.714-1.51-0.778c-0.032,0-0.073,0-0.12,0c-0.048,0-0.091,0-0.123,0h-14.595
		c-0.648,0.032-1.217,0.283-1.703,0.753c-0.487,0.469-0.728,1.044-0.728,1.722v21.802h-7.301V439.674z"/>
	<path fill="#FFFFFF" d="M1113.674,458.751c-1.915-1.901-2.871-4.184-2.871-6.846c0-2.565,0-4.613,0-6.141c0-1.397,0-2.696,0-3.897
		c0-1.203,0-1.917,0-2.145c0-2.696,0.956-4.995,2.871-6.895c1.913-1.901,4.2-2.852,6.858-2.852l17.029-0.047
		c2.691,0.032,4.987,0.997,6.885,2.898c1.897,1.9,2.846,4.199,2.846,6.895c0,0.228,0,0.942,0,2.145c0,1.202,0,2.5,0,3.897
		c0,1.528,0,3.575,0,6.141c0,2.663-0.948,4.945-2.846,6.846c-1.897,1.9-4.193,2.85-6.885,2.85h-17.029
		C1117.874,461.602,1115.587,460.651,1113.674,458.751z M1139.289,453.599c0.468-0.471,0.704-1.029,0.704-1.679v-12.212
		c0-0.551-0.21-1.046-0.631-1.483c-0.424-0.438-0.876-0.722-1.362-0.851c-0.065,0-0.139-0.007-0.22-0.024
		c-0.082-0.017-0.154-0.025-0.219-0.025h-17.029c-0.13,0.032-0.29,0.089-0.484,0.169s-0.389,0.186-0.586,0.314
		c-0.357,0.194-0.671,0.468-0.947,0.822c-0.276,0.355-0.413,0.742-0.413,1.161v12.045c0,0.646,0.226,1.193,0.68,1.646
		c0.454,0.451,0.957,0.725,1.509,0.822c0.033,0,0.073,0,0.122,0c0.048,0,0.089,0,0.12,0h17.029
		C1138.241,454.304,1138.816,454.069,1139.289,453.599z"/>
	<path fill="#FFFFFF" d="M1154.59,437.275v-7.299h31.574v7.299h-12.163v24.326h-7.296v-24.326H1154.59z"/>
	<path fill="#FFFFFF" d="M1212.243,441.459c0.484-0.486,0.729-1.053,0.729-1.701c0-0.682-0.235-1.257-0.707-1.728
		c-0.47-0.469-1.045-0.706-1.726-0.706h-17.028v-7.348h17.028c2.692,0.035,4.986,0.999,6.884,2.896
		c1.899,1.897,2.848,4.192,2.848,6.885c0,2.658-0.948,4.946-2.848,6.858c-1.897,1.914-4.191,2.871-6.884,2.871
		c-0.584,0-1.103,0.236-1.557,0.704c-0.455,0.472-0.682,1.047-0.682,1.728l-7.299-0.047c0-2.667,0.949-4.956,2.849-6.866
		c1.896-1.91,4.125-2.867,6.688-2.867C1211.189,442.173,1211.756,441.947,1212.243,441.459z M1201.003,461.602v-7.297h7.299v7.297
		H1201.003z"/>
</g>
</svg>
