<?xml version="1.0" encoding="utf-8"?>
<!-- Generator: Adobe Illustrator 13.0.0, SVG Export Plug-In . SVG Version: 6.00 Build 14948)  -->
<!DOCTYPE svg PUBLIC "-//W3C//DTD SVG 1.0//EN" "http://www.w3.org/TR/2001/REC-SVG-20010904/DTD/svg10.dtd">
<svg version="1.0" id="Layer_3" xmlns="http://www.w3.org/2000/svg" xmlns:xlink="http://www.w3.org/1999/xlink" x="0px" y="0px"
	 width="1296px" height="955px" viewBox="1.4 0.9 1296 955" enable-background="new 1.4 0.9 1296 955" xml:space="preserve">
<path opacity="0.7" stroke="#FFFFFF" stroke-width="4" d="M1257.097,128.141c0,8.746-7.696,15.835-17.194,15.835H767.089
	c-9.497,0-17.194-7.089-17.194-15.835V101.75c0-8.745,7.697-15.834,17.194-15.834h472.813c9.498,0,17.194,7.089,17.194,15.834
	V128.141z"/>
<path opacity="0.7" stroke="#FFFFFF" stroke-width="4" d="M1256.508,194.165c0,8.746-7.093,15.835-15.845,15.835H804.95
	c-8.751,0-15.845-7.089-15.845-15.835v-26.391c0-8.745,7.094-15.834,15.845-15.834h435.713c8.752,0,15.845,7.089,15.845,15.834
	V194.165z"/>
<path opacity="0.7" stroke="#FFFFFF" stroke-width="4" d="M1258.008,259.265c0,8.746-5.678,15.835-12.686,15.835H896.499
	c-7.007,0-12.686-7.089-12.686-15.835v-26.391c0-8.745,5.679-15.834,12.686-15.834h348.823c7.008,0,12.686,7.089,12.686,15.834
	V259.265z"/>
<path opacity="0.7" stroke="#FFFFFF" stroke-width="4" d="M1260.008,325.265c0,8.746-7.12,15.835-15.906,15.835h-437.39
	c-8.786,0-15.906-7.089-15.906-15.835v-26.391c0-8.745,7.12-15.834,15.906-15.834h437.39c8.786,0,15.906,7.089,15.906,15.834
	V325.265z"/>
<path opacity="0.7" stroke="#FFFFFF" stroke-width="4" d="M1257.993,391.779c0,8.746-4.884,15.835-10.91,15.835h-299.99
	c-6.026,0-10.91-7.089-10.91-15.835v-26.391c0-8.745,4.884-15.834,10.91-15.834h299.99c6.026,0,10.91,7.089,10.91,15.834V391.779z"
	/>
<path opacity="0.7" stroke="#FFFFFF" stroke-width="4" d="M1257.993,457.316c0,8.746-5.837,15.835-13.038,15.835H886.434
	c-7.202,0-13.038-7.089-13.038-15.835v-26.391c0-8.745,5.836-15.834,13.038-15.834h358.521c7.201,0,13.038,7.089,13.038,15.834
	V457.316z"/>
<path opacity="0.7" stroke="#FFFFFF" stroke-width="4" d="M1257.993,522.83c0,8.746-4.842,15.835-10.818,15.835h-297.47
	c-5.977,0-10.818-7.089-10.818-15.835v-26.391c0-8.746,4.842-15.835,10.818-15.835h297.47c5.977,0,10.818,7.089,10.818,15.835
	V522.83z"/>
<path opacity="0.7" stroke="#FFFFFF" stroke-width="4" d="M1259.001,653.842c0,8.746-6.34,15.836-14.166,15.836H855.319
	c-7.826,0-14.166-7.09-14.166-15.836v-26.391c0-8.745,6.34-15.834,14.166-15.834h389.516c7.826,0,14.166,7.089,14.166,15.834
	V653.842z"/>
<path opacity="0.7" stroke="#FFFFFF" stroke-width="4" d="M1259.001,719.349c0,8.746-9.871,15.836-22.057,15.836h-606.48
	c-12.186,0-22.057-7.09-22.057-15.836v-26.391c0-8.745,9.871-15.834,22.057-15.834h606.48c12.186,0,22.057,7.089,22.057,15.834
	V719.349z"/>
<path opacity="0.7" stroke="#FFFFFF" stroke-width="4" d="M1258.016,784.848c0,8.746-10.055,15.836-22.467,15.836h-617.75
	c-12.412,0-22.466-7.09-22.466-15.836v-26.391c0-8.745,10.054-15.834,22.466-15.834h617.75c12.412,0,22.467,7.089,22.467,15.834
	V784.848z"/>
<path opacity="0.7" stroke="#FFFFFF" stroke-width="4" d="M1258.057,851.058c0,8.746-12.531,15.836-28.001,15.836H460.149
	c-15.469,0-28-7.09-28-15.836v-26.391c0-8.745,12.531-15.834,28-15.834h769.907c15.47,0,28.001,7.089,28.001,15.834V851.058z"/>
<path opacity="0.7" stroke="#FFFFFF" stroke-width="4" d="M1259.001,588.307c0,8.745-7.44,15.834-16.625,15.834H785.234
	c-9.185,0-16.625-7.089-16.625-15.834v-26.392c0-8.745,7.44-15.835,16.625-15.835h457.142c9.185,0,16.625,7.09,16.625,15.835
	V588.307z"/>
<g>
	<path fill="#FFFFFF" d="M796.85,131.415v-11.828h-4.73c-2.587,0.032-4.811-0.883-6.672-2.744c-1.86-1.86-2.791-4.084-2.791-6.671
		v-9.509h7.097v9.461c0,0.631,0.222,1.167,0.663,1.608c0.441,0.442,0.93,0.71,1.466,0.805c0.031,0,0.071,0,0.119,0
		c0.047,0,0.086,0,0.118,0h16.559c0.663,0.032,1.223-0.19,1.68-0.665s0.687-1.029,0.687-1.663v-9.547h7.096v9.438
		c0,2.612-0.922,4.846-2.768,6.702c-1.845,1.856-4.077,2.784-6.694,2.784h-4.731v11.828H796.85z"/>
	<path fill="#FFFFFF" d="M825.662,128.643c-1.861-1.848-2.791-4.067-2.791-6.658c0-2.494,0-4.484,0-5.97c0-1.358,0-2.622,0-3.791
		c0-1.168,0-1.863,0-2.084c0-2.622,0.93-4.857,2.791-6.705c1.861-1.848,4.085-2.771,6.671-2.771l16.559-0.047
		c2.617,0.032,4.851,0.971,6.694,2.819c1.846,1.848,2.769,4.083,2.769,6.705c0,0.221,0,0.916,0,2.084c0,1.169,0,2.433,0,3.791
		c0,1.485,0,3.476,0,5.97c0,2.59-0.923,4.81-2.769,6.658c-1.844,1.848-4.077,2.772-6.694,2.772h-16.559
		C829.747,131.415,827.523,130.491,825.662,128.643z M850.571,123.632c0.457-0.457,0.687-1.001,0.687-1.632v-11.875
		c0-0.536-0.206-1.017-0.615-1.443c-0.41-0.425-0.852-0.701-1.325-0.828c-0.063,0-0.134-0.008-0.212-0.024
		c-0.079-0.015-0.15-0.023-0.214-0.023h-16.559c-0.127,0.032-0.283,0.086-0.473,0.164c-0.19,0.079-0.379,0.181-0.568,0.306
		c-0.347,0.188-0.654,0.456-0.922,0.8c-0.269,0.345-0.403,0.722-0.403,1.129v11.714c0,0.627,0.222,1.16,0.663,1.599
		c0.442,0.439,0.931,0.706,1.467,0.799c0.03,0,0.071,0,0.119,0c0.046,0,0.085,0,0.117,0h16.559
		C849.555,124.318,850.114,124.089,850.571,123.632z"/>
	<path fill="#FFFFFF" d="M896.202,121.953c0,2.619-0.924,4.85-2.768,6.694c-1.846,1.845-4.077,2.768-6.694,2.768h-14.194
		c-2.586,0-4.81-0.923-6.671-2.768c-1.861-1.845-2.791-4.06-2.791-6.647v-21.29h7.096v21.243c0,0.631,0.222,1.167,0.663,1.608
		c0.442,0.442,0.931,0.71,1.467,0.804c0.031,0,0.071,0,0.119,0c0.046,0,0.085,0,0.117,0h14.194c0.661,0.032,1.221-0.189,1.68-0.664
		c0.455-0.474,0.685-1.027,0.685-1.659v-21.379h7.098V121.953z"/>
	<path fill="#FFFFFF" d="M904.6,100.71c2.444,0,5.133,0,8.066,0c2.523,0,4.896,0,7.121,0c2.224,0,3.649,0,4.281,0
		c2.617,0,4.85,0.922,6.695,2.768c1.845,1.845,2.768,4.076,2.768,6.694c0,1.073-0.158,2.09-0.473,3.052
		c-0.316,0.962-0.727,1.853-1.23,2.673c0.725,0.82,1.276,1.75,1.655,2.791c0.379,1.041,0.568,2.146,0.568,3.312v9.415h-7.098v-9.462
		c0-0.568-0.196-1.072-0.591-1.514c-0.395-0.441-0.859-0.709-1.396-0.804c-0.063,0-0.971,0-2.72,0c-1.752,0-3.667,0-5.75,0
		c-2.113,0-4.936,0-8.469,0v11.828h-7.096v-30.799C900.934,100.695,902.154,100.71,904.6,100.71z M908.029,107.759v4.731h16.276
		c0.63,0.032,1.183-0.191,1.655-0.669c0.473-0.477,0.71-1.036,0.71-1.673c0-0.668-0.237-1.233-0.71-1.696
		c-0.473-0.462-1.025-0.694-1.655-0.694H908.029z"/>
	<path fill="#FFFFFF" d="M982.545,131.415c-2.587,0-4.811-0.924-6.672-2.772s-2.791-4.067-2.791-6.658c0-2.494,0-4.484,0-5.97
		c0-1.358,0-2.622,0-3.791c0-1.168,0-1.863,0-2.084c0-2.622,0.93-4.857,2.791-6.705c1.861-1.848,4.085-2.771,6.672-2.771
		l18.924-0.047v7.143h-18.924c-0.095,0.033-0.189,0.056-0.284,0.071c-0.095,0.016-0.188,0.041-0.283,0.071
		c-0.443,0.126-0.853,0.402-1.23,0.828c-0.378,0.426-0.569,0.907-0.569,1.443v11.781c0,0.662,0.237,1.23,0.71,1.703
		c0.475,0.473,1.024,0.709,1.657,0.709h18.924v7.05H982.545z"/>
	<path fill="#FFFFFF" d="M1015.661,131.415c-2.586,0-4.81-0.923-6.671-2.768c-1.861-1.845-2.791-4.06-2.791-6.647v-21.337h7.096
		v21.29c0,0.662,0.237,1.23,0.71,1.703c0.474,0.473,1.024,0.709,1.656,0.709h18.925v7.05H1015.661z"/>
	<path fill="#FFFFFF" d="M1042.108,128.643c-1.861-1.848-2.791-4.067-2.791-6.658c0-2.494,0-4.484,0-5.97c0-1.358,0-2.622,0-3.791
		c0-1.168,0-1.863,0-2.084c0-2.622,0.93-4.857,2.791-6.705c1.861-1.848,4.085-2.771,6.671-2.771l16.559-0.047
		c2.617,0.032,4.851,0.971,6.695,2.819c1.845,1.848,2.768,4.083,2.768,6.705c0,0.221,0,0.916,0,2.084c0,1.169,0,2.433,0,3.791
		c0,1.485,0,3.476,0,5.97c0,2.59-0.923,4.81-2.768,6.658s-4.078,2.772-6.695,2.772h-16.559
		C1046.193,131.415,1043.97,130.491,1042.108,128.643z M1067.018,123.632c0.457-0.457,0.687-1.001,0.687-1.632v-11.875
		c0-0.536-0.206-1.017-0.615-1.443c-0.41-0.425-0.852-0.701-1.325-0.828c-0.062,0-0.134-0.008-0.212-0.024
		c-0.079-0.015-0.15-0.023-0.214-0.023h-16.559c-0.127,0.032-0.283,0.086-0.473,0.164c-0.19,0.079-0.379,0.181-0.568,0.306
		c-0.347,0.188-0.654,0.456-0.922,0.8c-0.269,0.345-0.403,0.722-0.403,1.129v11.714c0,0.627,0.222,1.16,0.663,1.599
		c0.442,0.439,0.931,0.706,1.467,0.799c0.031,0,0.071,0,0.119,0c0.046,0,0.085,0,0.117,0h16.559
		C1066.001,124.318,1066.561,124.089,1067.018,123.632z"/>
	<path fill="#FFFFFF" d="M1079.53,107.759v-7.096h30.705v7.096h-11.828v23.656h-7.097v-23.656H1079.53z"/>
	<path fill="#FFFFFF" d="M1122.109,119.587v11.828h-7.096v-30.752h7.096v11.827h16.56v-11.827h7.097v30.752h-7.097v-11.828H1122.109
		z"/>
	<path fill="#FFFFFF" d="M1158.09,123.301c0.332,0.395,0.702,0.687,1.111,0.875c0.126,0.063,0.253,0.111,0.38,0.142
		c0.125,0.032,0.251,0.047,0.378,0.047h18.925v7.05h-18.925c-2.586,0-4.811-0.924-6.671-2.772c-1.861-1.848-2.792-4.067-2.792-6.658
		c0-2.494,0-4.484,0-5.97c0-1.358,0-2.622,0-3.791c0-1.168,0-1.863,0-2.084c0-2.622,0.931-4.857,2.792-6.705
		c1.86-1.848,4.085-2.771,6.671-2.771l18.641-0.047v7.143h-18.641c-0.632,0.033-1.183,0.277-1.656,0.734
		c-0.473,0.458-0.71,1.018-0.71,1.679v2.318h20.107v7.097h-20.107v2.366C1157.593,122.458,1157.759,122.907,1158.09,123.301z"/>
	<path fill="#FFFFFF" d="M1199.938,119.587c-1.263,0-2.492,0-3.691,0c-1.197,0-2.255,0-3.169,0c-2.586,0-4.811-0.93-6.671-2.791
		c-1.861-1.861-2.791-4.084-2.791-6.671c0-2.617,0.93-4.849,2.791-6.694c1.86-1.846,4.085-2.768,6.671-2.768l26.021-0.047v7.143
		h-26.021c-0.632,0.033-1.183,0.277-1.656,0.734c-0.473,0.458-0.71,1.018-0.71,1.679c0,0.631,0.245,1.183,0.734,1.657
		c0.488,0.473,1.032,0.709,1.632,0.709c3.438,0,6.182,0,8.232,0c1.86,0,3.595,0,5.203,0s2.587,0,2.934,0
		c2.618,0,4.85,0.929,6.695,2.785c1.845,1.856,2.768,4.09,2.768,6.701c0,2.58-0.923,4.79-2.768,6.63
		c-1.846,1.841-4.077,2.761-6.695,2.761h-25.88v-7.097h25.88c0.663,0.032,1.223-0.191,1.68-0.669
		c0.458-0.477,0.687-1.035,0.687-1.672c0-0.668-0.229-1.234-0.687-1.696c-0.457-0.462-1.017-0.694-1.68-0.694
		C1205.504,119.587,1202.334,119.587,1199.938,119.587z"/>
</g>
<g>
	<path fill="#FFFFFF" d="M825.872,196.648v-29.782h6.872v29.782H825.872z"/>
	<path fill="#FFFFFF" d="M839.616,166.867l2.292-2.291h-2.292v-6.873h6.874v6.873l-6.874,4.582V166.867z"/>
	<path fill="#FFFFFF" d="M862.525,196.648c-2.504,0-4.657-0.894-6.46-2.68c-1.802-1.787-2.703-3.933-2.703-6.438v-20.664h6.874
		v20.619c0,0.641,0.229,1.191,0.687,1.649c0.458,0.458,0.992,0.688,1.603,0.688h18.328v6.827H862.525z"/>
	<path fill="#FFFFFF" d="M896.89,196.648c-2.506,0-4.659-0.894-6.46-2.68c-1.804-1.787-2.703-3.933-2.703-6.438v-20.664h6.872
		v20.619c0,0.641,0.229,1.191,0.687,1.649c0.459,0.458,0.992,0.688,1.604,0.688h18.327v6.827H896.89z"/>
	<path fill="#FFFFFF" d="M957.599,166.867c0,0.031,1.184,0.046,3.551,0.046c2.366,0,4.972,0,7.812,0c2.444,0,4.743,0,6.896,0
		c2.152,0,3.534,0,4.146,0c2.534,0,4.695,0.894,6.482,2.68c1.787,1.787,2.681,3.949,2.681,6.483c0,1.039-0.16,2.024-0.481,2.955
		c-0.319,0.932-0.785,1.795-1.396,2.589c0.701,0.794,1.274,1.695,1.718,2.703c0.442,1.008,0.664,2.078,0.664,3.208
		c0,2.505-0.894,4.651-2.681,6.438c-1.787,1.786-3.947,2.68-6.482,2.68c-0.612,0-2.016,0-4.215,0s-4.566,0-7.103,0
		c-2.902,0-6.766,0-11.592,0V166.867z M982.799,187.485c0-0.611-0.223-1.138-0.664-1.581c-0.443-0.442-0.986-0.664-1.627-0.664
		h-16.083l0.046,4.536h16.037c0.641,0.031,1.184-0.183,1.627-0.642c0.441-0.458,0.664-0.992,0.664-1.604V187.485z M964.471,173.739
		v4.582h15.762c0.611,0.031,1.146-0.186,1.604-0.647c0.459-0.463,0.688-1.003,0.688-1.621c0-0.646-0.229-1.194-0.688-1.642
		c-0.458-0.447-0.992-0.672-1.604-0.672H964.471z"/>
	<path fill="#FFFFFF" d="M1003.897,188.791c0.321,0.382,0.679,0.665,1.076,0.848c0.123,0.062,0.245,0.108,0.367,0.138
		c0.121,0.031,0.244,0.046,0.366,0.046h18.328v6.827h-18.328c-2.505,0-4.657-0.895-6.46-2.685c-1.802-1.79-2.703-3.938-2.703-6.448
		c0-2.416,0-4.343,0-5.781c0-1.315,0-2.539,0-3.671s0-1.805,0-2.02c0-2.539,0.901-4.704,2.703-6.493
		c1.803-1.79,3.955-2.685,6.46-2.685l18.053-0.045v6.918h-18.053c-0.61,0.031-1.145,0.268-1.603,0.71
		c-0.458,0.444-0.688,0.985-0.688,1.627v2.245h19.472v6.873h-19.472v2.292C1003.417,187.974,1003.578,188.409,1003.897,188.791z"/>
	<path fill="#FFFFFF" d="M1066.416,166.867c0,0.031,1.184,0.046,3.551,0.046s4.972,0,7.813,0c2.442,0,4.741,0,6.895,0
		c2.154,0,3.536,0,4.146,0c2.536,0,4.697,0.894,6.484,2.68c1.787,1.787,2.679,3.949,2.679,6.483c0,1.039-0.159,2.024-0.48,2.955
		c-0.32,0.932-0.786,1.795-1.397,2.589c0.703,0.794,1.275,1.695,1.719,2.703c0.442,1.008,0.663,2.078,0.663,3.208
		c0,2.505-0.892,4.651-2.679,6.438c-1.787,1.786-3.948,2.68-6.484,2.68c-0.61,0-2.016,0-4.215,0s-4.566,0-7.102,0
		c-2.903,0-6.767,0-11.593,0V166.867z M1091.616,187.485c0-0.611-0.222-1.138-0.664-1.581c-0.443-0.442-0.984-0.664-1.627-0.664
		h-16.082l0.047,4.536h16.035c0.643,0.031,1.184-0.183,1.627-0.642c0.442-0.458,0.664-0.992,0.664-1.604V187.485z M1073.29,173.739
		v4.582h15.76c0.611,0.031,1.146-0.186,1.604-0.647c0.458-0.463,0.688-1.003,0.688-1.621c0-0.646-0.229-1.194-0.688-1.642
		c-0.458-0.447-0.993-0.672-1.604-0.672H1073.29z"/>
	<path fill="#FFFFFF" d="M1133.037,168.929c0.732-0.703,1.504-1.221,2.313-1.558c0.809-0.335,1.701-0.504,2.681-0.504
		c1.893,0,3.511,0.674,4.855,2.019c1.344,1.347,2.017,2.968,2.017,4.864v22.898h-6.872v-11.455h-11.455l-11.454,11.455h-9.76
		L1133.037,168.929z M1137.732,175.343c-0.199-0.152-0.435-0.229-0.709-0.229c-0.032,0-0.055-0.007-0.07-0.023
		c-0.016-0.015-0.022-0.038-0.022-0.068s0-0.053,0-0.069c0-0.015,0-0.038,0-0.069c-0.152,0.123-0.352,0.306-0.596,0.55l-2.887,2.887
		h4.583v-2.291C1138.031,175.725,1137.931,175.496,1137.732,175.343z"/>
	<path fill="#FFFFFF" d="M1160.938,196.648c-2.504,0-4.657-0.895-6.46-2.685c-1.802-1.79-2.703-3.938-2.703-6.448
		c0-2.416,0-4.343,0-5.781c0-1.315,0-2.539,0-3.671s0-1.805,0-2.02c0-2.539,0.901-4.704,2.703-6.493
		c1.803-1.79,3.956-2.685,6.46-2.685l18.328-0.045v6.918h-18.328c-0.091,0.031-0.183,0.054-0.273,0.068
		c-0.092,0.016-0.185,0.039-0.274,0.069c-0.43,0.123-0.825,0.39-1.192,0.801c-0.366,0.413-0.549,0.878-0.549,1.398v11.409
		c0,0.641,0.229,1.191,0.687,1.649c0.458,0.458,0.992,0.688,1.603,0.688h18.328v6.827H1160.938z"/>
	<path fill="#FFFFFF" d="M1193.012,196.648h-6.872v-29.782h6.872v11.455h13.746c0.641,0.031,1.183-0.183,1.626-0.642
		c0.442-0.458,0.665-0.992,0.665-1.604v-9.209h6.872v9.164c0,0.794-0.099,1.557-0.298,2.291c-0.198,0.733-0.466,1.437-0.801,2.107
		c1.037,0.855,1.861,1.895,2.474,3.116c0.61,1.222,0.916,2.551,0.916,3.986v9.118h-6.872v-9.2c0-0.613-0.223-1.142-0.665-1.587
		c-0.443-0.445-0.985-0.667-1.626-0.667h-16.037V196.648z"/>
</g>
<g>
	<path fill="#FFFFFF" d="M930.941,260.949c-2.988,0-5.559-0.898-7.708-2.696c-2.149-1.796-3.225-3.953-3.225-6.472
		c0-2.428,0-4.363,0-5.807c0-1.321,0-2.548,0-3.685c0-1.138,0-1.813,0-2.028c0-2.549,1.075-4.722,3.225-6.52s4.72-2.695,7.708-2.695
		L952.804,231v6.947h-21.862c-0.109,0.031-0.219,0.054-0.329,0.069c-0.107,0.016-0.217,0.038-0.329,0.069
		c-0.51,0.122-0.981,0.391-1.42,0.805c-0.437,0.414-0.654,0.881-0.654,1.403v11.456c0,0.644,0.272,1.195,0.819,1.656
		c0.545,0.458,1.184,0.69,1.913,0.69h21.862v6.854H930.941z"/>
	<path fill="#FFFFFF" d="M964.229,258.252c-2.149-1.796-3.225-3.953-3.225-6.472c0-2.428,0-4.363,0-5.807c0-1.321,0-2.548,0-3.685
		c0-1.138,0-1.813,0-2.028c0-2.549,1.075-4.722,3.225-6.52c2.15-1.797,4.718-2.695,7.709-2.695L991.066,231
		c3.024,0.031,5.604,0.944,7.734,2.742c2.132,1.797,3.199,3.971,3.199,6.52c0,0.215,0,0.891,0,2.028c0,1.136,0,2.364,0,3.685
		c0,1.444,0,3.379,0,5.807c0,2.519-1.067,4.675-3.199,6.472c-2.131,1.798-4.71,2.696-7.734,2.696h-19.129
		C968.946,260.949,966.379,260.051,964.229,258.252z M993.006,253.381c0.529-0.446,0.795-0.974,0.795-1.586v-11.548
		c0-0.521-0.238-0.988-0.712-1.403c-0.472-0.414-0.983-0.681-1.529-0.805c-0.077,0-0.156-0.007-0.245-0.023
		c-0.095-0.016-0.175-0.023-0.248-0.023h-19.129c-0.146,0.032-0.329,0.084-0.55,0.161c-0.217,0.076-0.437,0.175-0.652,0.296
		c-0.401,0.183-0.761,0.443-1.069,0.779c-0.308,0.334-0.462,0.702-0.462,1.097v11.391c0,0.608,0.255,1.128,0.764,1.554
		c0.51,0.428,1.075,0.686,1.694,0.778c0.035,0,0.083,0,0.138,0c0.053,0,0.101,0,0.138,0h19.129
		C991.834,254.048,992.479,253.825,993.006,253.381z"/>
	<path fill="#FFFFFF" d="M1014.433,231.093c2.822,0,5.931,0,9.319,0c2.914,0,5.657,0,8.229,0c2.566,0,4.217,0,4.945,0
		c3.023,0,5.603,0.897,7.733,2.691c2.132,1.794,3.199,3.963,3.199,6.509c0,1.042-0.183,2.033-0.549,2.967
		c-0.365,0.936-0.837,1.802-1.421,2.6c0.84,0.796,1.478,1.702,1.913,2.714c0.438,1.011,0.656,2.085,0.656,3.221v9.154h-8.199v-9.2
		c0-0.553-0.228-1.042-0.683-1.472c-0.454-0.429-0.993-0.691-1.613-0.783c-0.072,0-1.121,0-3.141,0c-2.023,0-4.237,0-6.644,0
		c-2.439,0-5.701,0-9.782,0v11.501h-8.2v-29.949C1010.196,231.077,1011.61,231.093,1014.433,231.093z M1018.396,237.947v4.6h18.802
		c0.729,0.033,1.367-0.186,1.914-0.65c0.545-0.464,0.818-1.007,0.818-1.626c0-0.649-0.273-1.198-0.818-1.647
		c-0.547-0.45-1.186-0.676-1.914-0.676H1018.396z"/>
	<path fill="#FFFFFF" d="M1060.895,231.093c2.823,0,5.93,0,9.318,0c2.916,0,5.657,0,8.228,0c2.567,0,4.217,0,4.945,0
		c3.026,0,5.604,0.897,7.734,2.691c2.133,1.794,3.198,3.963,3.198,6.509c0,1.042-0.183,2.033-0.546,2.967
		c-0.365,0.936-0.839,1.802-1.42,2.6c0.836,0.796,1.472,1.702,1.912,2.714c0.438,1.011,0.655,2.085,0.655,3.221v9.154h-8.199v-9.2
		c0-0.553-0.229-1.042-0.682-1.472c-0.458-0.429-0.996-0.691-1.613-0.783c-0.074,0-1.122,0-3.144,0c-2.023,0-4.237,0-6.642,0
		c-2.442,0-5.703,0-9.782,0v11.501h-8.201v-29.949C1056.657,231.077,1058.071,231.093,1060.895,231.093z M1064.858,237.947v4.6
		h18.802c0.728,0.033,1.365-0.186,1.913-0.65c0.546-0.464,0.817-1.007,0.817-1.626c0-0.649-0.271-1.198-0.817-1.647
		c-0.548-0.45-1.186-0.676-1.913-0.676H1064.858z"/>
	<path fill="#FFFFFF" d="M1111.892,253.058c0.382,0.386,0.811,0.668,1.283,0.852c0.146,0.063,0.293,0.109,0.438,0.139
		c0.145,0.031,0.291,0.046,0.438,0.046h21.864v6.854h-21.864c-2.989,0-5.557-0.898-7.706-2.696
		c-2.152-1.796-3.226-3.953-3.226-6.472c0-2.428,0-4.363,0-5.807c0-1.321,0-2.548,0-3.685c0-1.138,0-1.813,0-2.028
		c0-2.549,1.073-4.722,3.226-6.52c2.149-1.797,4.717-2.695,7.706-2.695l21.535-0.046v6.947h-21.535
		c-0.729,0.031-1.367,0.27-1.914,0.713c-0.545,0.446-0.818,0.989-0.818,1.633v2.253h23.229v6.901h-23.229v2.301
		C1111.318,252.239,1111.51,252.676,1111.892,253.058z"/>
	<path fill="#FFFFFF" d="M1155.045,260.949c-2.989,0-5.558-0.898-7.707-2.696c-2.149-1.796-3.227-3.953-3.227-6.472
		c0-2.428,0-4.363,0-5.807c0-1.321,0-2.548,0-3.685c0-1.138,0-1.813,0-2.028c0-2.549,1.077-4.722,3.227-6.52
		s4.718-2.695,7.707-2.695l21.862-0.046v6.947h-21.862c-0.109,0.031-0.219,0.054-0.329,0.069c-0.109,0.016-0.218,0.038-0.327,0.069
		c-0.512,0.122-0.982,0.391-1.422,0.805c-0.437,0.414-0.654,0.881-0.654,1.403v11.456c0,0.644,0.272,1.195,0.818,1.656
		c0.548,0.458,1.185,0.69,1.914,0.69h21.862v6.854H1155.045z"/>
	<path fill="#FFFFFF" d="M1185.108,237.947v-6.9h35.473v6.9h-13.664v23.002h-8.199v-23.002H1185.108z"/>
</g>
<g>
	<path fill="#FFFFFF" d="M834.879,325.923c-2.462,0-4.579-0.878-6.353-2.634c-1.772-1.758-2.656-3.868-2.656-6.331V296.64h6.757
		v20.274c0,0.629,0.225,1.171,0.677,1.621c0.451,0.452,0.975,0.677,1.575,0.677h18.022v6.712H834.879z"/>
	<path fill="#FFFFFF" d="M866.89,318.197c0.316,0.375,0.668,0.653,1.06,0.833c0.118,0.061,0.24,0.106,0.358,0.137
		c0.121,0.029,0.241,0.045,0.361,0.045h18.021v6.712h-18.021c-2.462,0-4.579-0.88-6.353-2.64c-1.772-1.76-2.656-3.873-2.656-6.34
		c0-2.375,0-4.27,0-5.684c0-1.293,0-2.497,0-3.61c0-1.113,0-1.774,0-1.985c0-2.496,0.884-4.625,2.656-6.384
		c1.773-1.76,3.891-2.64,6.353-2.64l17.751-0.045v6.802h-17.751c-0.602,0.031-1.126,0.264-1.577,0.698
		c-0.45,0.437-0.675,0.969-0.675,1.6v2.208h19.147v6.757h-19.147v2.253C866.417,317.395,866.574,317.822,866.89,318.197z"/>
	<path fill="#FFFFFF" d="M893.448,303.397v-6.757h29.238v6.757h-11.264v22.526h-6.758v-22.526H893.448z"/>
	<path fill="#FFFFFF" d="M977.921,325.923v-22.526h-4.507c-0.028,0.031-0.067,0.045-0.112,0.045c-0.044,0-0.082,0-0.113,0
		c-0.51,0.061-0.976,0.3-1.396,0.721c-0.421,0.42-0.63,0.931-0.63,1.531v20.229h-6.759v-20.304c0-2.466,0.886-4.58,2.658-6.339
		c1.773-1.76,3.891-2.64,6.352-2.64l15.77-0.045c2.493,0.03,4.618,0.925,6.376,2.685c1.755,1.76,2.634,3.889,2.634,6.384v20.259
		h-6.756v-20.314c0-0.601-0.22-1.121-0.655-1.557c-0.436-0.437-0.969-0.655-1.599-0.655h-4.506v22.526H977.921z"/>
	<path fill="#FFFFFF" d="M1012.183,318.197c0.315,0.375,0.667,0.653,1.058,0.833c0.121,0.061,0.241,0.106,0.36,0.137
		c0.12,0.029,0.24,0.045,0.361,0.045h18.021v6.712h-18.021c-2.463,0-4.581-0.88-6.353-2.64c-1.772-1.76-2.659-3.873-2.659-6.34
		c0-2.375,0-4.27,0-5.684c0-1.293,0-2.497,0-3.61c0-1.113,0-1.774,0-1.985c0-2.496,0.887-4.625,2.659-6.384
		c1.771-1.76,3.89-2.64,6.353-2.64l17.749-0.045v6.802h-17.749c-0.601,0.031-1.127,0.264-1.578,0.698
		c-0.451,0.437-0.676,0.969-0.676,1.6v2.208h19.147v6.757h-19.147v2.253C1011.708,317.395,1011.866,317.822,1012.183,318.197z"/>
	<path fill="#FFFFFF" d="M1073.656,303.397v-6.757h29.239v6.757h-11.263v22.526h-6.759v-22.526H1073.656z"/>
	<path fill="#FFFFFF" d="M1136.909,298.667c0.721-0.69,1.479-1.201,2.276-1.532c0.794-0.33,1.674-0.496,2.634-0.496
		c1.861,0,3.454,0.663,4.776,1.985c1.321,1.324,1.98,2.918,1.98,4.782v22.516h-6.757V314.66h-11.264l-11.263,11.263h-9.597
		L1136.909,298.667z M1141.527,304.975c-0.195-0.15-0.428-0.225-0.699-0.225c-0.03,0-0.052-0.008-0.067-0.023
		c-0.015-0.015-0.022-0.037-0.022-0.067c0-0.03,0-0.052,0-0.067s0-0.037,0-0.067c-0.15,0.121-0.345,0.301-0.585,0.54l-2.84,2.839
		h4.506v-2.252C1141.819,305.35,1141.721,305.125,1141.527,304.975z"/>
	<path fill="#FFFFFF" d="M1164.346,325.923c-2.464,0-4.58-0.878-6.353-2.634c-1.771-1.758-2.657-3.868-2.657-6.331V296.64h6.758
		v20.274c0,0.629,0.225,1.171,0.675,1.621c0.451,0.452,0.978,0.677,1.577,0.677h18.02v6.712H1164.346z"/>
	<path fill="#FFFFFF" d="M1195.884,325.923h-6.76V296.64h6.76v11.263h13.514c0.632,0.029,1.165-0.18,1.6-0.632
		c0.436-0.45,0.653-0.975,0.653-1.576v-9.055h6.76v9.011c0,0.781-0.099,1.532-0.294,2.252c-0.196,0.721-0.459,1.412-0.788,2.072
		c1.019,0.841,1.831,1.864,2.433,3.064c0.599,1.201,0.9,2.508,0.9,3.919v8.965h-6.757v-9.046c0-0.603-0.22-1.124-0.654-1.561
		c-0.437-0.437-0.969-0.656-1.6-0.656h-15.767V325.923z"/>
</g>
<g>
	<path fill="#FFFFFF" d="M968.897,363.688h21.896c2.423,0.029,4.489,0.897,6.197,2.605s2.562,3.773,2.562,6.197v19.664h-6.569
		v-19.708c0-0.553-0.204-1.035-0.614-1.444c-0.408-0.408-0.86-0.642-1.357-0.701c-0.027,0-0.064,0-0.108,0s-0.08,0-0.109,0h-15.328
		v21.853h-6.568V363.688z"/>
	<path fill="#FFFFFF" d="M1008.749,389.587c-1.724-1.711-2.584-3.764-2.584-6.163c0-2.309,0-4.151,0-5.526c0-1.257,0-2.425,0-3.509
		c0-1.082,0-1.725,0-1.929c0-2.427,0.86-4.495,2.584-6.207c1.722-1.711,3.78-2.566,6.176-2.566l15.327-0.043
		c2.422,0.029,4.488,0.898,6.195,2.609c1.708,1.711,2.563,3.78,2.563,6.207c0,0.205,0,0.848,0,1.929c0,1.083,0,2.251,0,3.509
		c0,1.375,0,3.217,0,5.526c0,2.399-0.855,4.452-2.563,6.163c-1.707,1.71-3.773,2.566-6.195,2.566h-15.327
		C1012.529,392.154,1010.471,391.297,1008.749,389.587z M1031.806,384.95c0.424-0.423,0.636-0.927,0.636-1.511v-10.993
		c0-0.495-0.19-0.941-0.569-1.334c-0.381-0.395-0.788-0.649-1.227-0.767c-0.058,0-0.124-0.006-0.196-0.022
		c-0.074-0.014-0.139-0.021-0.197-0.021h-15.327c-0.118,0.03-0.264,0.08-0.438,0.152c-0.176,0.073-0.351,0.167-0.526,0.283
		c-0.321,0.175-0.606,0.422-0.854,0.74c-0.249,0.319-0.373,0.668-0.373,1.045v10.843c0,0.58,0.205,1.073,0.613,1.479
		s0.861,0.654,1.357,0.74c0.029,0,0.066,0,0.11,0s0.08,0,0.11,0h15.327C1030.864,385.584,1031.383,385.374,1031.806,384.95z"/>
	<path fill="#FFFFFF" d="M1079.519,363.688h21.896c2.424,0.029,4.489,0.897,6.197,2.605s2.562,3.773,2.562,6.197
		c0,0.205,0,0.847,0,1.927s0,2.249,0,3.503c0,1.373,0,3.212,0,5.519c0,2.395-0.854,4.445-2.562,6.153
		c-1.708,1.708-3.773,2.562-6.197,2.562h-21.896V363.688z M1101.415,385.584c0.613,0.029,1.131-0.176,1.555-0.613
		c0.423-0.438,0.635-0.948,0.635-1.532v-10.993c0-0.495-0.19-0.941-0.568-1.334c-0.381-0.395-0.789-0.649-1.228-0.767
		c-0.059,0-0.124-0.006-0.196-0.022c-0.073-0.014-0.14-0.021-0.197-0.021h-15.328v15.284H1101.415z"/>
	<path fill="#FFFFFF" d="M1123.771,384.643c0.307,0.366,0.65,0.636,1.028,0.812c0.118,0.058,0.234,0.103,0.352,0.13
		c0.116,0.029,0.232,0.044,0.35,0.044h17.518v6.525h-17.518c-2.394,0-4.452-0.856-6.174-2.566c-1.724-1.711-2.585-3.764-2.585-6.163
		c0-2.309,0-4.151,0-5.526c0-1.257,0-2.425,0-3.509c0-1.082,0-1.725,0-1.929c0-2.427,0.861-4.495,2.585-6.207
		c1.722-1.711,3.78-2.566,6.174-2.566l17.256-0.043v6.613h-17.256c-0.583,0.029-1.095,0.255-1.532,0.678
		c-0.438,0.424-0.656,0.942-0.656,1.555v2.146h18.611v6.568h-18.611v2.189C1123.312,383.863,1123.466,384.279,1123.771,384.643z"/>
	<path fill="#FFFFFF" d="M1176.04,365.659c0.701-0.671,1.437-1.167,2.211-1.489c0.772-0.321,1.628-0.482,2.562-0.482
		c1.809,0,3.356,0.644,4.642,1.93c1.284,1.286,1.928,2.837,1.928,4.649v21.886h-6.569v-10.949h-10.949l-10.948,10.949h-9.328
		L1176.04,365.659z M1180.528,371.79c-0.189-0.146-0.416-0.219-0.679-0.219c-0.03,0-0.052-0.006-0.066-0.022
		c-0.015-0.014-0.021-0.036-0.021-0.065s0-0.051,0-0.066c0-0.013,0-0.036,0-0.065c-0.146,0.117-0.335,0.292-0.568,0.525l-2.76,2.759
		h4.38v-2.191C1180.813,372.155,1180.718,371.936,1180.528,371.79z"/>
	<path fill="#FFFFFF" d="M1202.71,392.154c-2.395,0-4.453-0.854-6.176-2.562c-1.723-1.708-2.584-3.758-2.584-6.153v-19.751h6.569
		v19.707c0,0.613,0.219,1.139,0.657,1.577c0.438,0.438,0.948,0.658,1.533,0.658h17.518v6.525H1202.71z"/>
</g>
<g>
	<path fill="#FFFFFF" d="M927.093,454.304h4.867c0.68,0.033,1.255-0.195,1.727-0.681c0.469-0.488,0.704-1.054,0.704-1.704v-21.943
		h7.299v21.896c0,2.692-0.949,4.985-2.845,6.884c-1.898,1.896-4.193,2.846-6.885,2.846h-17.029c-2.661,0-4.947-0.95-6.859-2.846
		c-1.914-1.899-2.871-4.177-2.871-6.836v-21.943h7.298v21.851c0,0.647,0.228,1.199,0.682,1.65c0.453,0.454,0.956,0.729,1.509,0.827
		c0.031,0,0.072,0,0.12,0c0.05,0,0.089,0,0.122,0h4.864v-24.328h7.298V454.304z"/>
	<path fill="#FFFFFF" d="M956.285,449.438v12.163h-7.3v-31.625h7.3v12.163h17.027v-12.163h7.299v31.625h-7.299v-12.163H956.285z"/>
	<path fill="#FFFFFF" d="M1002.506,461.602v-12.163h-4.867c-2.658,0.032-4.946-0.908-6.858-2.822
		c-1.916-1.913-2.871-4.2-2.871-6.858v-9.781h7.298v9.731c0,0.65,0.226,1.202,0.682,1.654c0.453,0.454,0.956,0.73,1.507,0.828
		c0.033,0,0.074,0,0.121,0c0.05,0,0.09,0,0.122,0h17.03c0.679,0.034,1.254-0.196,1.727-0.683c0.468-0.489,0.705-1.06,0.705-1.711
		v-9.818h7.299v9.708c0,2.685-0.951,4.983-2.848,6.892c-1.896,1.908-4.193,2.862-6.883,2.862h-4.867v12.163H1002.506z"/>
	<path fill="#FFFFFF" d="M1069.399,439.674c0-2.663,0.957-4.946,2.871-6.846c1.913-1.901,4.2-2.852,6.86-2.852l14.595-0.047
		c2.693,0.032,4.988,0.997,6.884,2.898c1.899,1.9,2.848,4.199,2.848,6.895v21.879h-7.299v-21.894c0-0.615-0.227-1.15-0.68-1.605
		c-0.455-0.453-0.958-0.714-1.51-0.778c-0.032,0-0.073,0-0.12,0c-0.048,0-0.091,0-0.123,0h-14.595
		c-0.648,0.032-1.217,0.283-1.703,0.753c-0.487,0.469-0.728,1.044-0.728,1.722v21.802h-7.301V439.674z"/>
	<path fill="#FFFFFF" d="M1113.674,458.751c-1.915-1.901-2.871-4.184-2.871-6.846c0-2.565,0-4.613,0-6.141c0-1.397,0-2.696,0-3.897
		c0-1.203,0-1.917,0-2.145c0-2.696,0.956-4.995,2.871-6.895c1.913-1.901,4.2-2.852,6.858-2.852l17.029-0.047
		c2.691,0.032,4.987,0.997,6.885,2.898c1.897,1.9,2.846,4.199,2.846,6.895c0,0.228,0,0.942,0,2.145c0,1.202,0,2.5,0,3.897
		c0,1.528,0,3.575,0,6.141c0,2.663-0.948,4.945-2.846,6.846c-1.897,1.9-4.193,2.85-6.885,2.85h-17.029
		C1117.874,461.602,1115.587,460.651,1113.674,458.751z M1139.289,453.599c0.468-0.471,0.704-1.029,0.704-1.679v-12.212
		c0-0.551-0.21-1.046-0.631-1.483c-0.424-0.438-0.876-0.722-1.362-0.851c-0.065,0-0.139-0.007-0.22-0.024
		c-0.082-0.017-0.154-0.025-0.219-0.025h-17.029c-0.13,0.032-0.29,0.089-0.484,0.169s-0.389,0.186-0.586,0.314
		c-0.357,0.194-0.671,0.468-0.947,0.822c-0.276,0.355-0.413,0.742-0.413,1.161v12.045c0,0.646,0.226,1.193,0.68,1.646
		c0.454,0.451,0.957,0.725,1.509,0.822c0.033,0,0.073,0,0.122,0c0.048,0,0.089,0,0.12,0h17.029
		C1138.241,454.304,1138.816,454.069,1139.289,453.599z"/>
	<path fill="#FFFFFF" d="M1154.59,437.275v-7.299h31.574v7.299h-12.163v24.326h-7.296v-24.326H1154.59z"/>
	<path fill="#FFFFFF" d="M1212.243,441.459c0.484-0.486,0.729-1.053,0.729-1.701c0-0.682-0.235-1.257-0.707-1.728
		c-0.47-0.469-1.045-0.706-1.726-0.706h-17.028v-7.348h17.028c2.692,0.035,4.986,0.999,6.884,2.896
		c1.899,1.897,2.848,4.192,2.848,6.885c0,2.658-0.948,4.946-2.848,6.858c-1.897,1.914-4.191,2.871-6.884,2.871
		c-0.584,0-1.103,0.236-1.557,0.704c-0.455,0.472-0.682,1.047-0.682,1.728l-7.299-0.047c0-2.667,0.949-4.956,2.849-6.866
		c1.896-1.91,4.125-2.867,6.688-2.867C1211.189,442.173,1211.756,441.947,1212.243,441.459z M1201.003,461.602v-7.297h7.299v7.297
		H1201.003z"/>
</g>
<g>
	<path fill="#FFFFFF" d="M1005.688,500.949h-25.943c-0.127,0.033-0.287,0.088-0.478,0.168c-0.192,0.08-0.383,0.184-0.573,0.311
		c-0.35,0.191-0.662,0.463-0.932,0.812c-0.271,0.352-0.405,0.733-0.405,1.147v11.896c0,0.639,0.222,1.18,0.668,1.625
		c0.446,0.447,0.938,0.717,1.48,0.812c0.032,0,0.072,0,0.121,0c0.046,0,0.088,0,0.118,0h16.723c0.669,0.031,1.234-0.193,1.695-0.676
		c0.463-0.482,0.694-1.047,0.694-1.689c0-0.676-0.231-1.246-0.694-1.712c-0.461-0.468-1.026-0.7-1.695-0.7h-11.944v-7.216
		c3.79,0,6.816,0,9.077,0c0.479,0,0.958,0,1.434,0c0.478,0,0.956,0,1.434,0c2.645,0,4.897,0.935,6.761,2.803
		c1.864,1.868,2.795,4.127,2.795,6.778c0,2.617-0.931,4.861-2.795,6.729c-1.863,1.866-4.116,2.802-6.761,2.802h-16.723
		c-2.612,0-4.857-0.932-6.736-2.795c-1.88-1.863-2.819-4.102-2.819-6.713c0-2.516,0-4.523,0-6.021c0-1.369,0-2.643,0-3.82
		c0-1.179,0-1.88,0-2.103c0-2.644,0.939-4.898,2.819-6.762c1.879-1.863,4.124-2.795,6.736-2.795l25.943-0.048V500.949z"/>
	<path fill="#FFFFFF" d="M1013.189,524.84v-31.057h7.167v31.057H1013.189z"/>
	<path fill="#FFFFFF" d="M1068.757,493.783l-28.858,28.859c-0.799,0.797-1.609,1.361-2.437,1.695
		c-0.831,0.334-1.754,0.502-2.772,0.502c-1.943,0-3.625-0.701-5.041-2.103c-1.417-1.4-2.126-3.073-2.126-5.017v-23.938h7.167v21.5
		c0,0.352,0.104,0.614,0.312,0.788c0.206,0.176,0.437,0.265,0.691,0.265c0.064,0,0.096,0.007,0.096,0.023c0,0.016,0,0.055,0,0.118
		c0,0.032,0,0.065,0,0.097s0.04,0.008,0.121-0.072c0.078-0.08,0.246-0.246,0.501-0.501l22.169-22.218H1068.757z"/>
	<path fill="#FFFFFF" d="M1083.592,516.646c0.335,0.398,0.708,0.691,1.122,0.883c0.127,0.064,0.255,0.112,0.383,0.144
		c0.126,0.032,0.255,0.048,0.383,0.048h19.11v7.119h-19.11c-2.612,0-4.858-0.934-6.738-2.799c-1.88-1.867-2.818-4.108-2.818-6.725
		c0-2.52,0-4.529,0-6.029c0-1.371,0-2.647,0-3.828c0-1.18,0-1.883,0-2.105c0-2.646,0.938-4.904,2.818-6.771
		c1.88-1.866,4.126-2.799,6.738-2.799l18.824-0.048v7.214h-18.824c-0.639,0.033-1.194,0.279-1.673,0.742
		c-0.478,0.461-0.717,1.027-0.717,1.696v2.34h20.307v7.167h-20.307v2.389C1083.09,515.793,1083.259,516.247,1083.592,516.646z"/>
	<path fill="#FFFFFF" d="M1163.12,524.84v-23.891h-4.78c-0.03,0.033-0.071,0.049-0.117,0.049c-0.05,0-0.088,0-0.121,0
		c-0.541,0.063-1.033,0.318-1.481,0.764c-0.445,0.446-0.668,0.988-0.668,1.626v21.452h-7.167v-21.533
		c0-2.616,0.939-4.857,2.819-6.725c1.878-1.866,4.123-2.799,6.735-2.799l16.724-0.048c2.644,0.031,4.896,0.98,6.761,2.847
		c1.864,1.867,2.796,4.125,2.796,6.771v21.486h-7.168v-21.543c0-0.639-0.231-1.189-0.691-1.652
		c-0.464-0.463-1.028-0.695-1.697-0.695h-4.778v23.891H1163.12z"/>
	<path fill="#FFFFFF" d="M1199.455,516.646c0.334,0.398,0.708,0.691,1.122,0.883c0.126,0.064,0.255,0.112,0.383,0.144
		c0.126,0.032,0.254,0.048,0.382,0.048h19.112v7.119h-19.112c-2.612,0-4.857-0.934-6.737-2.799c-1.88-1.867-2.819-4.108-2.819-6.725
		c0-2.52,0-4.529,0-6.029c0-1.371,0-2.647,0-3.828c0-1.18,0-1.883,0-2.105c0-2.646,0.939-4.904,2.819-6.771
		c1.88-1.866,4.125-2.799,6.737-2.799l18.825-0.048v7.214h-18.825c-0.639,0.033-1.195,0.279-1.672,0.742
		c-0.478,0.461-0.717,1.027-0.717,1.696v2.34h20.307v7.167h-20.307v2.389C1198.953,515.793,1199.121,516.247,1199.455,516.646z"/>
</g>
<g>
	<path fill="#FFFFFF" d="M804.481,567.895c0-2.5,0.898-4.643,2.695-6.427c1.795-1.784,3.941-2.676,6.439-2.676l13.699-0.044
		c2.526,0.029,4.681,0.936,6.462,2.72c1.779,1.784,2.671,3.942,2.671,6.472v20.536h-6.851v-20.549c0-0.58-0.213-1.082-0.639-1.507
		c-0.427-0.426-0.899-0.67-1.415-0.73c-0.03,0-0.068,0-0.114,0c-0.045,0-0.086,0-0.114,0h-13.699
		c-0.61,0.028-1.144,0.265-1.599,0.705c-0.458,0.441-0.686,0.98-0.686,1.617v20.464h-6.851V567.895z"/>
	<path fill="#FFFFFF" d="M846.038,585.8c-1.797-1.784-2.694-3.926-2.694-6.425c0-2.409,0-4.329,0-5.764c0-1.311,0-2.531,0-3.659
		s0-1.8,0-2.013c0-2.529,0.897-4.688,2.694-6.472s3.942-2.676,6.439-2.676l15.981-0.044c2.528,0.029,4.683,0.936,6.462,2.72
		c1.782,1.784,2.673,3.942,2.673,6.472c0,0.213,0,0.885,0,2.013s0,2.349,0,3.659c0,1.435,0,3.354,0,5.764
		c0,2.499-0.891,4.641-2.673,6.425c-1.779,1.784-3.934,2.676-6.462,2.676h-15.981C849.98,588.476,847.835,587.584,846.038,585.8z
		 M870.081,580.964c0.441-0.441,0.662-0.967,0.662-1.576v-11.461c0-0.519-0.198-0.982-0.594-1.395
		c-0.396-0.409-0.821-0.677-1.278-0.799c-0.062,0-0.13-0.008-0.204-0.022c-0.078-0.014-0.146-0.021-0.208-0.021h-15.981
		c-0.122,0.028-0.274,0.081-0.457,0.158c-0.184,0.075-0.365,0.174-0.548,0.295c-0.335,0.182-0.633,0.439-0.892,0.771
		c-0.258,0.332-0.388,0.696-0.388,1.089v11.306c0,0.607,0.213,1.121,0.64,1.545s0.898,0.681,1.416,0.772c0.028,0,0.068,0,0.114,0
		s0.084,0,0.114,0h15.981C869.1,581.626,869.64,581.405,870.081,580.964z"/>
	<path fill="#FFFFFF" d="M926.683,588.476h-6.849v-29.684h22.833c2.525,0.032,4.681,0.942,6.462,2.735
		c1.781,1.789,2.672,3.946,2.672,6.467c0,2.49-0.891,4.625-2.672,6.4c-1.781,1.777-3.937,2.663-6.462,2.663c-0.822,0-1.88,0-3.175,0
		c-1.294,0-2.641,0-4.04,0c-2.192,0-5.114,0-8.77,0V588.476z M926.683,570.209h15.984c0.608,0.032,1.142-0.185,1.599-0.646
		c0.455-0.462,0.684-1.001,0.684-1.615c0-0.644-0.222-1.19-0.662-1.637c-0.442-0.445-0.982-0.67-1.62-0.67h-15.984V570.209z"/>
	<path fill="#FFFFFF" d="M962.188,558.838c2.358,0,4.955,0,7.785,0c2.437,0,4.728,0,6.874,0s3.523,0,4.133,0
		c2.527,0,4.681,0.891,6.461,2.672c1.782,1.781,2.673,3.936,2.673,6.462c0,1.035-0.152,2.018-0.457,2.946
		c-0.306,0.928-0.702,1.787-1.188,2.579c0.7,0.792,1.231,1.69,1.599,2.694c0.366,1.006,0.547,2.069,0.547,3.196v9.088h-6.85v-9.132
		c0-0.55-0.189-1.035-0.57-1.463c-0.381-0.426-0.83-0.684-1.347-0.775c-0.062,0-0.937,0-2.627,0s-3.54,0-5.549,0
		c-2.04,0-4.764,0-8.173,0v11.416h-6.852v-29.729C958.648,558.824,959.829,558.838,962.188,558.838z M965.5,565.642v4.567h15.709
		c0.609,0.032,1.142-0.185,1.599-0.646c0.456-0.462,0.685-1.001,0.685-1.615c0-0.644-0.229-1.19-0.685-1.637
		c-0.457-0.445-0.989-0.67-1.599-0.67H965.5z"/>
	<path fill="#FFFFFF" d="M1000.161,585.8c-1.796-1.784-2.694-3.926-2.694-6.425c0-2.409,0-4.329,0-5.764c0-1.311,0-2.531,0-3.659
		s0-1.8,0-2.013c0-2.529,0.898-4.688,2.694-6.472s3.942-2.676,6.438-2.676l15.984-0.044c2.525,0.029,4.681,0.936,6.462,2.72
		s2.671,3.942,2.671,6.472c0,0.213,0,0.885,0,2.013s0,2.349,0,3.659c0,1.435,0,3.354,0,5.764c0,2.499-0.89,4.641-2.671,6.425
		s-3.937,2.676-6.462,2.676h-15.984C1004.104,588.476,1001.957,587.584,1000.161,585.8z M1024.203,580.964
		c0.44-0.441,0.662-0.967,0.662-1.576v-11.461c0-0.519-0.198-0.982-0.592-1.395c-0.396-0.409-0.822-0.677-1.279-0.799
		c-0.061,0-0.131-0.008-0.207-0.022c-0.074-0.014-0.143-0.021-0.204-0.021h-15.984c-0.122,0.028-0.273,0.081-0.454,0.158
		c-0.185,0.075-0.367,0.174-0.551,0.295c-0.335,0.182-0.631,0.439-0.889,0.771c-0.26,0.332-0.388,0.696-0.388,1.089v11.306
		c0,0.607,0.211,1.121,0.638,1.545c0.426,0.424,0.897,0.681,1.416,0.772c0.03,0,0.068,0,0.114,0s0.083,0,0.113,0h15.984
		C1023.221,581.626,1023.761,581.405,1024.203,580.964z"/>
	<path fill="#FFFFFF" d="M1038.564,558.792c0,0.032,1.18,0.046,3.539,0.046s4.956,0,7.786,0c2.437,0,4.728,0,6.872,0
		c2.148,0,3.523,0,4.135,0c2.525,0,4.68,0.891,6.461,2.672c1.782,1.781,2.671,3.936,2.671,6.462c0,1.035-0.159,2.018-0.479,2.946
		c-0.317,0.928-0.782,1.787-1.392,2.579c0.7,0.792,1.271,1.69,1.712,2.694c0.441,1.006,0.662,2.069,0.662,3.196
		c0,2.497-0.891,4.636-2.671,6.417c-1.782,1.78-3.936,2.671-6.462,2.671c-0.609,0-2.01,0-4.202,0s-4.551,0-7.079,0
		c-2.891,0-6.743,0-11.553,0V558.792z M1063.682,579.344c0-0.609-0.222-1.135-0.661-1.576c-0.443-0.441-0.982-0.662-1.622-0.662
		h-16.029l0.046,4.521h15.983c0.64,0.031,1.179-0.183,1.622-0.638c0.439-0.458,0.661-0.991,0.661-1.601V579.344z M1045.415,565.642
		v4.567h15.708c0.609,0.032,1.144-0.185,1.599-0.646c0.457-0.462,0.686-1.001,0.686-1.615c0-0.644-0.229-1.19-0.686-1.637
		c-0.455-0.445-0.989-0.67-1.599-0.67H1045.415z"/>
	<path fill="#FFFFFF" d="M1086.515,588.476c-2.497,0-4.642-0.891-6.438-2.671c-1.798-1.781-2.695-3.92-2.695-6.417v-20.596h6.85
		v20.552c0,0.638,0.229,1.187,0.685,1.645c0.457,0.455,0.989,0.682,1.599,0.682h18.266v6.806H1086.515z"/>
	<path fill="#FFFFFF" d="M1118.96,580.644c0.32,0.382,0.678,0.662,1.074,0.846c0.121,0.061,0.241,0.106,0.365,0.137
		c0.12,0.031,0.243,0.044,0.365,0.044h18.266v6.806h-18.266c-2.497,0-4.645-0.892-6.438-2.676c-1.797-1.784-2.695-3.926-2.695-6.425
		c0-2.409,0-4.329,0-5.764c0-1.311,0-2.531,0-3.659s0-1.8,0-2.013c0-2.529,0.898-4.688,2.695-6.472
		c1.794-1.784,3.941-2.676,6.438-2.676l17.991-0.044v6.894h-17.991c-0.609,0.032-1.144,0.269-1.599,0.708
		c-0.457,0.442-0.685,0.982-0.685,1.622v2.237h19.408v6.849h-19.408v2.286C1118.481,579.829,1118.641,580.264,1118.96,580.644z"/>
	<path fill="#FFFFFF" d="M1159.58,588.476v-22.834h-4.566c-0.029,0.032-0.069,0.048-0.113,0.048c-0.047,0-0.086,0-0.115,0
		c-0.518,0.061-0.988,0.305-1.417,0.73c-0.425,0.425-0.638,0.942-0.638,1.552v20.504h-6.85v-20.581c0-2.5,0.896-4.643,2.693-6.427
		c1.796-1.784,3.943-2.676,6.439-2.676l15.982-0.044c2.528,0.029,4.682,0.936,6.462,2.72c1.782,1.784,2.673,3.942,2.673,6.472
		v20.536h-6.852v-20.591c0-0.609-0.221-1.136-0.661-1.578c-0.441-0.441-0.981-0.665-1.622-0.665h-4.565v22.834H1159.58z"/>
	<path fill="#FFFFFF" d="M1189.674,585.8c-1.797-1.784-2.695-3.926-2.695-6.425c0-2.409,0-4.329,0-5.764c0-1.311,0-2.531,0-3.659
		s0-1.8,0-2.013c0-2.529,0.898-4.688,2.695-6.472c1.795-1.784,3.941-2.676,6.439-2.676l15.981-0.044
		c2.528,0.029,4.682,0.936,6.462,2.72c1.781,1.784,2.672,3.942,2.672,6.472c0,0.213,0,0.885,0,2.013s0,2.349,0,3.659
		c0,1.435,0,3.354,0,5.764c0,2.499-0.891,4.641-2.672,6.425c-1.78,1.784-3.934,2.676-6.462,2.676h-15.981
		C1193.615,588.476,1191.469,587.584,1189.674,585.8z M1213.717,580.964c0.441-0.441,0.662-0.967,0.662-1.576v-11.461
		c0-0.519-0.198-0.982-0.594-1.395c-0.396-0.409-0.822-0.677-1.279-0.799c-0.062,0-0.13-0.008-0.205-0.022
		c-0.077-0.014-0.146-0.021-0.206-0.021h-15.981c-0.122,0.028-0.274,0.081-0.458,0.158c-0.183,0.075-0.365,0.174-0.547,0.295
		c-0.336,0.182-0.634,0.439-0.892,0.771c-0.259,0.332-0.388,0.696-0.388,1.089v11.306c0,0.607,0.213,1.121,0.639,1.545
		c0.427,0.424,0.898,0.681,1.416,0.772c0.03,0,0.068,0,0.114,0s0.084,0,0.115,0h15.981
		C1212.736,581.626,1213.275,581.405,1213.717,580.964z"/>
</g>
<g>
	<path fill="#FFFFFF" d="M909.978,648.496v7.396H880.39v-32.055h29.292v7.397h-21.896v4.933h20.959v7.396h-20.959v4.932H909.978z"/>
	<path fill="#FFFFFF" d="M927.113,643.612c-0.049,0-0.09,0-0.122,0c-0.56,0.067-1.069,0.33-1.529,0.791
		c-0.461,0.46-0.689,1.018-0.689,1.677v9.812h-7.398v-9.864c0-1.149,0.189-2.251,0.568-3.304c0.377-1.052,0.912-1.988,1.603-2.809
		c-0.69-0.857-1.226-1.809-1.603-2.861c-0.379-1.052-0.568-2.153-0.568-3.303v-9.914h7.398v9.862c0,0.658,0.229,1.216,0.689,1.677
		c0.46,0.46,0.97,0.741,1.529,0.839c0.032,0,0.073,0,0.122,0c0.05,0,0.092,0,0.123,0h17.262c0.689,0.034,1.273-0.198,1.751-0.692
		c0.476-0.494,0.714-1.073,0.714-1.735v-9.95h7.397v9.862c0,1.184-0.188,2.303-0.567,3.354c-0.378,1.053-0.929,2.004-1.651,2.861
		c0.723,0.82,1.273,1.757,1.651,2.809c0.379,1.053,0.567,2.169,0.567,3.355v9.812h-7.397v-9.903c0-0.66-0.238-1.23-0.714-1.709
		c-0.478-0.476-1.062-0.716-1.751-0.716h-17.262C927.205,643.597,927.163,643.612,927.113,643.612z"/>
	<path fill="#FFFFFF" d="M971.62,655.893c-2.697,0-5.015-0.964-6.953-2.889c-1.941-1.928-2.91-4.24-2.91-6.941
		c0-2.6,0-4.674,0-6.223c0-1.416,0-2.733,0-3.95c0-1.22,0-1.942,0-2.175c0-2.73,0.969-5.061,2.91-6.987
		c1.938-1.926,4.256-2.89,6.953-2.89l19.726-0.048v7.445H971.62c-0.1,0.033-0.198,0.058-0.296,0.073
		c-0.099,0.018-0.198,0.042-0.296,0.076c-0.461,0.131-0.888,0.418-1.283,0.86c-0.395,0.445-0.592,0.945-0.592,1.507v12.276
		c0,0.692,0.247,1.284,0.74,1.775c0.492,0.494,1.067,0.74,1.727,0.74h19.726v7.349H971.62z"/>
	<path fill="#FFFFFF" d="M1006.657,647.435c0.344,0.412,0.73,0.717,1.157,0.912c0.131,0.066,0.265,0.115,0.395,0.149
		c0.132,0.033,0.263,0.048,0.396,0.048h19.726v7.349h-19.726c-2.696,0-5.015-0.964-6.953-2.889c-1.941-1.928-2.909-4.24-2.909-6.941
		c0-2.6,0-4.674,0-6.223c0-1.416,0-2.733,0-3.95c0-1.22,0-1.942,0-2.175c0-2.73,0.968-5.061,2.909-6.987
		c1.938-1.926,4.257-2.89,6.953-2.89l19.43-0.048v7.445h-19.43c-0.659,0.033-1.233,0.289-1.727,0.765
		c-0.492,0.477-0.739,1.059-0.739,1.752v2.416h20.959v7.396h-20.959v2.464C1006.139,646.556,1006.311,647.022,1006.657,647.435z"/>
	<path fill="#FFFFFF" d="M1045.589,655.893c-2.696,0-5.014-0.96-6.953-2.886c-1.939-1.922-2.909-4.233-2.909-6.927v-22.242h7.398
		v22.19c0,0.692,0.245,1.284,0.738,1.775c0.493,0.494,1.068,0.74,1.726,0.74h19.726v7.349H1045.589z"/>
	<path fill="#FFFFFF" d="M1082.575,655.893c-2.696,0-5.015-0.96-6.952-2.886c-1.941-1.922-2.911-4.233-2.911-6.927v-22.242h7.397
		v22.19c0,0.692,0.247,1.284,0.739,1.775c0.492,0.494,1.068,0.74,1.727,0.74h19.726v7.349H1082.575z"/>
	<path fill="#FFFFFF" d="M1117.612,647.435c0.345,0.412,0.73,0.717,1.158,0.912c0.13,0.066,0.263,0.115,0.395,0.149
		c0.131,0.033,0.262,0.048,0.396,0.048h19.725v7.349h-19.725c-2.696,0-5.016-0.964-6.953-2.889c-1.941-1.928-2.911-4.24-2.911-6.941
		c0-2.6,0-4.674,0-6.223c0-1.416,0-2.733,0-3.95c0-1.22,0-1.942,0-2.175c0-2.73,0.97-5.061,2.911-6.987
		c1.938-1.926,4.257-2.89,6.953-2.89l19.429-0.048v7.445h-19.429c-0.66,0.033-1.234,0.289-1.728,0.765
		c-0.492,0.477-0.739,1.059-0.739,1.752v2.416h20.959v7.396h-20.959v2.464C1117.094,646.556,1117.267,647.022,1117.612,647.435z"/>
	<path fill="#FFFFFF" d="M1146.682,633.666c0-2.699,0.97-5.012,2.91-6.938c1.939-1.926,4.257-2.89,6.953-2.89l14.795-0.048
		c2.728,0.033,5.054,1.012,6.977,2.938c1.923,1.927,2.886,4.257,2.886,6.987v22.178h-7.396V633.7c0-0.622-0.23-1.166-0.691-1.627
		c-0.46-0.46-0.97-0.723-1.527-0.789c-0.034,0-0.075,0-0.124,0c-0.05,0-0.092,0-0.123,0h-14.795
		c-0.658,0.033-1.232,0.286-1.726,0.763c-0.494,0.476-0.739,1.058-0.739,1.747v22.099h-7.398V633.666z"/>
	<path fill="#FFFFFF" d="M1188.649,631.235v-7.397h32.003v7.397h-12.327v24.657h-7.397v-24.657H1188.649z"/>
</g>
<g>
	<path fill="#FFFFFF" d="M672.236,698.777h-25.684c-0.125,0.032-0.283,0.086-0.472,0.165c-0.188,0.08-0.379,0.183-0.567,0.307
		c-0.349,0.191-0.655,0.458-0.924,0.806c-0.266,0.347-0.401,0.725-0.401,1.135v11.776c0,0.632,0.221,1.167,0.663,1.606
		c0.44,0.443,0.931,0.711,1.466,0.805c0.031,0,0.071,0,0.118,0c0.048,0,0.087,0,0.117,0h16.555c0.661,0.033,1.221-0.19,1.679-0.669
		c0.458-0.478,0.687-1.034,0.687-1.672c0-0.668-0.229-1.233-0.687-1.695s-1.018-0.693-1.679-0.693h-11.823v-7.141
		c3.75,0,6.746,0,8.986,0c0.472,0,0.944,0,1.418,0c0.473,0,0.944,0,1.419,0c2.616,0,4.848,0.924,6.691,2.774
		c1.846,1.849,2.768,4.085,2.768,6.708c0,2.593-0.922,4.813-2.768,6.661c-1.844,1.85-4.075,2.773-6.691,2.773h-16.555
		c-2.585,0-4.809-0.922-6.668-2.765c-1.86-1.846-2.79-4.061-2.79-6.646c0-2.491,0-4.478,0-5.959c0-1.356,0-2.617,0-3.784
		s0-1.861,0-2.081c0-2.616,0.93-4.849,2.79-6.693c1.859-1.844,4.083-2.768,6.668-2.768l25.684-0.045V698.777z"/>
	<path fill="#FFFFFF" d="M687.25,714.314c0.332,0.394,0.702,0.685,1.113,0.874c0.124,0.063,0.249,0.111,0.377,0.143
		c0.126,0.031,0.253,0.046,0.378,0.046h18.919v7.047h-18.919c-2.586,0-4.809-0.924-6.669-2.771c-1.859-1.848-2.79-4.065-2.79-6.656
		c0-2.494,0-4.483,0-5.966c0-1.358,0-2.622,0-3.79c0-1.169,0-1.864,0-2.083c0-2.622,0.931-4.856,2.79-6.704
		c1.86-1.847,4.083-2.771,6.669-2.771l18.634-0.048v7.142h-18.634c-0.631,0.032-1.182,0.276-1.656,0.734
		c-0.472,0.455-0.707,1.016-0.707,1.678v2.317h20.101v7.094h-20.101v2.365C686.755,713.469,686.92,713.919,687.25,714.314z"/>
	<path fill="#FFFFFF" d="M715.131,698.777v-7.094h30.695v7.094h-11.825v23.646h-7.093v-23.646H715.131z"/>
	<path fill="#FFFFFF" d="M803.808,722.424v-11.823h-4.729c-2.586,0.033-4.809-0.883-6.668-2.745c-1.86-1.856-2.79-4.08-2.79-6.666
		v-9.506h7.095v9.458c0,0.632,0.22,1.168,0.66,1.608c0.442,0.441,0.93,0.71,1.468,0.803c0.029,0,0.07,0,0.117,0s0.087,0,0.118,0
		h16.554c0.662,0.033,1.222-0.19,1.679-0.662c0.457-0.476,0.687-1.03,0.687-1.663v-9.544h7.094v9.436
		c0,2.611-0.922,4.844-2.765,6.699c-1.847,1.857-4.079,2.782-6.694,2.782h-4.729v11.823H803.808z"/>
	<path fill="#FFFFFF" d="M834.975,719.653c-1.86-1.848-2.79-4.065-2.79-6.656c0-2.494,0-4.483,0-5.966c0-1.358,0-2.622,0-3.79
		c0-1.169,0-1.864,0-2.083c0-2.622,0.93-4.856,2.79-6.704c1.859-1.847,4.083-2.771,6.668-2.771l16.555-0.048
		c2.615,0.031,4.848,0.972,6.693,2.818c1.843,1.848,2.765,4.082,2.765,6.704c0,0.219,0,0.914,0,2.083c0,1.168,0,2.432,0,3.79
		c0,1.482,0,3.472,0,5.966c0,2.591-0.922,4.809-2.765,6.656c-1.846,1.847-4.078,2.771-6.693,2.771h-16.555
		C839.058,722.424,836.834,721.5,834.975,719.653z M859.876,714.645c0.457-0.458,0.687-1.001,0.687-1.631v-11.872
		c0-0.535-0.207-1.017-0.617-1.441c-0.41-0.427-0.849-0.703-1.324-0.828c-0.062,0-0.133-0.009-0.211-0.025
		c-0.079-0.014-0.151-0.021-0.213-0.021h-16.555c-0.126,0.03-0.282,0.086-0.473,0.163c-0.189,0.079-0.377,0.182-0.567,0.306
		c-0.348,0.189-0.652,0.455-0.921,0.801c-0.27,0.346-0.402,0.721-0.402,1.128v11.71c0,0.627,0.221,1.159,0.66,1.598
		c0.443,0.439,0.931,0.706,1.468,0.801c0.03,0,0.071,0,0.117,0c0.048,0,0.087,0,0.118,0h16.555
		C858.859,715.331,859.418,715.103,859.876,714.645z"/>
	<path fill="#FFFFFF" d="M907.854,712.966c0,2.617-0.92,4.848-2.765,6.693c-1.846,1.843-4.076,2.765-6.693,2.765h-14.188
		c-2.586,0-4.809-0.922-6.669-2.765c-1.86-1.846-2.791-4.061-2.791-6.646v-21.285h7.096v21.237c0,0.632,0.22,1.167,0.661,1.606
		c0.441,0.443,0.93,0.711,1.467,0.805c0.03,0,0.07,0,0.117,0s0.087,0,0.119,0h14.188c0.664,0.033,1.222-0.188,1.679-0.662
		c0.457-0.476,0.687-1.028,0.687-1.659v-21.372h7.093V712.966z"/>
	<path fill="#FFFFFF" d="M918.616,691.729c2.442,0,5.131,0,8.062,0c2.523,0,4.896,0,7.118,0c2.223,0,3.648,0,4.281,0
		c2.615,0,4.846,0.924,6.691,2.768c1.846,1.845,2.768,4.077,2.768,6.693c0,1.072-0.157,2.089-0.473,3.05
		c-0.315,0.963-0.726,1.854-1.23,2.673c0.726,0.82,1.278,1.748,1.655,2.789c0.378,1.042,0.567,2.146,0.567,3.312v9.41h-7.094v-9.458
		c0-0.567-0.198-1.071-0.592-1.515c-0.394-0.44-0.859-0.708-1.396-0.804c-0.064,0-0.97,0-2.72,0c-1.749,0-3.665,0-5.746,0
		c-2.112,0-4.936,0-8.466,0v11.824h-7.093v-30.788C914.951,691.715,916.171,691.729,918.616,691.729z M922.044,698.777v4.729h16.27
		c0.631,0.031,1.183-0.192,1.654-0.669c0.476-0.479,0.711-1.036,0.711-1.673c0-0.668-0.235-1.234-0.711-1.695
		c-0.472-0.462-1.023-0.692-1.654-0.692H922.044z"/>
	<path fill="#FFFFFF" d="M1005.992,722.424v-23.646h-4.73c-0.031,0.032-0.07,0.048-0.118,0.048c-0.045,0-0.087,0-0.118,0
		c-0.536,0.063-1.023,0.314-1.466,0.756c-0.441,0.441-0.662,0.978-0.662,1.608v21.234h-7.095V701.11c0-2.591,0.932-4.809,2.79-6.656
		c1.862-1.847,4.085-2.771,6.669-2.771l16.556-0.048c2.614,0.031,4.848,0.972,6.691,2.818c1.844,1.848,2.766,4.082,2.766,6.704
		v21.266h-7.092V701.1c0-0.633-0.23-1.178-0.688-1.636c-0.456-0.458-1.018-0.687-1.677-0.687h-4.732v23.646H1005.992z"/>
	<path fill="#FFFFFF" d="M1037.158,719.653c-1.858-1.848-2.79-4.065-2.79-6.656c0-2.494,0-4.483,0-5.966c0-1.358,0-2.622,0-3.79
		c0-1.169,0-1.864,0-2.083c0-2.622,0.932-4.856,2.79-6.704c1.861-1.847,4.084-2.771,6.668-2.771l16.556-0.048
		c2.615,0.031,4.848,0.972,6.691,2.818c1.845,1.848,2.767,4.082,2.767,6.704c0,0.219,0,0.914,0,2.083c0,1.168,0,2.432,0,3.79
		c0,1.482,0,3.472,0,5.966c0,2.591-0.922,4.809-2.767,6.656c-1.844,1.847-4.076,2.771-6.691,2.771h-16.556
		C1041.242,722.424,1039.02,721.5,1037.158,719.653z M1062.06,714.645c0.456-0.458,0.686-1.001,0.686-1.631v-11.872
		c0-0.535-0.204-1.017-0.614-1.441c-0.41-0.427-0.852-0.703-1.324-0.828c-0.062,0-0.136-0.009-0.213-0.025
		c-0.078-0.014-0.15-0.021-0.212-0.021h-16.556c-0.124,0.03-0.281,0.086-0.471,0.163c-0.189,0.079-0.379,0.182-0.568,0.306
		c-0.347,0.189-0.654,0.455-0.922,0.801c-0.27,0.346-0.402,0.721-0.402,1.128v11.71c0,0.627,0.22,1.159,0.662,1.598
		c0.441,0.439,0.929,0.706,1.466,0.801c0.031,0,0.072,0,0.119,0c0.048,0,0.087,0,0.116,0h16.556
		C1061.042,715.331,1061.603,715.103,1062.06,714.645z"/>
	<path fill="#FFFFFF" d="M1076.934,698.777v-7.094h30.694v7.094h-11.824v23.646h-7.094v-23.646H1076.934z"/>
	<path fill="#FFFFFF" d="M1121.863,710.601v11.823h-7.093v-30.74h7.093v11.823h16.554v-11.823h7.094v30.74h-7.094v-11.823H1121.863z
		"/>
	<path fill="#FFFFFF" d="M1160.197,714.314c0.329,0.394,0.7,0.685,1.111,0.874c0.124,0.063,0.251,0.111,0.377,0.143
		s0.252,0.046,0.38,0.046h18.917v7.047h-18.917c-2.588,0-4.809-0.924-6.669-2.771c-1.861-1.848-2.79-4.065-2.79-6.656
		c0-2.494,0-4.483,0-5.966c0-1.358,0-2.622,0-3.79c0-1.169,0-1.864,0-2.083c0-2.622,0.929-4.856,2.79-6.704
		c1.86-1.847,4.081-2.771,6.669-2.771l18.633-0.048v7.142h-18.633c-0.633,0.032-1.183,0.276-1.656,0.734
		c-0.474,0.455-0.71,1.016-0.71,1.678v2.317h20.102v7.094h-20.102v2.365C1159.699,713.469,1159.865,713.919,1160.197,714.314z"/>
	<path fill="#FFFFFF" d="M1191.742,691.729c2.441,0,5.131,0,8.062,0c2.523,0,4.895,0,7.118,0s3.649,0,4.28,0
		c2.617,0,4.849,0.924,6.692,2.768c1.846,1.845,2.767,4.077,2.767,6.693c0,1.072-0.158,2.089-0.473,3.05
		c-0.314,0.963-0.726,1.854-1.229,2.673c0.724,0.82,1.276,1.748,1.654,2.789c0.379,1.042,0.566,2.146,0.566,3.312v9.41h-7.094
		v-9.458c0-0.567-0.195-1.071-0.591-1.515c-0.396-0.44-0.86-0.708-1.396-0.804c-0.062,0-0.97,0-2.719,0c-1.751,0-3.664,0-5.746,0
		c-2.114,0-4.936,0-8.465,0v11.824h-7.097v-30.788C1188.075,691.715,1189.297,691.729,1191.742,691.729z M1195.172,698.777v4.729
		h16.268c0.631,0.031,1.184-0.192,1.655-0.669c0.472-0.479,0.71-1.036,0.71-1.673c0-0.668-0.238-1.234-0.71-1.695
		c-0.472-0.462-1.024-0.692-1.655-0.692H1195.172z"/>
</g>
<g>
	<path fill="#FFFFFF" d="M648.719,780.447h4.361c0.609,0.028,1.126-0.176,1.548-0.611c0.421-0.436,0.632-0.944,0.632-1.525v-19.664
		h6.54v19.62c0,2.413-0.851,4.47-2.55,6.171c-1.7,1.699-3.758,2.549-6.17,2.549h-23.981v-28.34h6.54v21.801h6.541v-21.801h6.539
		V780.447z"/>
	<path fill="#FFFFFF" d="M674.88,776.086v10.9h-6.54v-28.34h6.54v10.9h15.261v-10.9h6.54v28.34h-6.54v-10.9H674.88z"/>
	<path fill="#FFFFFF" d="M729.557,760.607c0.696-0.669,1.431-1.162,2.202-1.482c0.769-0.318,1.619-0.479,2.55-0.479
		c1.802,0,3.343,0.641,4.622,1.921c1.279,1.281,1.918,2.824,1.918,4.629v21.79h-6.54v-10.9h-10.9l-10.9,10.9h-9.288L729.557,760.607
		z M734.025,766.711c-0.189-0.145-0.413-0.218-0.677-0.218c-0.028,0-0.05-0.006-0.064-0.021c-0.016-0.014-0.022-0.036-0.022-0.064
		c0-0.029,0-0.052,0-0.066c0-0.014,0-0.035,0-0.065c-0.146,0.118-0.333,0.291-0.566,0.523l-2.747,2.748h4.36v-2.181
		C734.309,767.076,734.213,766.857,734.025,766.711z"/>
	<path fill="#FFFFFF" d="M747.39,765.186v-6.539h28.297v6.539h-10.901v21.801h-6.539v-21.801H747.39z"/>
	<path fill="#FFFFFF" d="M782.271,758.646l2.181-2.181h-2.181v-6.541h6.54v6.541l-6.54,4.359V758.646z"/>
	<path fill="#FFFFFF" d="M810.394,776.086c-1.162,0-2.297,0-3.401,0s-2.079,0-2.921,0c-2.384,0-4.433-0.856-6.148-2.572
		c-1.715-1.716-2.572-3.765-2.572-6.147c0-2.413,0.857-4.47,2.572-6.17c1.716-1.701,3.765-2.55,6.148-2.55l23.98-0.044v6.583h-23.98
		c-0.582,0.03-1.089,0.256-1.526,0.677c-0.436,0.421-0.653,0.937-0.653,1.548c0,0.581,0.224,1.09,0.675,1.525
		s0.952,0.653,1.505,0.653c3.169,0,5.696,0,7.587,0c1.715,0,3.314,0,4.797,0c1.481,0,2.382,0,2.702,0
		c2.412,0,4.469,0.856,6.17,2.567c1.7,1.711,2.551,3.77,2.551,6.176c0,2.378-0.851,4.414-2.551,6.11
		c-1.701,1.698-3.758,2.544-6.17,2.544h-23.85v-6.539h23.85c0.611,0.028,1.127-0.178,1.548-0.616
		c0.421-0.441,0.633-0.956,0.633-1.543c0-0.616-0.212-1.138-0.633-1.563s-0.937-0.639-1.548-0.639
		C815.523,776.086,812.603,776.086,810.394,776.086z"/>
	<path fill="#FFFFFF" d="M868.383,765.186v-6.539h28.298v6.539h-10.9v21.801h-6.54v-21.801H868.383z"/>
	<path fill="#FFFFFF" d="M909.805,776.086v10.9h-6.541v-28.34h6.541v10.9h15.261v-10.9h6.541v28.34h-6.541v-10.9H909.805z"/>
	<path fill="#FFFFFF" d="M945.144,779.509c0.305,0.364,0.646,0.633,1.024,0.807c0.115,0.059,0.232,0.103,0.349,0.132
		c0.116,0.028,0.232,0.042,0.35,0.042h17.439v6.497h-17.439c-2.385,0-4.433-0.852-6.148-2.555s-2.572-3.748-2.572-6.136
		c0-2.3,0-4.133,0-5.501c0-1.252,0-2.417,0-3.494c0-1.076,0-1.718,0-1.921c0-2.417,0.856-4.476,2.572-6.179s3.764-2.555,6.148-2.555
		l17.178-0.044v6.583h-17.178c-0.583,0.03-1.09,0.256-1.527,0.677c-0.436,0.421-0.653,0.937-0.653,1.548v2.137h18.531v6.539h-18.531
		v2.181C944.686,778.731,944.838,779.146,945.144,779.509z"/>
	<path fill="#FFFFFF" d="M1017.718,786.986v-21.801h-4.361c-0.028,0.03-0.064,0.044-0.108,0.044c-0.043,0-0.08,0-0.109,0
		c-0.494,0.06-0.944,0.291-1.352,0.698c-0.406,0.406-0.609,0.901-0.609,1.482v19.576h-6.541v-19.65c0-2.388,0.857-4.432,2.572-6.135
		c1.716-1.703,3.765-2.555,6.147-2.555l15.262-0.044c2.412,0.028,4.47,0.896,6.17,2.599c1.699,1.703,2.55,3.762,2.55,6.179v19.606
		h-6.54v-19.66c0-0.582-0.211-1.085-0.632-1.507c-0.422-0.423-0.938-0.634-1.548-0.634h-4.361v21.801H1017.718z"/>
	<path fill="#FFFFFF" d="M1070.214,760.607c0.697-0.669,1.431-1.162,2.201-1.482c0.771-0.318,1.62-0.479,2.551-0.479
		c1.803,0,3.343,0.641,4.623,1.921c1.278,1.281,1.917,2.824,1.917,4.629v21.79h-6.54v-10.9h-10.9l-10.9,10.9h-9.287
		L1070.214,760.607z M1074.683,766.711c-0.188-0.145-0.414-0.218-0.676-0.218c-0.029,0-0.052-0.006-0.065-0.021
		c-0.015-0.014-0.022-0.036-0.022-0.064c0-0.029,0-0.052,0-0.066c0-0.014,0-0.035,0-0.065c-0.146,0.118-0.334,0.291-0.565,0.523
		l-2.748,2.748h4.36v-2.181C1074.966,767.076,1074.871,766.857,1074.683,766.711z"/>
	<path fill="#FFFFFF" d="M1088.047,765.186v-6.539h28.297v6.539h-10.9v21.801h-6.54v-21.801H1088.047z"/>
	<path fill="#FFFFFF" d="M1122.927,765.186v-6.539h28.299v6.539h-10.9v21.801h-6.541v-21.801H1122.927z"/>
	<path fill="#FFFFFF" d="M1164.808,779.509c0.305,0.364,0.646,0.633,1.023,0.807c0.117,0.059,0.233,0.103,0.35,0.132
		c0.115,0.028,0.232,0.042,0.349,0.042h17.441v6.497h-17.441c-2.384,0-4.433-0.852-6.147-2.555s-2.573-3.748-2.573-6.136
		c0-2.3,0-4.133,0-5.501c0-1.252,0-2.417,0-3.494c0-1.076,0-1.718,0-1.921c0-2.417,0.858-4.476,2.573-6.179s3.764-2.555,6.147-2.555
		l17.18-0.044v6.583h-17.18c-0.581,0.03-1.09,0.256-1.525,0.677c-0.437,0.421-0.654,0.937-0.654,1.548v2.137h18.53v6.539h-18.53
		v2.181C1164.35,778.731,1164.503,779.146,1164.808,779.509z"/>
	<path fill="#FFFFFF" d="M1193.89,758.688c2.251,0,4.73,0,7.434,0c2.325,0,4.514,0,6.562,0s3.363,0,3.945,0
		c2.412,0,4.469,0.852,6.17,2.552c1.7,1.7,2.551,3.758,2.551,6.17c0,0.988-0.146,1.926-0.436,2.812
		c-0.291,0.888-0.669,1.708-1.134,2.463c0.667,0.757,1.177,1.613,1.525,2.572c0.35,0.96,0.523,1.978,0.523,3.054v8.676h-6.54v-8.72
		c0-0.523-0.183-0.988-0.546-1.396c-0.363-0.405-0.791-0.653-1.286-0.74c-0.059,0-0.893,0-2.507,0c-1.613,0-3.379,0-5.298,0
		c-1.947,0-4.55,0-7.805,0v10.9h-6.539v-28.384C1190.511,758.675,1191.636,758.688,1193.89,758.688z M1197.05,765.186v4.361h15
		c0.58,0.028,1.089-0.178,1.525-0.616c0.437-0.441,0.654-0.956,0.654-1.543c0-0.616-0.218-1.138-0.654-1.563
		s-0.945-0.639-1.525-0.639H1197.05z"/>
</g>
<g>
	<path fill="#FFFFFF" d="M474.467,840.613v11.653h-7.01V821.97h7.01v11.653h16.357V821.97h7.011v30.297h-7.011v-11.653H474.467z"/>
	<path fill="#FFFFFF" d="M533.075,824.066c0.746-0.715,1.532-1.242,2.359-1.585c0.824-0.34,1.736-0.512,2.733-0.512
		c1.932,0,3.583,0.686,4.955,2.054c1.37,1.369,2.055,3.019,2.055,4.948v23.295h-7.01v-11.653h-11.684L514.8,852.267h-9.955
		L533.075,824.066z M537.864,830.592c-0.201-0.155-0.442-0.233-0.725-0.233c-0.031,0-0.054-0.007-0.07-0.022
		c-0.016-0.015-0.023-0.039-0.023-0.069c0-0.031,0-0.056,0-0.071c0-0.015,0-0.037,0-0.069c-0.156,0.126-0.356,0.311-0.607,0.56
		l-2.945,2.938h4.675v-2.331C538.168,830.981,538.066,830.748,537.864,830.592z"/>
	<path fill="#FFFFFF" d="M568.313,840.613c-1.246,0-2.462,0-3.645,0c-1.187,0-2.229,0-3.133,0c-2.556,0-4.752-0.915-6.589-2.749
		c-1.839-1.835-2.758-4.024-2.758-6.572c0-2.58,0.919-4.778,2.758-6.597c1.837-1.817,4.033-2.726,6.589-2.726l25.705-0.047v7.038
		h-25.705c-0.623,0.032-1.168,0.273-1.634,0.723c-0.469,0.45-0.701,1.002-0.701,1.655c0,0.621,0.239,1.164,0.723,1.631
		c0.482,0.466,1.02,0.698,1.612,0.698c3.396,0,6.107,0,8.132,0c1.839,0,3.553,0,5.141,0c1.591,0,2.556,0,2.898,0
		c2.585,0,4.791,0.916,6.613,2.745c1.824,1.828,2.734,4.029,2.734,6.602c0,2.542-0.91,4.719-2.734,6.531
		c-1.822,1.815-4.028,2.721-6.613,2.721h-25.564v-6.991h25.564c0.654,0.031,1.209-0.19,1.659-0.658
		c0.45-0.472,0.68-1.021,0.68-1.649c0-0.659-0.229-1.216-0.68-1.671s-1.005-0.684-1.659-0.684
		C573.812,840.613,570.681,840.613,568.313,840.613z"/>
	<path fill="#FFFFFF" d="M594.252,828.961v-6.991h30.331v6.991h-11.684v23.306h-7.011v-23.306H594.252z"/>
	<path fill="#FFFFFF" d="M659.871,824.066c0.746-0.715,1.533-1.242,2.359-1.585c0.824-0.34,1.735-0.512,2.734-0.512
		c1.931,0,3.582,0.686,4.952,2.054c1.373,1.369,2.057,3.019,2.057,4.948v23.295h-7.009v-11.653h-11.684l-11.686,11.653h-9.955
		L659.871,824.066z M664.661,830.592c-0.204-0.155-0.444-0.233-0.725-0.233c-0.033,0-0.055-0.007-0.07-0.022
		c-0.016-0.015-0.023-0.039-0.023-0.069c0-0.031,0-0.056,0-0.071c0-0.015,0-0.037,0-0.069c-0.157,0.126-0.358,0.311-0.607,0.56
		l-2.945,2.938h4.675v-2.331C664.965,830.981,664.862,830.748,664.661,830.592z"/>
	<path fill="#FFFFFF" d="M724.552,852.267c-2.556,0-4.751-0.909-6.59-2.726c-1.839-1.818-2.758-4.002-2.758-6.55V821.97h7.01v20.975
		c0,0.652,0.234,1.212,0.701,1.678c0.47,0.466,1.012,0.699,1.637,0.699h18.694v6.945H724.552z"/>
	<path fill="#FFFFFF" d="M778.485,824.066c0.748-0.715,1.535-1.242,2.36-1.585c0.826-0.34,1.736-0.512,2.735-0.512
		c1.929,0,3.58,0.686,4.953,2.054c1.372,1.369,2.056,3.019,2.056,4.948v23.295h-7.009v-11.653h-11.686l-11.684,11.653h-9.954
		L778.485,824.066z M783.277,830.592c-0.203-0.155-0.444-0.233-0.725-0.233c-0.033,0-0.057-0.007-0.07-0.022
		c-0.016-0.015-0.023-0.039-0.023-0.069c0-0.031,0-0.056,0-0.071c0-0.015,0-0.037,0-0.069c-0.156,0.126-0.358,0.311-0.607,0.56
		l-2.945,2.938h4.675v-2.331C783.581,830.981,783.479,830.748,783.277,830.592z"/>
	<path fill="#FFFFFF" d="M874.153,821.97l-28.228,28.152c-0.779,0.777-1.574,1.328-2.384,1.654c-0.811,0.327-1.715,0.49-2.71,0.49
		c-1.901,0-3.545-0.683-4.932-2.051c-1.386-1.367-2.079-2.999-2.079-4.895V821.97h7.011v20.975c0,0.342,0.1,0.599,0.304,0.771
		c0.201,0.17,0.427,0.255,0.678,0.255c0.061,0,0.092,0.007,0.092,0.023c0,0.016,0,0.055,0,0.116c0,0.03,0,0.062,0,0.094
		c0,0.03,0.039,0.008,0.117-0.071c0.079-0.076,0.241-0.239,0.492-0.488l21.685-21.674H874.153z"/>
	<path fill="#FFFFFF" d="M881.165,852.267V821.97h7.011v30.297H881.165z"/>
	<path fill="#FFFFFF" d="M911.31,840.613c-1.247,0-2.461,0-3.646,0c-1.183,0-2.229,0-3.131,0c-2.554,0-4.751-0.915-6.59-2.749
		c-1.837-1.835-2.758-4.024-2.758-6.572c0-2.58,0.921-4.778,2.758-6.597c1.839-1.817,4.036-2.726,6.59-2.726l25.705-0.047v7.038
		h-25.705c-0.623,0.032-1.167,0.273-1.636,0.723c-0.466,0.45-0.701,1.002-0.701,1.655c0,0.621,0.241,1.164,0.725,1.631
		c0.484,0.466,1.021,0.698,1.612,0.698c3.396,0,6.105,0,8.133,0c1.839,0,3.551,0,5.141,0c1.588,0,2.554,0,2.898,0
		c2.585,0,4.79,0.916,6.611,2.745c1.823,1.828,2.736,4.029,2.736,6.602c0,2.542-0.913,4.719-2.736,6.531
		c-1.821,1.815-4.026,2.721-6.611,2.721h-25.566v-6.991h25.566c0.654,0.031,1.206-0.19,1.659-0.658
		c0.45-0.472,0.677-1.021,0.677-1.649c0-0.659-0.227-1.216-0.677-1.671c-0.453-0.455-1.005-0.684-1.659-0.684
		C916.809,840.613,913.676,840.613,911.31,840.613z"/>
	<path fill="#FFFFFF" d="M937.246,828.961v-6.991h30.334v6.991h-11.684v23.306h-7.012v-23.306H937.246z"/>
	<path fill="#FFFFFF" d="M1002.865,824.066c0.748-0.715,1.536-1.242,2.36-1.585c0.826-0.34,1.735-0.512,2.733-0.512
		c1.932,0,3.582,0.686,4.955,2.054c1.371,1.369,2.057,3.019,2.057,4.948v23.295h-7.012v-11.653h-11.684l-11.684,11.653h-9.954
		L1002.865,824.066z M1007.656,830.592c-0.204-0.155-0.443-0.233-0.725-0.233c-0.032,0-0.056-0.007-0.071-0.022
		c-0.016-0.015-0.023-0.039-0.023-0.069c0-0.031,0-0.056,0-0.071c0-0.015,0-0.037,0-0.069c-0.154,0.126-0.358,0.311-0.606,0.56
		l-2.943,2.938h4.672v-2.331C1007.959,830.981,1007.857,830.748,1007.656,830.592z"/>
	<path fill="#FFFFFF" d="M1058.201,821.97c0,0.031,1.206,0.046,3.621,0.046s5.072,0,7.969,0c2.493,0,4.837,0,7.034,0
		s3.605,0,4.229,0c2.587,0,4.792,0.91,6.615,2.727c1.823,1.818,2.731,4.018,2.731,6.597c0,1.056-0.162,2.059-0.489,3.005
		c-0.327,0.949-0.803,1.826-1.426,2.634c0.717,0.809,1.301,1.725,1.753,2.75s0.678,2.114,0.678,3.264
		c0,2.548-0.911,4.731-2.734,6.55c-1.823,1.816-4.026,2.726-6.613,2.726c-0.623,0-2.056,0-4.301,0c-2.242,0-4.656,0-7.241,0
		c-2.962,0-6.903,0-11.825,0V821.97z M1083.905,842.944c0-0.621-0.226-1.158-0.678-1.607c-0.452-0.45-1.003-0.677-1.659-0.677
		h-16.403l0.047,4.615h16.356c0.656,0.031,1.207-0.188,1.659-0.653s0.678-1.01,0.678-1.631V842.944z M1065.212,828.961v4.662h16.076
		c0.623,0.03,1.17-0.19,1.636-0.659c0.468-0.472,0.701-1.021,0.701-1.649c0-0.658-0.233-1.216-0.701-1.671
		c-0.466-0.455-1.013-0.683-1.636-0.683H1065.212z"/>
	<path fill="#FFFFFF" d="M1126.156,824.066c0.746-0.715,1.534-1.242,2.36-1.585c0.824-0.34,1.735-0.512,2.733-0.512
		c1.932,0,3.582,0.686,4.953,2.054c1.371,1.369,2.057,3.019,2.057,4.948v23.295h-7.01v-11.653h-11.684l-11.686,11.653h-9.954
		L1126.156,824.066z M1130.945,830.592c-0.202-0.155-0.443-0.233-0.723-0.233c-0.033,0-0.055-0.007-0.07-0.022
		c-0.019-0.015-0.024-0.039-0.024-0.069c0-0.031,0-0.056,0-0.071c0-0.015,0-0.037,0-0.069c-0.156,0.126-0.358,0.311-0.608,0.56
		l-2.943,2.938h4.674v-2.331C1131.25,830.981,1131.148,830.748,1130.945,830.592z"/>
	<path fill="#FFFFFF" d="M1145.271,821.97c0,0.031,1.206,0.046,3.621,0.046s5.072,0,7.971,0c2.491,0,4.837,0,7.032,0
		c2.197,0,3.607,0,4.23,0c2.587,0,4.79,0.91,6.613,2.727c1.823,1.818,2.733,4.018,2.733,6.597c0,1.056-0.162,2.059-0.489,3.005
		c-0.329,0.949-0.803,1.826-1.426,2.634c0.717,0.809,1.301,1.725,1.753,2.75c0.45,1.025,0.676,2.114,0.676,3.264
		c0,2.548-0.909,4.731-2.732,6.55c-1.823,1.816-4.028,2.726-6.615,2.726c-0.623,0-2.057,0-4.299,0c-2.244,0-4.659,0-7.244,0
		c-2.961,0-6.903,0-11.824,0V821.97z M1170.976,842.944c0-0.621-0.227-1.158-0.677-1.607c-0.453-0.45-1.005-0.677-1.661-0.677
		h-16.403l0.047,4.615h16.356c0.656,0.031,1.208-0.188,1.661-0.653c0.45-0.466,0.677-1.01,0.677-1.631V842.944z M1152.281,828.961
		v4.662h16.076c0.623,0.03,1.17-0.19,1.638-0.659c0.466-0.472,0.701-1.021,0.701-1.649c0-0.658-0.235-1.216-0.701-1.671
		c-0.468-0.455-1.015-0.683-1.638-0.683H1152.281z"/>
	<path fill="#FFFFFF" d="M1199.018,852.267v-11.653h-4.674c-2.557,0.032-4.752-0.87-6.591-2.704
		c-1.839-1.831-2.757-4.022-2.757-6.57v-9.369h7.011v9.322c0,0.622,0.218,1.149,0.654,1.584c0.437,0.436,0.918,0.7,1.449,0.792
		c0.031,0,0.07,0,0.117,0s0.086,0,0.116,0h16.357c0.654,0.032,1.209-0.188,1.661-0.653c0.45-0.469,0.676-1.015,0.676-1.639v-9.406
		h7.011v9.299c0,2.573-0.91,4.774-2.734,6.604c-1.822,1.829-4.025,2.741-6.613,2.741h-4.672v11.653H1199.018z"/>
</g>
</svg>
