<?xml version="1.0" encoding="utf-8"?>
<!-- Generator: Adobe Illustrator 13.0.0, SVG Export Plug-In . SVG Version: 6.00 Build 14948)  -->
<!DOCTYPE svg PUBLIC "-//W3C//DTD SVG 1.0//EN" "http://www.w3.org/TR/2001/REC-SVG-20010904/DTD/svg10.dtd">
<svg version="1.0" id="Layer_3" xmlns="http://www.w3.org/2000/svg" xmlns:xlink="http://www.w3.org/1999/xlink" x="0px" y="0px"
	 width="1296px" height="955px" viewBox="1.4 0.9 1296 955" enable-background="new 1.4 0.9 1296 955" xml:space="preserve">
<path opacity="0.7" stroke="#FFFFFF" stroke-width="4" d="M1259.001,719.349c0,8.746-9.871,15.836-22.057,15.836h-606.48
	c-12.186,0-22.057-7.09-22.057-15.836v-26.391c0-8.745,9.871-15.834,22.057-15.834h606.48c12.186,0,22.057,7.089,22.057,15.834
	V719.349z"/>
<g>
	<path fill="#FFFFFF" d="M672.236,698.777h-25.684c-0.125,0.032-0.283,0.086-0.472,0.165c-0.188,0.08-0.379,0.183-0.567,0.307
		c-0.349,0.191-0.655,0.458-0.924,0.806c-0.266,0.347-0.401,0.725-0.401,1.135v11.776c0,0.632,0.221,1.167,0.663,1.606
		c0.44,0.443,0.931,0.711,1.466,0.805c0.031,0,0.071,0,0.118,0c0.048,0,0.087,0,0.117,0h16.555c0.661,0.033,1.221-0.19,1.679-0.669
		c0.458-0.478,0.687-1.034,0.687-1.672c0-0.668-0.229-1.233-0.687-1.695s-1.018-0.693-1.679-0.693h-11.823v-7.141
		c3.75,0,6.746,0,8.986,0c0.472,0,0.944,0,1.418,0c0.473,0,0.944,0,1.419,0c2.616,0,4.848,0.924,6.691,2.774
		c1.846,1.849,2.768,4.085,2.768,6.708c0,2.593-0.922,4.813-2.768,6.661c-1.844,1.85-4.075,2.773-6.691,2.773h-16.555
		c-2.585,0-4.809-0.922-6.668-2.765c-1.86-1.846-2.79-4.061-2.79-6.646c0-2.491,0-4.478,0-5.959c0-1.356,0-2.617,0-3.784
		s0-1.861,0-2.081c0-2.616,0.93-4.849,2.79-6.693c1.859-1.844,4.083-2.768,6.668-2.768l25.684-0.045V698.777z"/>
	<path fill="#FFFFFF" d="M687.25,714.314c0.332,0.394,0.702,0.685,1.113,0.874c0.124,0.063,0.249,0.111,0.377,0.143
		c0.126,0.031,0.253,0.046,0.378,0.046h18.919v7.047h-18.919c-2.586,0-4.809-0.924-6.669-2.771c-1.859-1.848-2.79-4.065-2.79-6.656
		c0-2.494,0-4.483,0-5.966c0-1.358,0-2.622,0-3.79c0-1.169,0-1.864,0-2.083c0-2.622,0.931-4.856,2.79-6.704
		c1.86-1.847,4.083-2.771,6.669-2.771l18.634-0.048v7.142h-18.634c-0.631,0.032-1.182,0.276-1.656,0.734
		c-0.472,0.455-0.707,1.016-0.707,1.678v2.317h20.101v7.094h-20.101v2.365C686.755,713.469,686.92,713.919,687.25,714.314z"/>
	<path fill="#FFFFFF" d="M715.131,698.777v-7.094h30.695v7.094h-11.825v23.646h-7.093v-23.646H715.131z"/>
	<path fill="#FFFFFF" d="M803.808,722.424v-11.823h-4.729c-2.586,0.033-4.809-0.883-6.668-2.745c-1.86-1.856-2.79-4.08-2.79-6.666
		v-9.506h7.095v9.458c0,0.632,0.22,1.168,0.66,1.608c0.442,0.441,0.93,0.71,1.468,0.803c0.029,0,0.07,0,0.117,0s0.087,0,0.118,0
		h16.554c0.662,0.033,1.222-0.19,1.679-0.662c0.457-0.476,0.687-1.03,0.687-1.663v-9.544h7.094v9.436
		c0,2.611-0.922,4.844-2.765,6.699c-1.847,1.857-4.079,2.782-6.694,2.782h-4.729v11.823H803.808z"/>
	<path fill="#FFFFFF" d="M834.975,719.653c-1.86-1.848-2.79-4.065-2.79-6.656c0-2.494,0-4.483,0-5.966c0-1.358,0-2.622,0-3.79
		c0-1.169,0-1.864,0-2.083c0-2.622,0.93-4.856,2.79-6.704c1.859-1.847,4.083-2.771,6.668-2.771l16.555-0.048
		c2.615,0.031,4.848,0.972,6.693,2.818c1.843,1.848,2.765,4.082,2.765,6.704c0,0.219,0,0.914,0,2.083c0,1.168,0,2.432,0,3.79
		c0,1.482,0,3.472,0,5.966c0,2.591-0.922,4.809-2.765,6.656c-1.846,1.847-4.078,2.771-6.693,2.771h-16.555
		C839.058,722.424,836.834,721.5,834.975,719.653z M859.876,714.645c0.457-0.458,0.687-1.001,0.687-1.631v-11.872
		c0-0.535-0.207-1.017-0.617-1.441c-0.41-0.427-0.849-0.703-1.324-0.828c-0.062,0-0.133-0.009-0.211-0.025
		c-0.079-0.014-0.151-0.021-0.213-0.021h-16.555c-0.126,0.03-0.282,0.086-0.473,0.163c-0.189,0.079-0.377,0.182-0.567,0.306
		c-0.348,0.189-0.652,0.455-0.921,0.801c-0.27,0.346-0.402,0.721-0.402,1.128v11.71c0,0.627,0.221,1.159,0.66,1.598
		c0.443,0.439,0.931,0.706,1.468,0.801c0.03,0,0.071,0,0.117,0c0.048,0,0.087,0,0.118,0h16.555
		C858.859,715.331,859.418,715.103,859.876,714.645z"/>
	<path fill="#FFFFFF" d="M907.854,712.966c0,2.617-0.92,4.848-2.765,6.693c-1.846,1.843-4.076,2.765-6.693,2.765h-14.188
		c-2.586,0-4.809-0.922-6.669-2.765c-1.86-1.846-2.791-4.061-2.791-6.646v-21.285h7.096v21.237c0,0.632,0.22,1.167,0.661,1.606
		c0.441,0.443,0.93,0.711,1.467,0.805c0.03,0,0.07,0,0.117,0s0.087,0,0.119,0h14.188c0.664,0.033,1.222-0.188,1.679-0.662
		c0.457-0.476,0.687-1.028,0.687-1.659v-21.372h7.093V712.966z"/>
	<path fill="#FFFFFF" d="M918.616,691.729c2.442,0,5.131,0,8.062,0c2.523,0,4.896,0,7.118,0c2.223,0,3.648,0,4.281,0
		c2.615,0,4.846,0.924,6.691,2.768c1.846,1.845,2.768,4.077,2.768,6.693c0,1.072-0.157,2.089-0.473,3.05
		c-0.315,0.963-0.726,1.854-1.23,2.673c0.726,0.82,1.278,1.748,1.655,2.789c0.378,1.042,0.567,2.146,0.567,3.312v9.41h-7.094v-9.458
		c0-0.567-0.198-1.071-0.592-1.515c-0.394-0.44-0.859-0.708-1.396-0.804c-0.064,0-0.97,0-2.72,0c-1.749,0-3.665,0-5.746,0
		c-2.112,0-4.936,0-8.466,0v11.824h-7.093v-30.788C914.951,691.715,916.171,691.729,918.616,691.729z M922.044,698.777v4.729h16.27
		c0.631,0.031,1.183-0.192,1.654-0.669c0.476-0.479,0.711-1.036,0.711-1.673c0-0.668-0.235-1.234-0.711-1.695
		c-0.472-0.462-1.023-0.692-1.654-0.692H922.044z"/>
	<path fill="#FFFFFF" d="M1005.992,722.424v-23.646h-4.73c-0.031,0.032-0.07,0.048-0.118,0.048c-0.045,0-0.087,0-0.118,0
		c-0.536,0.063-1.023,0.314-1.466,0.756c-0.441,0.441-0.662,0.978-0.662,1.608v21.234h-7.095V701.11c0-2.591,0.932-4.809,2.79-6.656
		c1.862-1.847,4.085-2.771,6.669-2.771l16.556-0.048c2.614,0.031,4.848,0.972,6.691,2.818c1.844,1.848,2.766,4.082,2.766,6.704
		v21.266h-7.092V701.1c0-0.633-0.23-1.178-0.688-1.636c-0.456-0.458-1.018-0.687-1.677-0.687h-4.732v23.646H1005.992z"/>
	<path fill="#FFFFFF" d="M1037.158,719.653c-1.858-1.848-2.79-4.065-2.79-6.656c0-2.494,0-4.483,0-5.966c0-1.358,0-2.622,0-3.79
		c0-1.169,0-1.864,0-2.083c0-2.622,0.932-4.856,2.79-6.704c1.861-1.847,4.084-2.771,6.668-2.771l16.556-0.048
		c2.615,0.031,4.848,0.972,6.691,2.818c1.845,1.848,2.767,4.082,2.767,6.704c0,0.219,0,0.914,0,2.083c0,1.168,0,2.432,0,3.79
		c0,1.482,0,3.472,0,5.966c0,2.591-0.922,4.809-2.767,6.656c-1.844,1.847-4.076,2.771-6.691,2.771h-16.556
		C1041.242,722.424,1039.02,721.5,1037.158,719.653z M1062.06,714.645c0.456-0.458,0.686-1.001,0.686-1.631v-11.872
		c0-0.535-0.204-1.017-0.614-1.441c-0.41-0.427-0.852-0.703-1.324-0.828c-0.062,0-0.136-0.009-0.213-0.025
		c-0.078-0.014-0.15-0.021-0.212-0.021h-16.556c-0.124,0.03-0.281,0.086-0.471,0.163c-0.189,0.079-0.379,0.182-0.568,0.306
		c-0.347,0.189-0.654,0.455-0.922,0.801c-0.27,0.346-0.402,0.721-0.402,1.128v11.71c0,0.627,0.22,1.159,0.662,1.598
		c0.441,0.439,0.929,0.706,1.466,0.801c0.031,0,0.072,0,0.119,0c0.048,0,0.087,0,0.116,0h16.556
		C1061.042,715.331,1061.603,715.103,1062.06,714.645z"/>
	<path fill="#FFFFFF" d="M1076.934,698.777v-7.094h30.694v7.094h-11.824v23.646h-7.094v-23.646H1076.934z"/>
	<path fill="#FFFFFF" d="M1121.863,710.601v11.823h-7.093v-30.74h7.093v11.823h16.554v-11.823h7.094v30.74h-7.094v-11.823H1121.863z
		"/>
	<path fill="#FFFFFF" d="M1160.197,714.314c0.329,0.394,0.7,0.685,1.111,0.874c0.124,0.063,0.251,0.111,0.377,0.143
		s0.252,0.046,0.38,0.046h18.917v7.047h-18.917c-2.588,0-4.809-0.924-6.669-2.771c-1.861-1.848-2.79-4.065-2.79-6.656
		c0-2.494,0-4.483,0-5.966c0-1.358,0-2.622,0-3.79c0-1.169,0-1.864,0-2.083c0-2.622,0.929-4.856,2.79-6.704
		c1.86-1.847,4.081-2.771,6.669-2.771l18.633-0.048v7.142h-18.633c-0.633,0.032-1.183,0.276-1.656,0.734
		c-0.474,0.455-0.71,1.016-0.71,1.678v2.317h20.102v7.094h-20.102v2.365C1159.699,713.469,1159.865,713.919,1160.197,714.314z"/>
	<path fill="#FFFFFF" d="M1191.742,691.729c2.441,0,5.131,0,8.062,0c2.523,0,4.895,0,7.118,0s3.649,0,4.28,0
		c2.617,0,4.849,0.924,6.692,2.768c1.846,1.845,2.767,4.077,2.767,6.693c0,1.072-0.158,2.089-0.473,3.05
		c-0.314,0.963-0.726,1.854-1.229,2.673c0.724,0.82,1.276,1.748,1.654,2.789c0.379,1.042,0.566,2.146,0.566,3.312v9.41h-7.094
		v-9.458c0-0.567-0.195-1.071-0.591-1.515c-0.396-0.44-0.86-0.708-1.396-0.804c-0.062,0-0.97,0-2.719,0c-1.751,0-3.664,0-5.746,0
		c-2.114,0-4.936,0-8.465,0v11.824h-7.097v-30.788C1188.075,691.715,1189.297,691.729,1191.742,691.729z M1195.172,698.777v4.729
		h16.268c0.631,0.031,1.184-0.192,1.655-0.669c0.472-0.479,0.71-1.036,0.71-1.673c0-0.668-0.238-1.234-0.71-1.695
		c-0.472-0.462-1.024-0.692-1.655-0.692H1195.172z"/>
</g>
</svg>
