<?xml version="1.0" encoding="utf-8"?>
<!-- Generator: Adobe Illustrator 13.0.0, SVG Export Plug-In . SVG Version: 6.00 Build 14948)  -->
<!DOCTYPE svg PUBLIC "-//W3C//DTD SVG 1.0//EN" "http://www.w3.org/TR/2001/REC-SVG-20010904/DTD/svg10.dtd">
<svg version="1.0" id="Layer_3" xmlns="http://www.w3.org/2000/svg" xmlns:xlink="http://www.w3.org/1999/xlink" x="0px" y="0px"
	 width="1296px" height="955px" viewBox="1.4 0.9 1296 955" enable-background="new 1.4 0.9 1296 955" xml:space="preserve">
<path opacity="0.7" stroke="#FFFFFF" stroke-width="4" d="M1256.508,194.165c0,8.746-7.093,15.835-15.845,15.835H804.95
	c-8.751,0-15.845-7.089-15.845-15.835v-26.391c0-8.745,7.094-15.834,15.845-15.834h435.713c8.752,0,15.845,7.089,15.845,15.834
	V194.165z"/>
<g>
	<path fill="#FFFFFF" d="M825.872,196.648v-29.782h6.872v29.782H825.872z"/>
	<path fill="#FFFFFF" d="M839.616,166.867l2.292-2.291h-2.292v-6.873h6.874v6.873l-6.874,4.582V166.867z"/>
	<path fill="#FFFFFF" d="M862.525,196.648c-2.504,0-4.657-0.894-6.46-2.68c-1.802-1.787-2.703-3.933-2.703-6.438v-20.664h6.874
		v20.619c0,0.641,0.229,1.191,0.687,1.649c0.458,0.458,0.992,0.688,1.603,0.688h18.328v6.827H862.525z"/>
	<path fill="#FFFFFF" d="M896.89,196.648c-2.506,0-4.659-0.894-6.46-2.68c-1.804-1.787-2.703-3.933-2.703-6.438v-20.664h6.872
		v20.619c0,0.641,0.229,1.191,0.687,1.649c0.459,0.458,0.992,0.688,1.604,0.688h18.327v6.827H896.89z"/>
	<path fill="#FFFFFF" d="M957.599,166.867c0,0.031,1.184,0.046,3.551,0.046c2.366,0,4.972,0,7.812,0c2.444,0,4.743,0,6.896,0
		c2.152,0,3.534,0,4.146,0c2.534,0,4.695,0.894,6.482,2.68c1.787,1.787,2.681,3.949,2.681,6.483c0,1.039-0.16,2.024-0.481,2.955
		c-0.319,0.932-0.785,1.795-1.396,2.589c0.701,0.794,1.274,1.695,1.718,2.703c0.442,1.008,0.664,2.078,0.664,3.208
		c0,2.505-0.894,4.651-2.681,6.438c-1.787,1.786-3.947,2.68-6.482,2.68c-0.612,0-2.016,0-4.215,0s-4.566,0-7.103,0
		c-2.902,0-6.766,0-11.592,0V166.867z M982.799,187.485c0-0.611-0.223-1.138-0.664-1.581c-0.443-0.442-0.986-0.664-1.627-0.664
		h-16.083l0.046,4.536h16.037c0.641,0.031,1.184-0.183,1.627-0.642c0.441-0.458,0.664-0.992,0.664-1.604V187.485z M964.471,173.739
		v4.582h15.762c0.611,0.031,1.146-0.186,1.604-0.647c0.459-0.463,0.688-1.003,0.688-1.621c0-0.646-0.229-1.194-0.688-1.642
		c-0.458-0.447-0.992-0.672-1.604-0.672H964.471z"/>
	<path fill="#FFFFFF" d="M1003.897,188.791c0.321,0.382,0.679,0.665,1.076,0.848c0.123,0.062,0.245,0.108,0.367,0.138
		c0.121,0.031,0.244,0.046,0.366,0.046h18.328v6.827h-18.328c-2.505,0-4.657-0.895-6.46-2.685c-1.802-1.79-2.703-3.938-2.703-6.448
		c0-2.416,0-4.343,0-5.781c0-1.315,0-2.539,0-3.671s0-1.805,0-2.02c0-2.539,0.901-4.704,2.703-6.493
		c1.803-1.79,3.955-2.685,6.46-2.685l18.053-0.045v6.918h-18.053c-0.61,0.031-1.145,0.268-1.603,0.71
		c-0.458,0.444-0.688,0.985-0.688,1.627v2.245h19.472v6.873h-19.472v2.292C1003.417,187.974,1003.578,188.409,1003.897,188.791z"/>
	<path fill="#FFFFFF" d="M1066.416,166.867c0,0.031,1.184,0.046,3.551,0.046s4.972,0,7.813,0c2.442,0,4.741,0,6.895,0
		c2.154,0,3.536,0,4.146,0c2.536,0,4.697,0.894,6.484,2.68c1.787,1.787,2.679,3.949,2.679,6.483c0,1.039-0.159,2.024-0.48,2.955
		c-0.32,0.932-0.786,1.795-1.397,2.589c0.703,0.794,1.275,1.695,1.719,2.703c0.442,1.008,0.663,2.078,0.663,3.208
		c0,2.505-0.892,4.651-2.679,6.438c-1.787,1.786-3.948,2.68-6.484,2.68c-0.61,0-2.016,0-4.215,0s-4.566,0-7.102,0
		c-2.903,0-6.767,0-11.593,0V166.867z M1091.616,187.485c0-0.611-0.222-1.138-0.664-1.581c-0.443-0.442-0.984-0.664-1.627-0.664
		h-16.082l0.047,4.536h16.035c0.643,0.031,1.184-0.183,1.627-0.642c0.442-0.458,0.664-0.992,0.664-1.604V187.485z M1073.29,173.739
		v4.582h15.76c0.611,0.031,1.146-0.186,1.604-0.647c0.458-0.463,0.688-1.003,0.688-1.621c0-0.646-0.229-1.194-0.688-1.642
		c-0.458-0.447-0.993-0.672-1.604-0.672H1073.29z"/>
	<path fill="#FFFFFF" d="M1133.037,168.929c0.732-0.703,1.504-1.221,2.313-1.558c0.809-0.335,1.701-0.504,2.681-0.504
		c1.893,0,3.511,0.674,4.855,2.019c1.344,1.347,2.017,2.968,2.017,4.864v22.898h-6.872v-11.455h-11.455l-11.454,11.455h-9.76
		L1133.037,168.929z M1137.732,175.343c-0.199-0.152-0.435-0.229-0.709-0.229c-0.032,0-0.055-0.007-0.07-0.023
		c-0.016-0.015-0.022-0.038-0.022-0.068s0-0.053,0-0.069c0-0.015,0-0.038,0-0.069c-0.152,0.123-0.352,0.306-0.596,0.55l-2.887,2.887
		h4.583v-2.291C1138.031,175.725,1137.931,175.496,1137.732,175.343z"/>
	<path fill="#FFFFFF" d="M1160.938,196.648c-2.504,0-4.657-0.895-6.46-2.685c-1.802-1.79-2.703-3.938-2.703-6.448
		c0-2.416,0-4.343,0-5.781c0-1.315,0-2.539,0-3.671s0-1.805,0-2.02c0-2.539,0.901-4.704,2.703-6.493
		c1.803-1.79,3.956-2.685,6.46-2.685l18.328-0.045v6.918h-18.328c-0.091,0.031-0.183,0.054-0.273,0.068
		c-0.092,0.016-0.185,0.039-0.274,0.069c-0.43,0.123-0.825,0.39-1.192,0.801c-0.366,0.413-0.549,0.878-0.549,1.398v11.409
		c0,0.641,0.229,1.191,0.687,1.649c0.458,0.458,0.992,0.688,1.603,0.688h18.328v6.827H1160.938z"/>
	<path fill="#FFFFFF" d="M1193.012,196.648h-6.872v-29.782h6.872v11.455h13.746c0.641,0.031,1.183-0.183,1.626-0.642
		c0.442-0.458,0.665-0.992,0.665-1.604v-9.209h6.872v9.164c0,0.794-0.099,1.557-0.298,2.291c-0.198,0.733-0.466,1.437-0.801,2.107
		c1.037,0.855,1.861,1.895,2.474,3.116c0.61,1.222,0.916,2.551,0.916,3.986v9.118h-6.872v-9.2c0-0.613-0.223-1.142-0.665-1.587
		c-0.443-0.445-0.985-0.667-1.626-0.667h-16.037V196.648z"/>
</g>
</svg>
